M48
;Layer_Color=9474304
;FILE_FORMAT=4:4
METRIC,LZ
;TYPE=PLATED
T01F00S00C0.2000
T02F00S00C0.3000
T03F00S00C0.3048
T04F00S00C0.3810
T05F00S00C0.4000
T06F00S00C0.9200
T07F00S00C0.9652
T08F00S00C1.0000
T10F00S00C1.2000
%
T01
X00699925Y00836483
X006985Y00843
T02
X00812816Y0075
X00840884Y00765112
X00867884Y00766684
X00913953Y007615
X00938305Y0078378
X00773466Y00846332
X00791317Y0086718
X00714895Y00861821
X00850875Y0085868
X00837861Y0082593
X00861958Y00811623
X00863531Y00795
X00916723Y0080331
Y00824583
X00912897Y00849828
X00921269Y00856135
X0095994Y00858998
X00972768Y00836517
X01013751Y00870678
X01014402Y00890827
X00939085Y00885051
X00947794Y00922237
X0085Y009375
T03
X00821972Y00761162
X00735Y007925
X007345Y00916
X007565
X00776951
X007125
X00668395Y0087454
X00822833Y00907567
X00812673Y0093
X0084627Y0092627
X008707Y00925538
X00893218Y00928248
X00892597Y00850053
X01027343Y0090325
T04
X0087025Y0078375
X00938212Y00772734
X010664Y00771496
X01078502Y00748152
X0077973Y007625
X007185Y00765
X006625Y00766781
X006675Y00793598
X00646912Y00738413
X00612068Y00765953
X00611912Y00912467
X00654551Y00918745
X00671072Y00901775
X006975Y00910478
X006975Y009425
X00665
X00785846Y008925
X007875Y00795485
X0075573Y00817323
X007985Y0094177
X00829109Y00941104
X00947716Y00939894
X00965Y00930585
X00982321
X00992321Y00939894
Y00914046
X00975871Y00913856
X009569
X00893178Y00883047
X00899428Y0086268
X01013552Y008596
X01085878Y00882692
Y00933145
X01039775Y00939894
X01085955Y00796136
T05
X006861Y00736226
X007265Y007825
X007725Y007925
X00720298Y0079957
T06
X00650412Y00874618
T07
X00650412Y00804618
Y00829618
Y00849618
T08
X00953884Y00749442
X00979284Y0074868
X01004684
X01030084
X01055484
X010584Y008008
Y008262
X01033
Y008516
X010584
Y00877
X01033
Y008008
T10
X01085955Y0077345
X00629412Y00753453
Y00925869
X01085878Y0090325
M30
