G04*
G04 #@! TF.GenerationSoftware,Altium Limited,Altium Designer,26.5.0 (11)*
G04*
G04 Layer_Physical_Order=2*
G04 Layer_Color=16711680*
G04 Board_Origin=0|0*
%FSLAX44Y44*%
%MOMM*%
G71*
G04*
G04 #@! TF.SameCoordinates,1F41E012-7D3C-4DE9-B48C-88F2C9379496*
G04*
G04*
G04 #@! TF.FilePolarity,Positive*
G04*
G01*
G75*
%ADD11C,0.3000*%
%ADD16R,1.0000X1.2500*%
%ADD19R,1.3500X0.8000*%
%ADD24R,0.8000X1.3500*%
%ADD30R,1.1000X1.4000*%
%ADD58C,1.5240*%
%ADD65C,1.0000*%
%ADD69C,0.4000*%
%ADD70C,0.5000*%
%ADD72O,3.5000X2.0000*%
%ADD73O,1.4000X1.5240*%
%ADD74C,1.6000*%
%ADD75R,1.6000X1.6000*%
%ADD76C,2.5000*%
%ADD77C,0.6000*%
%ADD78C,0.6096*%
%ADD79C,0.8000*%
%ADD80C,0.7112*%
%ADD81C,0.3050*%
%ADD82C,0.3048*%
%ADD83R,0.9000X0.6000*%
%ADD84R,1.0000X1.5000*%
G36*
X1016673Y892813D02*
X1016823Y892711D01*
X1016994Y892621D01*
X1017187Y892543D01*
X1017402Y892477D01*
X1017638Y892423D01*
X1017896Y892381D01*
X1018176Y892351D01*
X1018800Y892327D01*
Y889327D01*
X1018477Y889321D01*
X1017896Y889273D01*
X1017638Y889231D01*
X1017402Y889177D01*
X1017187Y889111D01*
X1016994Y889033D01*
X1016823Y888943D01*
X1016673Y888841D01*
X1016544Y888727D01*
Y892927D01*
X1016673Y892813D01*
D02*
G37*
G36*
X659795Y947575D02*
X660281Y946402D01*
X659832Y945953D01*
X658928Y943770D01*
X671072D01*
X670168Y945953D01*
X669719Y946402D01*
X670205Y947575D01*
X692295D01*
X692781Y946402D01*
X692332Y945953D01*
X691428Y943770D01*
X703572D01*
X702668Y945953D01*
X702219Y946402D01*
X702705Y947575D01*
X793888Y947575D01*
X794414Y946305D01*
X793332Y945223D01*
X792428Y943040D01*
X804572D01*
X803668Y945223D01*
X802586Y946305D01*
X803112Y947575D01*
X825483D01*
X825735Y946305D01*
X825656Y946272D01*
X823942Y944557D01*
X823037Y942374D01*
X835182D01*
X834277Y944557D01*
X832563Y946272D01*
X832484Y946305D01*
X832736Y947575D01*
X1072475Y947575D01*
X1074609Y947575D01*
X1078840Y947018D01*
X1082962Y945913D01*
X1086905Y944280D01*
X1090601Y942147D01*
X1093987Y939549D01*
X1097005Y936531D01*
X1099603Y933145D01*
X1101737Y929449D01*
X1103371Y925507D01*
X1104475Y921384D01*
X1105033Y917153D01*
X1105033Y915019D01*
X1105033Y915017D01*
X1105033Y915015D01*
X1105056Y893335D01*
X1093244Y881497D01*
X1091974Y882022D01*
Y883904D01*
X1091046Y886145D01*
X1089792Y887399D01*
X1090192Y888773D01*
X1090265Y888788D01*
X1093002Y889922D01*
X1095466Y891568D01*
X1097561Y893663D01*
X1099206Y896126D01*
X1100340Y898863D01*
X1100918Y901769D01*
Y901980D01*
X1070838D01*
Y901769D01*
X1071416Y898863D01*
X1072550Y896126D01*
X1074196Y893663D01*
X1076291Y891568D01*
X1078754Y889922D01*
X1081491Y888788D01*
X1081565Y888773D01*
X1081964Y887399D01*
X1080710Y886145D01*
X1079782Y883904D01*
Y882300D01*
X1078512Y881774D01*
X1067462Y892824D01*
X1066545Y893436D01*
X1065465Y893651D01*
X1065465Y893651D01*
X1018960D01*
X1018853Y893701D01*
X1018276Y893723D01*
X1018080Y893744D01*
X1017903Y893773D01*
X1017758Y893806D01*
X1017647Y893840D01*
X1017572Y893870D01*
X1017531Y893892D01*
X1017519Y893900D01*
X1017457Y893955D01*
X1017236Y894032D01*
X1016821Y894447D01*
X1015251Y895097D01*
X1013552D01*
X1011983Y894447D01*
X1010782Y893246D01*
X1010132Y891676D01*
Y889978D01*
X1010782Y888408D01*
X1011983Y887207D01*
X1013552Y886557D01*
X1015251D01*
X1016821Y887207D01*
X1017236Y887623D01*
X1017457Y887699D01*
X1017519Y887754D01*
X1017531Y887762D01*
X1017572Y887784D01*
X1017647Y887814D01*
X1017758Y887848D01*
X1017903Y887881D01*
X1018064Y887907D01*
X1018547Y887947D01*
X1018825Y887953D01*
X1018940Y888003D01*
X1021382D01*
X1022460Y887540D01*
Y878270D01*
X1043540D01*
Y887540D01*
X1044618Y888003D01*
X1064295D01*
X1074717Y877581D01*
Y859922D01*
X1073447Y859396D01*
X1067234Y865608D01*
X1066318Y866221D01*
X1065237Y866436D01*
X1065237Y866436D01*
X1044800D01*
X1043540Y866460D01*
Y875730D01*
X1022460D01*
Y871239D01*
X1021287Y870753D01*
X1019748Y872292D01*
X1018832Y872904D01*
X1017751Y873119D01*
X1017751Y873119D01*
X1017348D01*
X1016169Y874298D01*
X1014600Y874948D01*
X1012901D01*
X1011332Y874298D01*
X1010131Y873096D01*
X1009481Y871527D01*
Y869828D01*
X1010131Y868259D01*
X1011332Y867058D01*
X1011820Y866855D01*
Y865481D01*
X1010099Y864768D01*
X1008384Y863053D01*
X1007480Y860870D01*
X1013552D01*
Y858330D01*
X1007480D01*
X1008384Y856147D01*
X1008837Y855694D01*
X1008311Y854424D01*
X1006125D01*
X1005044Y854209D01*
X1004128Y853597D01*
X1004128Y853597D01*
X939531Y789000D01*
X939420Y788959D01*
X938996Y788567D01*
X938843Y788443D01*
X938697Y788338D01*
X938571Y788259D01*
X938469Y788205D01*
X938395Y788173D01*
X938350Y788159D01*
X938336Y788157D01*
X938253Y788152D01*
X938043Y788049D01*
X937455D01*
X935886Y787399D01*
X934685Y786198D01*
X934035Y784629D01*
Y782930D01*
X934685Y781361D01*
X935886Y780160D01*
X936388Y779952D01*
X936388Y778577D01*
X934759Y777902D01*
X933044Y776187D01*
X932140Y774004D01*
X944284D01*
X943380Y776187D01*
X941665Y777902D01*
X940129Y778539D01*
X940129Y779913D01*
X940723Y780160D01*
X941925Y781361D01*
X942574Y782930D01*
Y783518D01*
X942677Y783728D01*
X942682Y783811D01*
X942684Y783825D01*
X942698Y783870D01*
X942730Y783944D01*
X942784Y784046D01*
X942863Y784172D01*
X942958Y784305D01*
X943272Y784674D01*
X943465Y784875D01*
X943511Y784992D01*
X1007295Y848776D01*
X1020153D01*
X1020248Y848729D01*
X1020756Y848694D01*
X1021211Y848603D01*
X1021712Y848443D01*
X1022256Y848206D01*
X1022844Y847889D01*
X1023469Y847489D01*
X1024117Y847014D01*
X1025562Y845767D01*
X1026323Y845020D01*
X1026571Y844920D01*
X1027308Y844182D01*
X1029422Y842962D01*
X1031780Y842330D01*
X1034220D01*
X1036578Y842962D01*
X1038692Y844182D01*
X1040418Y845908D01*
X1041638Y848022D01*
X1042270Y850380D01*
Y852820D01*
X1041638Y855178D01*
X1040418Y857292D01*
X1038692Y859018D01*
X1037827Y859517D01*
X1038168Y860787D01*
X1053232D01*
X1053573Y859517D01*
X1052708Y859018D01*
X1050982Y857292D01*
X1049762Y855178D01*
X1049130Y852820D01*
Y851791D01*
X1049026Y851560D01*
X1048966Y849458D01*
X1048879Y848578D01*
X1048754Y847768D01*
X1048595Y847042D01*
X1048403Y846403D01*
X1048185Y845850D01*
X1047945Y845383D01*
X1047687Y844997D01*
X1047352Y844613D01*
X1047319Y844513D01*
X1043130Y840324D01*
X1040877D01*
X1040726Y840294D01*
X1022395D01*
X1022395Y840294D01*
X1021314Y840079D01*
X1020398Y839467D01*
X1020398Y839467D01*
X945255Y764324D01*
X918512D01*
X918404Y764374D01*
X917828Y764396D01*
X917632Y764417D01*
X917454Y764446D01*
X917309Y764479D01*
X917199Y764513D01*
X917124Y764543D01*
X917082Y764565D01*
X917070Y764573D01*
X917008Y764628D01*
X916787Y764705D01*
X916372Y765120D01*
X914803Y765770D01*
X913104D01*
X911535Y765120D01*
X910333Y763919D01*
X909683Y762349D01*
Y760651D01*
X910333Y759081D01*
X911535Y757880D01*
X913104Y757230D01*
X914803D01*
X916372Y757880D01*
X916787Y758296D01*
X917008Y758372D01*
X917070Y758427D01*
X917082Y758435D01*
X917124Y758457D01*
X917199Y758487D01*
X917309Y758521D01*
X917454Y758554D01*
X917615Y758580D01*
X918098Y758620D01*
X918377Y758625D01*
X918492Y758676D01*
X946425D01*
X946425Y758676D01*
X947506Y758891D01*
X948422Y759503D01*
X1023565Y834646D01*
X1026723D01*
X1027066Y833376D01*
X1025582Y831892D01*
X1024362Y829778D01*
X1023730Y827420D01*
Y824980D01*
X1024362Y822622D01*
X1025582Y820508D01*
X1027308Y818782D01*
X1029422Y817562D01*
X1031780Y816930D01*
X1034220D01*
X1036578Y817562D01*
X1038692Y818782D01*
X1040418Y820508D01*
X1041638Y822622D01*
X1042270Y824980D01*
Y827420D01*
X1041638Y829778D01*
X1040418Y831892D01*
X1038934Y833376D01*
X1039276Y834646D01*
X1040847D01*
X1040847Y834646D01*
X1040998Y834676D01*
X1044300D01*
X1044300Y834676D01*
X1045381Y834891D01*
X1046297Y835503D01*
X1051313Y840519D01*
X1051413Y840552D01*
X1051797Y840887D01*
X1052183Y841145D01*
X1052650Y841385D01*
X1053203Y841604D01*
X1053842Y841795D01*
X1054568Y841954D01*
X1055361Y842076D01*
X1057265Y842216D01*
X1058332Y842226D01*
X1058577Y842330D01*
X1059620D01*
X1061978Y842962D01*
X1064092Y844182D01*
X1065818Y845908D01*
X1067038Y848022D01*
X1067670Y850380D01*
Y852820D01*
X1067038Y855178D01*
X1065818Y857292D01*
X1066752Y858102D01*
X1069447Y855408D01*
Y800363D01*
X1068940Y799994D01*
X1067670Y800640D01*
Y802020D01*
X1067038Y804378D01*
X1065818Y806492D01*
X1064092Y808218D01*
X1061978Y809438D01*
X1059620Y810070D01*
X1057180D01*
X1054822Y809438D01*
X1052708Y808218D01*
X1050982Y806492D01*
X1049762Y804378D01*
X1049130Y802020D01*
Y799580D01*
X1049762Y797222D01*
X1050982Y795108D01*
X1052708Y793382D01*
X1054822Y792162D01*
X1057180Y791530D01*
X1059278D01*
X1059934Y790390D01*
X1047273Y777729D01*
X1030909D01*
X1030909Y777729D01*
X1029828Y777514D01*
X1028912Y776901D01*
X1028912Y776901D01*
X1011772Y759761D01*
X1011671Y759727D01*
X1011287Y759392D01*
X1010901Y759135D01*
X1010434Y758894D01*
X1009881Y758676D01*
X1009242Y758485D01*
X1008517Y758325D01*
X1007723Y758203D01*
X1005819Y758063D01*
X1004752Y758054D01*
X1004507Y757950D01*
X1003464D01*
X1001106Y757318D01*
X998992Y756097D01*
X997266Y754371D01*
X996046Y752258D01*
X995414Y749900D01*
Y747459D01*
X996046Y745101D01*
X997266Y742988D01*
X998992Y741262D01*
X1001106Y740041D01*
X1003464Y739409D01*
X1005905D01*
X1008262Y740041D01*
X1010376Y741262D01*
X1012102Y742988D01*
X1013323Y745101D01*
X1013954Y747459D01*
Y748489D01*
X1014058Y748720D01*
X1014119Y750822D01*
X1014205Y751701D01*
X1014330Y752512D01*
X1014490Y753238D01*
X1014681Y753877D01*
X1014899Y754429D01*
X1015139Y754896D01*
X1015397Y755282D01*
X1015732Y755667D01*
X1015766Y755767D01*
X1032079Y772080D01*
X1047695D01*
X1048221Y770810D01*
X1037172Y759761D01*
X1037071Y759727D01*
X1036687Y759392D01*
X1036301Y759135D01*
X1035834Y758894D01*
X1035281Y758676D01*
X1034642Y758485D01*
X1033917Y758325D01*
X1033123Y758203D01*
X1031219Y758063D01*
X1030152Y758054D01*
X1029907Y757950D01*
X1028864D01*
X1026506Y757318D01*
X1024392Y756097D01*
X1022666Y754371D01*
X1021446Y752258D01*
X1020814Y749900D01*
Y747459D01*
X1021446Y745101D01*
X1022666Y742988D01*
X1024392Y741262D01*
X1026506Y740041D01*
X1028864Y739409D01*
X1031305D01*
X1033662Y740041D01*
X1035776Y741262D01*
X1037502Y742988D01*
X1038723Y745101D01*
X1039354Y747459D01*
Y748489D01*
X1039458Y748720D01*
X1039519Y750822D01*
X1039605Y751701D01*
X1039730Y752512D01*
X1039890Y753238D01*
X1040081Y753877D01*
X1040299Y754429D01*
X1040539Y754896D01*
X1040797Y755282D01*
X1041132Y755667D01*
X1041166Y755767D01*
X1059510Y774111D01*
X1060587Y773392D01*
X1060328Y772766D01*
X1065130D01*
Y777568D01*
X1064504Y777309D01*
X1063785Y778386D01*
X1079022Y793624D01*
X1080481Y793388D01*
X1080501Y793372D01*
X1080787Y792683D01*
X1082501Y790968D01*
X1084685Y790064D01*
Y796136D01*
Y802208D01*
X1082501Y801304D01*
X1081635Y800438D01*
X1080365Y800964D01*
Y877788D01*
X1081635Y878314D01*
X1082425Y877524D01*
X1084608Y876620D01*
Y882692D01*
X1087148D01*
Y876461D01*
X1087379Y876263D01*
X1087923Y875566D01*
X1087653Y874203D01*
X1087728Y805673D01*
X1088040Y804112D01*
X1088197Y803877D01*
X1087813Y802189D01*
X1087591Y802057D01*
X1087225Y802208D01*
Y797406D01*
X1092027D01*
X1091677Y798250D01*
X1092754Y798970D01*
X1105173Y786578D01*
X1105196Y765370D01*
X1105233Y765182D01*
X1105214Y764991D01*
X1105227Y764849D01*
X1105227Y762913D01*
X1104675Y758692D01*
X1103581Y754578D01*
X1101962Y750641D01*
X1099847Y746947D01*
X1097271Y743559D01*
X1094277Y740533D01*
X1090916Y737920D01*
X1087244Y735766D01*
X1083325Y734105D01*
X1079223Y732967D01*
X1075008Y732370D01*
X1072880Y732348D01*
X1072677Y732305D01*
X1072470Y732322D01*
X1072304Y732304D01*
X692658D01*
X692023Y733404D01*
X692194Y733701D01*
X692530Y734956D01*
X679670D01*
X680006Y733701D01*
X680177Y733404D01*
X679542Y732304D01*
X651159D01*
X650694Y733574D01*
X652080Y734960D01*
X652984Y737143D01*
X640840D01*
X641744Y734960D01*
X643130Y733574D01*
X642665Y732304D01*
X639001D01*
X634102Y732949D01*
X629329Y734228D01*
X624764Y736119D01*
X620484Y738590D01*
X616564Y741598D01*
X613070Y745092D01*
X610061Y749012D01*
X607591Y753292D01*
X605700Y757857D01*
X604421Y762630D01*
X603776Y767529D01*
Y769995D01*
X604097Y909995D01*
X604096Y910000D01*
X604097Y910004D01*
X604098Y912467D01*
X604741Y917350D01*
X606016Y922107D01*
X607901Y926657D01*
X610364Y930923D01*
X613363Y934830D01*
X616845Y938312D01*
X620753Y941311D01*
X625018Y943773D01*
X629569Y945658D01*
X634326Y946932D01*
X639210Y947575D01*
X641672Y947575D01*
X659795D01*
D02*
G37*
G36*
X1027287Y846000D02*
X1026494Y846779D01*
X1024974Y848091D01*
X1024247Y848624D01*
X1023541Y849075D01*
X1022858Y849444D01*
X1022196Y849731D01*
X1021556Y849936D01*
X1020938Y850059D01*
X1020342Y850100D01*
Y853100D01*
X1020938Y853141D01*
X1021556Y853264D01*
X1022196Y853469D01*
X1022858Y853756D01*
X1023541Y854125D01*
X1024247Y854576D01*
X1024974Y855109D01*
X1025723Y855724D01*
X1027287Y857200D01*
Y846000D01*
D02*
G37*
G36*
X1058320Y843600D02*
X1057208Y843591D01*
X1055206Y843444D01*
X1054315Y843306D01*
X1053497Y843126D01*
X1052753Y842904D01*
X1052082Y842639D01*
X1051485Y842331D01*
X1050961Y841981D01*
X1050510Y841589D01*
X1048389Y843710D01*
X1048781Y844161D01*
X1049131Y844685D01*
X1049439Y845282D01*
X1049704Y845953D01*
X1049926Y846697D01*
X1050106Y847515D01*
X1050244Y848406D01*
X1050338Y849370D01*
X1050400Y851520D01*
X1058320Y843600D01*
D02*
G37*
G36*
X942475Y785829D02*
X942251Y785596D01*
X941874Y785152D01*
X941722Y784940D01*
X941593Y784734D01*
X941488Y784536D01*
X941406Y784344D01*
X941348Y784159D01*
X941315Y783981D01*
X941304Y783810D01*
X938335Y786779D01*
X938506Y786790D01*
X938684Y786824D01*
X938869Y786881D01*
X939061Y786963D01*
X939259Y787068D01*
X939465Y787197D01*
X939677Y787349D01*
X939896Y787526D01*
X940354Y787950D01*
X942475Y785829D01*
D02*
G37*
G36*
X916224Y763486D02*
X916374Y763384D01*
X916546Y763294D01*
X916739Y763216D01*
X916954Y763150D01*
X917190Y763096D01*
X917448Y763054D01*
X917728Y763024D01*
X918351Y763000D01*
Y760000D01*
X918029Y759994D01*
X917448Y759946D01*
X917190Y759904D01*
X916954Y759850D01*
X916739Y759784D01*
X916546Y759706D01*
X916374Y759616D01*
X916224Y759514D01*
X916096Y759400D01*
Y763600D01*
X916224Y763486D01*
D02*
G37*
G36*
X1040096Y756570D02*
X1039703Y756119D01*
X1039353Y755595D01*
X1039045Y754998D01*
X1038781Y754327D01*
X1038558Y753583D01*
X1038378Y752765D01*
X1038241Y751874D01*
X1038146Y750909D01*
X1038084Y748760D01*
X1030164Y756679D01*
X1031276Y756689D01*
X1033278Y756836D01*
X1034169Y756973D01*
X1034987Y757153D01*
X1035732Y757376D01*
X1036402Y757641D01*
X1037000Y757948D01*
X1037524Y758298D01*
X1037974Y758691D01*
X1040096Y756570D01*
D02*
G37*
G36*
X1014696D02*
X1014303Y756119D01*
X1013953Y755595D01*
X1013645Y754998D01*
X1013381Y754327D01*
X1013158Y753583D01*
X1012978Y752765D01*
X1012841Y751874D01*
X1012746Y750909D01*
X1012684Y748760D01*
X1004764Y756679D01*
X1005876Y756689D01*
X1007878Y756836D01*
X1008770Y756973D01*
X1009587Y757153D01*
X1010331Y757376D01*
X1011002Y757641D01*
X1011600Y757948D01*
X1012124Y758298D01*
X1012574Y758691D01*
X1014696Y756570D01*
D02*
G37*
%LPC*%
G36*
X1041045Y945966D02*
Y941164D01*
X1045847D01*
X1044943Y943347D01*
X1043228Y945061D01*
X1041045Y945966D01*
D02*
G37*
G36*
X1038505D02*
X1036322Y945061D01*
X1034607Y943347D01*
X1033703Y941164D01*
X1038505D01*
Y945966D01*
D02*
G37*
G36*
X993591D02*
Y941164D01*
X998393D01*
X997489Y943347D01*
X995774Y945061D01*
X993591Y945966D01*
D02*
G37*
G36*
X991051D02*
X988868Y945061D01*
X987153Y943347D01*
X986249Y941164D01*
X991051D01*
Y945966D01*
D02*
G37*
G36*
X948986D02*
Y941164D01*
X953788D01*
X952884Y943347D01*
X951169Y945061D01*
X948986Y945966D01*
D02*
G37*
G36*
X946446D02*
X944262Y945061D01*
X942548Y943347D01*
X941643Y941164D01*
X946446D01*
Y945966D01*
D02*
G37*
G36*
X868770Y945020D02*
X856230D01*
Y940767D01*
X856163Y940644D01*
X856159Y940607D01*
X856158Y940605D01*
X856010Y940545D01*
X855768Y940480D01*
X855437Y940425D01*
X855022Y940388D01*
X854494Y940374D01*
X854472Y940364D01*
X854451Y940374D01*
X853874Y940396D01*
X853679Y940417D01*
X853501Y940446D01*
X853356Y940479D01*
X853246Y940513D01*
X853170Y940543D01*
X853129Y940565D01*
X853117Y940573D01*
X853055Y940628D01*
X852834Y940704D01*
X852419Y941120D01*
X850849Y941770D01*
X849151D01*
X847581Y941120D01*
X846380Y939919D01*
X845730Y938349D01*
Y936651D01*
X846380Y935081D01*
X847581Y933880D01*
X849151Y933230D01*
X850849D01*
X852419Y933880D01*
X852834Y934296D01*
X853055Y934372D01*
X853117Y934427D01*
X853129Y934435D01*
X853170Y934457D01*
X853246Y934487D01*
X853356Y934521D01*
X853501Y934554D01*
X853662Y934581D01*
X854145Y934620D01*
X854424Y934626D01*
X854460Y934641D01*
X854494Y934626D01*
X855022Y934612D01*
X855437Y934575D01*
X855768Y934520D01*
X856010Y934455D01*
X856158Y934395D01*
X856159Y934393D01*
X856163Y934356D01*
X856230Y934233D01*
Y929980D01*
X865580D01*
X866066Y928807D01*
X865962Y928703D01*
X865177Y926808D01*
X869430D01*
Y931232D01*
X868770Y931673D01*
Y945020D01*
D02*
G37*
G36*
X703572Y941230D02*
X698770D01*
Y936428D01*
X700953Y937332D01*
X702668Y939047D01*
X703572Y941230D01*
D02*
G37*
G36*
X696230D02*
X691428D01*
X692332Y939047D01*
X694047Y937332D01*
X696230Y936428D01*
Y941230D01*
D02*
G37*
G36*
X671072D02*
X666270D01*
Y936428D01*
X668453Y937332D01*
X670168Y939047D01*
X671072Y941230D01*
D02*
G37*
G36*
X663730D02*
X658928D01*
X659832Y939047D01*
X661547Y937332D01*
X663730Y936428D01*
Y941230D01*
D02*
G37*
G36*
X804572Y940500D02*
X799770D01*
Y935698D01*
X801953Y936602D01*
X803668Y938317D01*
X804572Y940500D01*
D02*
G37*
G36*
X797230D02*
X792428D01*
X793332Y938317D01*
X795047Y936602D01*
X797230Y935698D01*
Y940500D01*
D02*
G37*
G36*
X835182Y939834D02*
X830379D01*
Y935032D01*
X832563Y935937D01*
X834277Y937651D01*
X835182Y939834D01*
D02*
G37*
G36*
X827840D02*
X823037D01*
X823942Y937651D01*
X825656Y935937D01*
X827840Y935032D01*
Y939834D01*
D02*
G37*
G36*
X1087148Y939217D02*
Y934415D01*
X1091951D01*
X1091046Y936598D01*
X1089331Y938313D01*
X1087148Y939217D01*
D02*
G37*
G36*
X1084608D02*
X1082425Y938313D01*
X1080710Y936598D01*
X1079806Y934415D01*
X1084608D01*
Y939217D01*
D02*
G37*
G36*
X1045847Y938624D02*
X1041045D01*
Y933821D01*
X1043228Y934726D01*
X1044943Y936441D01*
X1045847Y938624D01*
D02*
G37*
G36*
X1038505D02*
X1033703D01*
X1034607Y936441D01*
X1036322Y934726D01*
X1038505Y933821D01*
Y938624D01*
D02*
G37*
G36*
X998393D02*
X993591D01*
Y933821D01*
X995774Y934726D01*
X997489Y936441D01*
X998393Y938624D01*
D02*
G37*
G36*
X991051D02*
X986249D01*
X987153Y936441D01*
X988868Y934726D01*
X991051Y933821D01*
Y938624D01*
D02*
G37*
G36*
X953788D02*
X948986D01*
Y933821D01*
X951169Y934726D01*
X952884Y936441D01*
X953788Y938624D01*
D02*
G37*
G36*
X946446D02*
X941643D01*
X942548Y936441D01*
X944262Y934726D01*
X946446Y933821D01*
Y938624D01*
D02*
G37*
G36*
X983591Y936658D02*
Y931855D01*
X988393D01*
X987489Y934039D01*
X985774Y935753D01*
X983591Y936658D01*
D02*
G37*
G36*
X981051D02*
X978868Y935753D01*
X977153Y934039D01*
X976249Y931855D01*
X981051D01*
Y936658D01*
D02*
G37*
G36*
X966270D02*
Y931855D01*
X971072D01*
X970168Y934039D01*
X968453Y935753D01*
X966270Y936658D01*
D02*
G37*
G36*
X963730D02*
X961547Y935753D01*
X959832Y934039D01*
X958928Y931855D01*
X963730D01*
Y936658D01*
D02*
G37*
G36*
X813943Y935522D02*
Y931270D01*
X818196D01*
X817411Y933165D01*
X815839Y934737D01*
X813943Y935522D01*
D02*
G37*
G36*
X811404D02*
X809508Y934737D01*
X807936Y933165D01*
X807151Y931270D01*
X811404D01*
Y935522D01*
D02*
G37*
G36*
X894488Y933771D02*
Y929518D01*
X898741D01*
X897955Y931413D01*
X896384Y932986D01*
X894488Y933771D01*
D02*
G37*
G36*
X847540Y931792D02*
Y927540D01*
X851792D01*
X851007Y929435D01*
X849435Y931007D01*
X847540Y931792D01*
D02*
G37*
G36*
X845000D02*
X843105Y931007D01*
X841533Y929435D01*
X840748Y927540D01*
X845000D01*
Y931792D01*
D02*
G37*
G36*
X630893Y940909D02*
X630682D01*
Y927139D01*
X644452D01*
Y927350D01*
X643874Y930256D01*
X642740Y932993D01*
X641094Y935456D01*
X638999Y937551D01*
X636536Y939197D01*
X633799Y940331D01*
X630893Y940909D01*
D02*
G37*
G36*
X628142D02*
X627931D01*
X625025Y940331D01*
X622288Y939197D01*
X619825Y937551D01*
X617730Y935456D01*
X616084Y932993D01*
X614950Y930256D01*
X614372Y927350D01*
Y927139D01*
X628142D01*
Y940909D01*
D02*
G37*
G36*
X1091951Y931875D02*
X1087148D01*
Y927073D01*
X1089331Y927977D01*
X1091046Y929692D01*
X1091951Y931875D01*
D02*
G37*
G36*
X1084608D02*
X1079806D01*
X1080710Y929692D01*
X1082425Y927977D01*
X1084608Y927073D01*
Y931875D01*
D02*
G37*
G36*
X871970Y931060D02*
Y926808D01*
X876222D01*
X875437Y928703D01*
X873865Y930275D01*
X871970Y931060D01*
D02*
G37*
G36*
X765790Y931040D02*
X757770D01*
Y925770D01*
X765790D01*
Y931040D01*
D02*
G37*
G36*
X721790D02*
X713770D01*
Y925770D01*
X721790D01*
Y931040D01*
D02*
G37*
G36*
X755230D02*
X747210D01*
Y925770D01*
X755230D01*
Y931040D01*
D02*
G37*
G36*
X711230D02*
X703210D01*
Y925770D01*
X711230D01*
Y931040D01*
D02*
G37*
G36*
X786241D02*
X778221D01*
Y925770D01*
X786241D01*
Y931040D01*
D02*
G37*
G36*
X775681D02*
X767661D01*
Y925770D01*
X775681D01*
Y931040D01*
D02*
G37*
G36*
X743790D02*
X735770D01*
Y925770D01*
X743790D01*
Y931040D01*
D02*
G37*
G36*
X733230D02*
X725210D01*
Y925770D01*
X733230D01*
Y931040D01*
D02*
G37*
G36*
X988393Y929315D02*
X983591D01*
Y924513D01*
X985774Y925418D01*
X987489Y927132D01*
X988393Y929315D01*
D02*
G37*
G36*
X981051D02*
X976249D01*
X977153Y927132D01*
X978868Y925418D01*
X981051Y924513D01*
Y929315D01*
D02*
G37*
G36*
X971072D02*
X966270D01*
Y924513D01*
X968453Y925418D01*
X970168Y927132D01*
X971072Y929315D01*
D02*
G37*
G36*
X963730D02*
X958928D01*
X959832Y927132D01*
X961547Y925418D01*
X963730Y924513D01*
Y929315D01*
D02*
G37*
G36*
X818196Y928730D02*
X813943D01*
Y924478D01*
X815839Y925263D01*
X817411Y926835D01*
X818196Y928730D01*
D02*
G37*
G36*
X811404D02*
X807151D01*
X807936Y926835D01*
X809508Y925263D01*
X811404Y924478D01*
Y928730D01*
D02*
G37*
G36*
X898741Y926978D02*
X894488D01*
Y922726D01*
X896384Y923511D01*
X897955Y925083D01*
X898741Y926978D01*
D02*
G37*
G36*
X888770Y945020D02*
X876230D01*
Y931548D01*
X876164Y931426D01*
X876185Y931352D01*
X876156Y931281D01*
X876230Y931101D01*
Y929980D01*
X877263D01*
X877385Y929914D01*
X877691Y929881D01*
X877794Y929844D01*
X877887Y929782D01*
X878005Y929652D01*
X878149Y929414D01*
X878298Y929045D01*
X878432Y928541D01*
X878536Y927909D01*
X878602Y927153D01*
X878626Y926245D01*
X878656Y926177D01*
Y905633D01*
X878627Y905572D01*
X878582Y904706D01*
X878464Y904039D01*
X878283Y903497D01*
X878052Y903068D01*
X877773Y902727D01*
X877432Y902448D01*
X877003Y902217D01*
X876705Y902117D01*
X875520Y902750D01*
Y903270D01*
X874399D01*
X874220Y903344D01*
X874102Y903295D01*
X873977Y903323D01*
X873895Y903270D01*
X861104D01*
X861021Y903323D01*
X860897Y903296D01*
X860780Y903344D01*
X860601Y903270D01*
X859480D01*
Y902315D01*
X859411Y902277D01*
X859133Y902176D01*
X858709Y902073D01*
X858171Y901988D01*
X856669Y901876D01*
X856426Y901872D01*
X855008Y901918D01*
X854343Y901983D01*
X853786Y902070D01*
X853361Y902172D01*
X853081Y902271D01*
X853020Y902304D01*
Y903245D01*
X851899D01*
X851720Y903319D01*
X851601Y903270D01*
X851475Y903297D01*
X851394Y903245D01*
X838607D01*
X838527Y903297D01*
X838400Y903270D01*
X838280Y903319D01*
X838101Y903245D01*
X836980D01*
Y902311D01*
X836924Y902281D01*
X836642Y902182D01*
X836217Y902081D01*
X835675Y901997D01*
X834171Y901888D01*
X833260Y901874D01*
X833189Y901844D01*
X832556D01*
X832484Y901874D01*
X830712Y901893D01*
X828833Y901988D01*
X828770Y901995D01*
X828770Y902270D01*
X827842Y902293D01*
X827652Y902270D01*
X827649Y902270D01*
X827469Y902344D01*
X827290Y902270D01*
X827235D01*
X826710Y903540D01*
X827571Y904401D01*
X828356Y906297D01*
X817311D01*
X818096Y904401D01*
X818957Y903540D01*
X818431Y902270D01*
X817230D01*
Y893730D01*
X827290D01*
X827469Y893656D01*
X827649Y893730D01*
X827652Y893730D01*
X827842Y893707D01*
X828770Y893730D01*
Y893946D01*
X831566Y894121D01*
X832476Y894125D01*
X832550Y894156D01*
X833169D01*
X833235Y894126D01*
X834989Y894068D01*
X835653Y894002D01*
X836208Y893912D01*
X836630Y893809D01*
X836908Y893708D01*
X836980Y893668D01*
Y892705D01*
X838101D01*
X838280Y892631D01*
X838396Y892679D01*
X838519Y892652D01*
X838603Y892705D01*
X851396D01*
X851479Y892652D01*
X851603Y892679D01*
X851720Y892631D01*
X851899Y892705D01*
X853020D01*
Y893660D01*
X853089Y893698D01*
X853367Y893799D01*
X853791Y893902D01*
X854329Y893988D01*
X855831Y894099D01*
X856074Y894103D01*
X857492Y894057D01*
X858157Y893992D01*
X858714Y893905D01*
X859139Y893803D01*
X859419Y893704D01*
X859480Y893671D01*
Y892730D01*
X860601D01*
X860780Y892656D01*
X860899Y892705D01*
X861025Y892678D01*
X861106Y892730D01*
X873895D01*
X873977Y892677D01*
X874102Y892705D01*
X874220Y892656D01*
X874399Y892730D01*
X875520D01*
Y893250D01*
X876705Y893883D01*
X877003Y893783D01*
X877432Y893552D01*
X877773Y893273D01*
X878052Y892932D01*
X878283Y892503D01*
X878464Y891962D01*
X878582Y891294D01*
X878627Y890428D01*
X878656Y890367D01*
Y889521D01*
X877979Y888844D01*
X792305D01*
X791456Y890114D01*
X791919Y891230D01*
X779774D01*
X780678Y889047D01*
X782393Y887332D01*
X784307Y886539D01*
X784795Y885231D01*
X770748Y871184D01*
X765228Y865665D01*
X716773D01*
X715744Y866091D01*
X714045D01*
X712476Y865441D01*
X711275Y864239D01*
X710625Y862670D01*
Y860971D01*
X711275Y859402D01*
X712476Y858201D01*
X714045Y857551D01*
X715744D01*
X716773Y857977D01*
X763650D01*
X763733Y857942D01*
X763733Y857942D01*
X769578D01*
X769592Y857395D01*
X769622Y857327D01*
Y848211D01*
X769196Y847182D01*
Y846937D01*
X768949Y846566D01*
X768656Y845096D01*
X768656Y845095D01*
Y798122D01*
X768626Y798053D01*
X768599Y796855D01*
X768558Y796315D01*
X768535Y796145D01*
X768513Y796033D01*
X768507Y796009D01*
X768490Y795969D01*
X768490Y795948D01*
X768488Y795941D01*
X768032Y795485D01*
X767230Y793548D01*
Y791452D01*
X768032Y789515D01*
X769515Y788032D01*
X771452Y787230D01*
X773548D01*
X775485Y788032D01*
X776968Y789515D01*
X777770Y791452D01*
Y793548D01*
X776968Y795485D01*
X776512Y795941D01*
X776510Y795948D01*
X776510Y795969D01*
X776493Y796009D01*
X776487Y796033D01*
X776474Y796098D01*
X776377Y797617D01*
X776375Y798032D01*
X776344Y798104D01*
Y843171D01*
X777086Y843914D01*
X777736Y845483D01*
Y847182D01*
X777310Y848211D01*
Y862316D01*
X777340Y862382D01*
X777374Y863316D01*
X777468Y864167D01*
X777624Y864987D01*
X777842Y865777D01*
X778121Y866538D01*
X778463Y867274D01*
X778867Y867986D01*
X779336Y868676D01*
X779871Y869345D01*
X780508Y870030D01*
X780533Y870097D01*
X791592Y881156D01*
X879571D01*
X879571Y881156D01*
X881042Y881449D01*
X882289Y882282D01*
X885218Y885211D01*
X885218Y885211D01*
X886051Y886458D01*
X886344Y887929D01*
Y890367D01*
X886373Y890428D01*
X886418Y891294D01*
X886536Y891961D01*
X886717Y892503D01*
X886948Y892932D01*
X887227Y893273D01*
X887568Y893552D01*
X887997Y893783D01*
X888539Y893964D01*
X889206Y894082D01*
X890072Y894127D01*
X890133Y894156D01*
X922672D01*
X922725Y894134D01*
X943950D01*
Y889817D01*
X942680Y889291D01*
X942223Y889748D01*
X940355Y890521D01*
Y885051D01*
Y879581D01*
X942223Y880355D01*
X942680Y880812D01*
X943950Y880285D01*
Y870636D01*
X943950Y870636D01*
X944242Y869165D01*
X945076Y867918D01*
X949451Y863543D01*
X950169Y863063D01*
X956086Y857146D01*
X956321Y856580D01*
X957522Y855378D01*
X959091Y854728D01*
X960790D01*
X962359Y855378D01*
X963560Y856580D01*
X964211Y858149D01*
Y859848D01*
X963560Y861417D01*
X962359Y862618D01*
X960869Y863236D01*
X955126Y868979D01*
X954408Y869458D01*
X951638Y872228D01*
Y908701D01*
X952908Y909227D01*
X953447Y908688D01*
X955630Y907784D01*
Y913856D01*
Y919928D01*
X953447Y919024D01*
X952908Y918485D01*
X951638Y919011D01*
Y920359D01*
X952064Y921388D01*
Y923087D01*
X951414Y924656D01*
X950212Y925857D01*
X948643Y926507D01*
X946944D01*
X945375Y925857D01*
X944174Y924656D01*
X943748Y923627D01*
X921964Y901844D01*
X890133D01*
X890072Y901873D01*
X889206Y901918D01*
X888539Y902036D01*
X887997Y902216D01*
X887568Y902448D01*
X887227Y902727D01*
X886948Y903068D01*
X886717Y903497D01*
X886536Y904038D01*
X886418Y904706D01*
X886373Y905572D01*
X886344Y905633D01*
Y926177D01*
X886374Y926245D01*
X886395Y927052D01*
X887630Y927137D01*
X888481Y925083D01*
X890053Y923511D01*
X891948Y922726D01*
Y928248D01*
Y933771D01*
X890053Y932986D01*
X889943Y932876D01*
X888770Y933362D01*
Y945020D01*
D02*
G37*
G36*
X876222Y924268D02*
X868791D01*
X871037Y922508D01*
X870870Y922479D01*
X870695Y922428D01*
X870513Y922354D01*
X870323Y922259D01*
X870126Y922141D01*
X869921Y922001D01*
X869487Y921655D01*
X869259Y921449D01*
X869024Y921221D01*
X868969Y921262D01*
X868970Y921242D01*
X869009Y920765D01*
X869074Y920344D01*
X869166Y919979D01*
X869283Y919671D01*
X869427Y919418D01*
X869596Y919222D01*
X869792Y919082D01*
X870014Y918998D01*
X870262Y918969D01*
X864651D01*
X864899Y918998D01*
X865121Y919082D01*
X865317Y919222D01*
X865487Y919418D01*
X865630Y919671D01*
X865748Y919979D01*
X865839Y920344D01*
X865904Y920765D01*
X865944Y921242D01*
X865957Y921775D01*
X868289D01*
X866605Y923044D01*
X866830Y923280D01*
X867202Y923734D01*
X867349Y923952D01*
X867469Y924164D01*
X867516Y924268D01*
X865177D01*
X865412Y923701D01*
X864847Y922856D01*
X864685Y922040D01*
X864583Y921809D01*
X864576Y921540D01*
X858210D01*
Y916270D01*
X867500D01*
X876790D01*
Y921540D01*
X876264D01*
X875618Y922810D01*
X876222Y924268D01*
D02*
G37*
G36*
X655821Y924817D02*
Y920015D01*
X660623D01*
X659719Y922198D01*
X658004Y923913D01*
X655821Y924817D01*
D02*
G37*
G36*
X653281D02*
X651098Y923913D01*
X649383Y922198D01*
X648479Y920015D01*
X653281D01*
Y924817D01*
D02*
G37*
G36*
X830040Y922540D02*
X824270D01*
Y918270D01*
X830040D01*
Y922540D01*
D02*
G37*
G36*
X821730D02*
X815960D01*
Y918270D01*
X821730D01*
Y922540D01*
D02*
G37*
G36*
X628142Y924599D02*
X614372D01*
Y924387D01*
X614950Y921482D01*
X616084Y918745D01*
X615356Y917714D01*
X615272Y917673D01*
X613182Y918539D01*
Y913737D01*
X617984D01*
X617635Y914580D01*
X618712Y915299D01*
X619825Y914186D01*
X622288Y912540D01*
X625025Y911407D01*
X627931Y910829D01*
X628142D01*
Y924599D01*
D02*
G37*
G36*
X786241Y923230D02*
X776951D01*
X767661D01*
Y917960D01*
X770796D01*
X771257Y917270D01*
X782645D01*
X783106Y917960D01*
X786241D01*
Y923230D01*
D02*
G37*
G36*
X765790Y923230D02*
X756500D01*
X747210D01*
Y917960D01*
X750345D01*
X750806Y917270D01*
X762194D01*
X762655Y917960D01*
X765790D01*
Y923230D01*
D02*
G37*
G36*
X743790Y923230D02*
X734500D01*
X725210D01*
Y917960D01*
X728345D01*
X728806Y917270D01*
X740194D01*
X740655Y917960D01*
X743790D01*
Y923230D01*
D02*
G37*
G36*
X721790Y923230D02*
X712500D01*
X703210D01*
Y917960D01*
X706345D01*
X706806Y917270D01*
X718194D01*
X718655Y917960D01*
X721790D01*
Y923230D01*
D02*
G37*
G36*
X851792Y925000D02*
X840748D01*
X841533Y923105D01*
X841852Y922785D01*
X841326Y921515D01*
X835710D01*
Y916245D01*
X845000D01*
X854290D01*
Y921515D01*
X851214D01*
X850688Y922785D01*
X851007Y923105D01*
X851792Y925000D01*
D02*
G37*
G36*
X993591Y920118D02*
Y915316D01*
X998393D01*
X997489Y917499D01*
X995774Y919213D01*
X993591Y920118D01*
D02*
G37*
G36*
X991051D02*
X988868Y919213D01*
X987153Y917499D01*
X986249Y915316D01*
X991051D01*
Y920118D01*
D02*
G37*
G36*
X977141Y919928D02*
Y915126D01*
X981943D01*
X981038Y917309D01*
X979324Y919024D01*
X977141Y919928D01*
D02*
G37*
G36*
X974601D02*
X972417Y919024D01*
X970703Y917309D01*
X969798Y915126D01*
X974601D01*
Y919928D01*
D02*
G37*
G36*
X958170D02*
Y915126D01*
X962972D01*
X962068Y917309D01*
X960353Y919024D01*
X958170Y919928D01*
D02*
G37*
G36*
X610642Y918539D02*
X608459Y917635D01*
X606744Y915920D01*
X605840Y913737D01*
X610642D01*
Y918539D01*
D02*
G37*
G36*
X782474Y914730D02*
X771429D01*
X771715Y914040D01*
X770866Y912770D01*
X770556D01*
X770474Y912823D01*
X770349Y912795D01*
X770232Y912844D01*
X770053Y912770D01*
X768931D01*
Y911822D01*
X768867Y911787D01*
X768588Y911686D01*
X768163Y911584D01*
X767624Y911499D01*
X766642Y911427D01*
X766509Y911431D01*
X765844Y911496D01*
X765288Y911584D01*
X764864Y911686D01*
X764585Y911787D01*
X764520Y911822D01*
Y912770D01*
X763399D01*
X763220Y912844D01*
X763102Y912795D01*
X762977Y912823D01*
X762895Y912770D01*
X762585D01*
X761737Y914040D01*
X762022Y914730D01*
X750978D01*
X751264Y914040D01*
X750415Y912770D01*
X748480D01*
Y902230D01*
X751234D01*
X751356Y902163D01*
X751670Y902130D01*
X751780Y902091D01*
X751878Y902027D01*
X751999Y901896D01*
X752144Y901658D01*
X752295Y901290D01*
X752430Y900788D01*
X752535Y900157D01*
X752602Y899402D01*
X752606Y899246D01*
X752602Y899097D01*
X752536Y898341D01*
X752432Y897709D01*
X752298Y897205D01*
X752149Y896836D01*
X752005Y896598D01*
X751887Y896468D01*
X751794Y896406D01*
X751691Y896369D01*
X751385Y896336D01*
X751263Y896270D01*
X750230D01*
Y895149D01*
X750156Y894969D01*
X750185Y894898D01*
X750164Y894824D01*
X750230Y894702D01*
Y878730D01*
X762770D01*
Y894702D01*
X762836Y894824D01*
X762815Y894898D01*
X762844Y894969D01*
X762770Y895149D01*
Y896270D01*
X761737D01*
X761615Y896336D01*
X761309Y896369D01*
X761206Y896406D01*
X761114Y896468D01*
X760995Y896598D01*
X760851Y896836D01*
X760702Y897205D01*
X760568Y897709D01*
X760464Y898341D01*
X760398Y899097D01*
X760394Y899246D01*
X760398Y899402D01*
X760465Y900157D01*
X760570Y900788D01*
X760705Y901290D01*
X760855Y901658D01*
X761001Y901896D01*
X761122Y902027D01*
X761220Y902091D01*
X761330Y902130D01*
X761644Y902163D01*
X761767Y902230D01*
X762895D01*
X762977Y902177D01*
X763102Y902205D01*
X763220Y902156D01*
X763399Y902230D01*
X764520D01*
Y903178D01*
X764584Y903213D01*
X764864Y903314D01*
X765288Y903416D01*
X765828Y903501D01*
X766809Y903573D01*
X766942Y903569D01*
X767607Y903504D01*
X768163Y903416D01*
X768587Y903314D01*
X768867Y903213D01*
X768931Y903178D01*
Y902230D01*
X770053D01*
X770232Y902156D01*
X770349Y902205D01*
X770474Y902177D01*
X770556Y902230D01*
X783346D01*
X783428Y902177D01*
X783553Y902205D01*
X783671Y902156D01*
X783850Y902230D01*
X784971D01*
Y903178D01*
X785036Y903213D01*
X785315Y903314D01*
X785739Y903416D01*
X786279Y903501D01*
X787782Y903611D01*
X788216Y903618D01*
X789288Y903607D01*
X791167Y903512D01*
X791230Y903505D01*
X791230Y903230D01*
X792158Y903207D01*
X792348Y903230D01*
X792352Y903230D01*
X792531Y903156D01*
X792710Y903230D01*
X802770D01*
Y911770D01*
X792710D01*
X792531Y911844D01*
X792352Y911770D01*
X792349Y911770D01*
X792158Y911793D01*
X791230Y911770D01*
Y911554D01*
X788476Y911382D01*
X786960Y911431D01*
X786295Y911496D01*
X785739Y911584D01*
X785315Y911686D01*
X785036Y911787D01*
X784971Y911822D01*
Y912770D01*
X783850D01*
X783671Y912844D01*
X783553Y912795D01*
X783428Y912823D01*
X783346Y912770D01*
X783036D01*
X782188Y914040D01*
X782474Y914730D01*
D02*
G37*
G36*
X660623Y917475D02*
X655821D01*
Y912672D01*
X658004Y913577D01*
X659719Y915292D01*
X660623Y917475D01*
D02*
G37*
G36*
X653281D02*
X648479D01*
X649383Y915292D01*
X651098Y913577D01*
X653281Y912672D01*
Y917475D01*
D02*
G37*
G36*
X696230Y916550D02*
X694047Y915646D01*
X692332Y913931D01*
X691428Y911748D01*
X696230D01*
Y916550D01*
D02*
G37*
G36*
X644452Y924599D02*
X630682D01*
Y910829D01*
X630893D01*
X633799Y911407D01*
X636536Y912540D01*
X638999Y914186D01*
X641094Y916281D01*
X642740Y918745D01*
X643874Y921482D01*
X644452Y924387D01*
Y924599D01*
D02*
G37*
G36*
X830040Y915730D02*
X823000D01*
X815960D01*
Y911460D01*
X817165D01*
X817872Y910190D01*
X817311Y908837D01*
X828356D01*
X827795Y910190D01*
X828502Y911460D01*
X830040D01*
Y915730D01*
D02*
G37*
G36*
X876790Y913730D02*
X868770D01*
Y908460D01*
X876790D01*
Y913730D01*
D02*
G37*
G36*
X866230D02*
X858210D01*
Y908460D01*
X866230D01*
Y913730D01*
D02*
G37*
G36*
X854290Y913705D02*
X846270D01*
Y908435D01*
X854290D01*
Y913705D01*
D02*
G37*
G36*
X843730D02*
X835710D01*
Y908435D01*
X843730D01*
Y913705D01*
D02*
G37*
G36*
X998393Y912776D02*
X993591D01*
Y907973D01*
X995774Y908878D01*
X997489Y910592D01*
X998393Y912776D01*
D02*
G37*
G36*
X991051D02*
X986249D01*
X987153Y910592D01*
X988868Y908878D01*
X991051Y907973D01*
Y912776D01*
D02*
G37*
G36*
X981943Y912586D02*
X977141D01*
Y907784D01*
X979324Y908688D01*
X981038Y910403D01*
X981943Y912586D01*
D02*
G37*
G36*
X974601D02*
X969798D01*
X970703Y910403D01*
X972417Y908688D01*
X974601Y907784D01*
Y912586D01*
D02*
G37*
G36*
X962972D02*
X958170D01*
Y907784D01*
X960353Y908688D01*
X962068Y910403D01*
X962972Y912586D01*
D02*
G37*
G36*
X610642Y911197D02*
X605840D01*
X606744Y909014D01*
X608459Y907299D01*
X610642Y906395D01*
Y911197D01*
D02*
G37*
G36*
X1087360Y918290D02*
X1087148D01*
Y904520D01*
X1100918D01*
Y904731D01*
X1100340Y907637D01*
X1099206Y910374D01*
X1097561Y912837D01*
X1095466Y914932D01*
X1093002Y916578D01*
X1090265Y917712D01*
X1087360Y918290D01*
D02*
G37*
G36*
X1084608D02*
X1084397D01*
X1081491Y917712D01*
X1078754Y916578D01*
X1076291Y914932D01*
X1074196Y912837D01*
X1072550Y910374D01*
X1071416Y907637D01*
X1070838Y904731D01*
Y904520D01*
X1084608D01*
Y918290D01*
D02*
G37*
G36*
X1028613Y908772D02*
Y904520D01*
X1032866D01*
X1032080Y906415D01*
X1030508Y907987D01*
X1028613Y908772D01*
D02*
G37*
G36*
X1026073D02*
X1024178Y907987D01*
X1022606Y906415D01*
X1021821Y904520D01*
X1026073D01*
Y908772D01*
D02*
G37*
G36*
X696230Y909208D02*
X691428D01*
X692332Y907025D01*
X694047Y905310D01*
X696230Y904405D01*
Y909208D01*
D02*
G37*
G36*
X672342Y907847D02*
Y903045D01*
X677144D01*
X676240Y905228D01*
X674525Y906943D01*
X672342Y907847D01*
D02*
G37*
G36*
X669802D02*
X667619Y906943D01*
X665904Y905228D01*
X665000Y903045D01*
X669802D01*
Y907847D01*
D02*
G37*
G36*
X1032866Y901980D02*
X1028613D01*
Y897728D01*
X1030508Y898513D01*
X1032080Y900085D01*
X1032866Y901980D01*
D02*
G37*
G36*
X1026073D02*
X1021821D01*
X1022606Y900085D01*
X1024178Y898513D01*
X1026073Y897728D01*
Y901980D01*
D02*
G37*
G36*
X677144Y900505D02*
X672342D01*
Y895703D01*
X674525Y896607D01*
X676240Y898322D01*
X677144Y900505D01*
D02*
G37*
G36*
X669802D02*
X665000D01*
X665904Y898322D01*
X667619Y896607D01*
X669802Y895703D01*
Y900505D01*
D02*
G37*
G36*
X787116Y898572D02*
Y893770D01*
X791919D01*
X791014Y895953D01*
X789299Y897668D01*
X787116Y898572D01*
D02*
G37*
G36*
X784576D02*
X782393Y897668D01*
X780678Y895953D01*
X779774Y893770D01*
X784576D01*
Y898572D01*
D02*
G37*
G36*
X698770Y916550D02*
Y910478D01*
Y904405D01*
X700953Y905310D01*
X702668Y907025D01*
X703210Y908333D01*
X704480Y908081D01*
Y902230D01*
X718895D01*
X718977Y902177D01*
X719102Y902205D01*
X719220Y902156D01*
X719399Y902230D01*
X720520D01*
Y903178D01*
X720584Y903213D01*
X720864Y903314D01*
X721288Y903416D01*
X721828Y903501D01*
X723286Y903608D01*
X724491Y903569D01*
X725156Y903504D01*
X725712Y903416D01*
X726136Y903314D01*
X726415Y903213D01*
X726480Y903178D01*
Y902230D01*
X727601D01*
X727781Y902156D01*
X727898Y902205D01*
X728023Y902177D01*
X728105Y902230D01*
X729233D01*
X729356Y902163D01*
X729670Y902130D01*
X729781Y902091D01*
X729878Y902027D01*
X729999Y901896D01*
X730145Y901658D01*
X730295Y901290D01*
X730430Y900788D01*
X730535Y900157D01*
X730602Y899402D01*
X730606Y899246D01*
X730602Y899097D01*
X730536Y898341D01*
X730432Y897709D01*
X730298Y897205D01*
X730149Y896836D01*
X730005Y896598D01*
X729886Y896468D01*
X729794Y896406D01*
X729691Y896369D01*
X729385Y896336D01*
X729263Y896270D01*
X728230D01*
Y895149D01*
X728156Y894969D01*
X728186Y894898D01*
X728164Y894824D01*
X728230Y894702D01*
Y892517D01*
X728163Y892394D01*
X728130Y892080D01*
X728091Y891970D01*
X728027Y891872D01*
X727896Y891751D01*
X727658Y891606D01*
X727290Y891455D01*
X726788Y891320D01*
X726157Y891215D01*
X725402Y891148D01*
X725375Y891147D01*
X725348Y891148D01*
X724593Y891215D01*
X723962Y891320D01*
X723460Y891455D01*
X723092Y891606D01*
X722854Y891751D01*
X722723Y891872D01*
X722659Y891970D01*
X722620Y892080D01*
X722587Y892394D01*
X722520Y892516D01*
Y895520D01*
X708980D01*
Y878980D01*
X722520D01*
Y881983D01*
X722587Y882106D01*
X722620Y882420D01*
X722659Y882531D01*
X722723Y882628D01*
X722854Y882749D01*
X723092Y882895D01*
X723460Y883045D01*
X723962Y883180D01*
X724593Y883285D01*
X725348Y883352D01*
X725375Y883353D01*
X725402Y883352D01*
X726157Y883285D01*
X726788Y883180D01*
X727290Y883045D01*
X727658Y882894D01*
X727896Y882749D01*
X728027Y882628D01*
X728091Y882530D01*
X728130Y882420D01*
X728163Y882106D01*
X728230Y881983D01*
Y878730D01*
X740770D01*
Y894702D01*
X740836Y894824D01*
X740815Y894898D01*
X740844Y894969D01*
X740770Y895149D01*
Y896270D01*
X739737D01*
X739615Y896336D01*
X739309Y896369D01*
X739206Y896406D01*
X739113Y896468D01*
X738995Y896598D01*
X738851Y896836D01*
X738702Y897205D01*
X738568Y897709D01*
X738464Y898341D01*
X738398Y899097D01*
X738394Y899246D01*
X738398Y899402D01*
X738465Y900157D01*
X738570Y900788D01*
X738705Y901290D01*
X738856Y901658D01*
X739001Y901896D01*
X739122Y902027D01*
X739220Y902091D01*
X739330Y902130D01*
X739644Y902163D01*
X739766Y902230D01*
X742520D01*
Y912770D01*
X740585D01*
X739736Y914040D01*
X740022Y914730D01*
X728978D01*
X729264Y914040D01*
X728415Y912770D01*
X728105D01*
X728023Y912823D01*
X727898Y912795D01*
X727781Y912844D01*
X727601Y912770D01*
X726480D01*
Y911822D01*
X726416Y911787D01*
X726136Y911686D01*
X725712Y911584D01*
X725172Y911499D01*
X723714Y911392D01*
X722509Y911431D01*
X721844Y911496D01*
X721288Y911584D01*
X720864Y911686D01*
X720584Y911787D01*
X720520Y911822D01*
Y912770D01*
X719399D01*
X719220Y912844D01*
X719102Y912795D01*
X718977Y912823D01*
X718895Y912770D01*
X718585D01*
X717737Y914040D01*
X718022Y914730D01*
X706978D01*
X707263Y914040D01*
X706415Y912770D01*
X704480D01*
Y912770D01*
X703210Y912622D01*
X702668Y913931D01*
X700953Y915646D01*
X698770Y916550D01*
D02*
G37*
G36*
X937815Y890521D02*
X935947Y889748D01*
X934388Y888189D01*
X933614Y886321D01*
X937815D01*
Y890521D01*
D02*
G37*
G36*
X617984Y911197D02*
X613182D01*
Y906395D01*
X614475Y906930D01*
X615077Y907180D01*
X615717Y906070D01*
X615252Y905713D01*
X613874Y904656D01*
X612068Y902302D01*
X610932Y899560D01*
X610545Y896618D01*
X610932Y893676D01*
X612068Y890934D01*
X613874Y888580D01*
X616228Y886774D01*
X618970Y885638D01*
X621912Y885251D01*
X636912D01*
X639854Y885638D01*
X642596Y886774D01*
X644950Y888580D01*
X646756Y890934D01*
X647892Y893676D01*
X648279Y896618D01*
X647892Y899560D01*
X646756Y902302D01*
X644950Y904656D01*
X642596Y906462D01*
X639854Y907598D01*
X636912Y907985D01*
X621912D01*
X618970Y907598D01*
X616817Y906706D01*
X616228Y906462D01*
X615566Y907499D01*
X616009Y907943D01*
X617080Y909014D01*
X617984Y911197D01*
D02*
G37*
G36*
X894448Y889120D02*
Y884317D01*
X899251D01*
X898346Y886501D01*
X896631Y888215D01*
X894448Y889120D01*
D02*
G37*
G36*
X891908D02*
X889725Y888215D01*
X888010Y886501D01*
X887106Y884317D01*
X891908D01*
Y889120D01*
D02*
G37*
G36*
X937815Y883781D02*
X933614D01*
X934388Y881913D01*
X935947Y880355D01*
X937815Y879581D01*
Y883781D01*
D02*
G37*
G36*
X899251Y881777D02*
X894448D01*
Y876975D01*
X896631Y877880D01*
X898346Y879594D01*
X899251Y881777D01*
D02*
G37*
G36*
X891908D02*
X887106D01*
X888010Y879594D01*
X889725Y877880D01*
X891908Y876975D01*
Y881777D01*
D02*
G37*
G36*
X651682Y884693D02*
Y875888D01*
X659949D01*
X659706Y877729D01*
X658745Y880049D01*
X657216Y882042D01*
X655223Y883571D01*
X652903Y884532D01*
X651682Y884693D01*
D02*
G37*
G36*
X649142D02*
X647922Y884532D01*
X645601Y883571D01*
X643608Y882042D01*
X642079Y880049D01*
X641118Y877729D01*
X640875Y875888D01*
X649142D01*
Y884693D01*
D02*
G37*
G36*
X667125Y880062D02*
X665230Y879277D01*
X663658Y877705D01*
X662873Y875810D01*
X667125D01*
Y880062D01*
D02*
G37*
G36*
X669665D02*
Y874540D01*
Y872618D01*
X671421Y874911D01*
X672714Y873617D01*
X670393Y870281D01*
X670146Y870524D01*
X669665Y870947D01*
Y869017D01*
X669739Y869048D01*
X671486Y867302D01*
X672567Y866579D01*
X673618Y866370D01*
X673810Y866285D01*
X674472Y866269D01*
X674960Y866229D01*
Y857460D01*
X680230D01*
Y866750D01*
Y876040D01*
X674960D01*
X674960Y876040D01*
X673756Y876200D01*
X673133Y877705D01*
X671561Y879277D01*
X669665Y880062D01*
D02*
G37*
G36*
X667125Y873270D02*
X662873D01*
X663658Y871374D01*
X665230Y869802D01*
X667125Y869017D01*
Y873270D01*
D02*
G37*
G36*
X792587Y872650D02*
Y868450D01*
X796787D01*
X796013Y870318D01*
X794455Y871877D01*
X792587Y872650D01*
D02*
G37*
G36*
X790047D02*
X788179Y871877D01*
X786620Y870318D01*
X785846Y868450D01*
X790047D01*
Y872650D01*
D02*
G37*
G36*
X688040Y876040D02*
X682770D01*
Y868020D01*
X688040D01*
Y876040D01*
D02*
G37*
G36*
X1059620Y886270D02*
X1057180D01*
X1054822Y885638D01*
X1052708Y884418D01*
X1050982Y882692D01*
X1049762Y880578D01*
X1049130Y878220D01*
Y875780D01*
X1049762Y873422D01*
X1050982Y871308D01*
X1052708Y869582D01*
X1054822Y868362D01*
X1057180Y867730D01*
X1059620D01*
X1061978Y868362D01*
X1064092Y869582D01*
X1065818Y871308D01*
X1067038Y873422D01*
X1067670Y875780D01*
Y878220D01*
X1067038Y880578D01*
X1065818Y882692D01*
X1064092Y884418D01*
X1061978Y885638D01*
X1059620Y886270D01*
D02*
G37*
G36*
X659949Y873348D02*
X651682D01*
Y864543D01*
X652903Y864704D01*
X655223Y865665D01*
X657216Y867194D01*
X658745Y869187D01*
X659706Y871508D01*
X659949Y873348D01*
D02*
G37*
G36*
X649142D02*
X640875D01*
X641118Y871508D01*
X642079Y869187D01*
X643608Y867194D01*
X645601Y865665D01*
X647922Y864704D01*
X649142Y864543D01*
Y873348D01*
D02*
G37*
G36*
X900698Y868752D02*
Y863950D01*
X905501D01*
X904596Y866133D01*
X902881Y867848D01*
X900698Y868752D01*
D02*
G37*
G36*
X898158D02*
X895975Y867848D01*
X894260Y866133D01*
X893356Y863950D01*
X898158D01*
Y868752D01*
D02*
G37*
G36*
X796787Y865910D02*
X792587D01*
Y861710D01*
X794455Y862483D01*
X796013Y864042D01*
X796787Y865910D01*
D02*
G37*
G36*
X790047D02*
X785846D01*
X786620Y864042D01*
X788179Y862483D01*
X790047Y861710D01*
Y865910D01*
D02*
G37*
G36*
X852145Y864150D02*
Y859950D01*
X856345D01*
X855572Y861818D01*
X854013Y863377D01*
X852145Y864150D01*
D02*
G37*
G36*
X849605D02*
X847737Y863377D01*
X846178Y861818D01*
X845405Y859950D01*
X849605D01*
Y864150D01*
D02*
G37*
G36*
X688040Y865480D02*
X682770D01*
Y857460D01*
X688040D01*
Y865480D01*
D02*
G37*
G36*
X905501Y861410D02*
X900698D01*
Y856608D01*
X902881Y857512D01*
X904596Y859227D01*
X905501Y861410D01*
D02*
G37*
G36*
X898158D02*
X893356D01*
X894260Y859227D01*
X895975Y857512D01*
X898158Y856608D01*
Y861410D01*
D02*
G37*
G36*
X630303Y868888D02*
X628521D01*
X626799Y868427D01*
X625255Y867535D01*
X623995Y866275D01*
X623103Y864731D01*
X622642Y863009D01*
Y861227D01*
X623103Y859505D01*
X623995Y857961D01*
X625255Y856701D01*
X626799Y855809D01*
X628521Y855348D01*
X630303D01*
X632025Y855809D01*
X633569Y856701D01*
X634829Y857961D01*
X635721Y859505D01*
X636182Y861227D01*
Y863009D01*
X635721Y864731D01*
X634829Y866275D01*
X633569Y867535D01*
X632025Y868427D01*
X630303Y868888D01*
D02*
G37*
G36*
X856345Y857410D02*
X852145D01*
Y853210D01*
X854013Y853983D01*
X855572Y855542D01*
X856345Y857410D01*
D02*
G37*
G36*
X849605D02*
X845405D01*
X846178Y855542D01*
X847737Y853983D01*
X849605Y853210D01*
Y857410D01*
D02*
G37*
G36*
X922118Y860406D02*
X920419D01*
X918850Y859755D01*
X917649Y858554D01*
X916999Y856985D01*
Y855286D01*
X917649Y853717D01*
X917816Y853550D01*
X917883Y852267D01*
X916627Y851983D01*
X916517Y852246D01*
X915316Y853448D01*
X913747Y854098D01*
X912048D01*
X910479Y853448D01*
X909925Y852894D01*
X908862Y852821D01*
X908563Y852820D01*
X908467Y852779D01*
X908422D01*
X908333Y852799D01*
X908301Y852779D01*
X904757D01*
X903481Y852525D01*
X902399Y851803D01*
X865597Y815001D01*
X864692Y815022D01*
X864591Y815030D01*
X864377Y815243D01*
X863561Y815581D01*
X863250Y817067D01*
X875514Y829331D01*
X876410Y829509D01*
X877491Y830232D01*
X891956Y844697D01*
X892051Y844735D01*
X892703Y845370D01*
X893112Y845735D01*
X893456D01*
X895043Y846392D01*
X896258Y847607D01*
X896915Y849194D01*
Y850912D01*
X896258Y852499D01*
X895043Y853714D01*
X893456Y854371D01*
X891738D01*
X890151Y853714D01*
X888936Y852499D01*
X888279Y850912D01*
Y850602D01*
X887507Y849737D01*
X887288Y849516D01*
X887248Y849419D01*
X873677Y835848D01*
X872782Y835670D01*
X871700Y834947D01*
X838526Y801773D01*
X837803Y800692D01*
X837550Y799416D01*
Y769249D01*
X837509Y769152D01*
X837508Y768823D01*
X837485Y767846D01*
X837477Y767744D01*
X837264Y767531D01*
X836614Y765961D01*
Y765557D01*
X824391Y753334D01*
X815521D01*
X815235Y753620D01*
X813665Y754270D01*
X811967D01*
X810397Y753620D01*
X809196Y752419D01*
X808546Y750849D01*
Y749151D01*
X809196Y747581D01*
X810397Y746380D01*
X811967Y745730D01*
X813665D01*
X815235Y746380D01*
X815521Y746666D01*
X825772D01*
X827048Y746920D01*
X828129Y747643D01*
X840827Y760340D01*
X841404Y759822D01*
X841489Y759792D01*
X854196Y747084D01*
X855278Y746361D01*
X856554Y746107D01*
X941183D01*
X941264Y746069D01*
X941854Y746037D01*
X942381Y745952D01*
X942922Y745807D01*
X943481Y745598D01*
X944059Y745324D01*
X944654Y744980D01*
X945248Y744576D01*
X946549Y743501D01*
X947213Y742856D01*
X947457Y742759D01*
X948192Y742024D01*
X950306Y740803D01*
X952664Y740172D01*
X955105D01*
X957462Y740803D01*
X959576Y742024D01*
X961302Y743750D01*
X962523Y745863D01*
X963154Y748221D01*
Y750662D01*
X962523Y753020D01*
X961302Y755133D01*
X959576Y756859D01*
X957462Y758080D01*
X955105Y758711D01*
X952664D01*
X950306Y758080D01*
X948192Y756859D01*
X947457Y756124D01*
X947213Y756027D01*
X946535Y755368D01*
X945893Y754806D01*
X945266Y754318D01*
X944653Y753903D01*
X944058Y753559D01*
X943481Y753285D01*
X942922Y753076D01*
X942381Y752931D01*
X941854Y752846D01*
X941264Y752814D01*
X941183Y752776D01*
X857935D01*
X846167Y764544D01*
X846127Y764641D01*
X845895Y764874D01*
X845220Y765582D01*
X845154Y765659D01*
Y765961D01*
X844504Y767531D01*
X844337Y767697D01*
X844257Y769220D01*
X844218Y769302D01*
Y798035D01*
X856515Y810332D01*
X858000Y810021D01*
X858338Y809204D01*
X859540Y808003D01*
X861109Y807353D01*
X862808D01*
X864377Y808003D01*
X864544Y808170D01*
X866067Y808251D01*
X866148Y808289D01*
X866935D01*
X868211Y808543D01*
X869293Y809266D01*
X906138Y846111D01*
X909193D01*
X909295Y846070D01*
X910757Y846093D01*
X912048Y845558D01*
X913747D01*
X915316Y846208D01*
X916517Y847409D01*
X916665Y847765D01*
X917935Y847512D01*
Y842650D01*
X873619Y798334D01*
X867668D01*
X867571Y798375D01*
X867242Y798376D01*
X866265Y798398D01*
X866163Y798406D01*
X865950Y798620D01*
X864380Y799270D01*
X862682D01*
X861112Y798620D01*
X859911Y797419D01*
X859261Y795849D01*
Y794151D01*
X859911Y792581D01*
X861112Y791380D01*
X862682Y790730D01*
X864380D01*
X865950Y791380D01*
X866116Y791547D01*
X867639Y791627D01*
X867720Y791666D01*
X875000D01*
X876276Y791920D01*
X877357Y792643D01*
X911738Y827022D01*
X912814Y826303D01*
X912453Y825432D01*
Y823733D01*
X913103Y822164D01*
X913519Y821749D01*
X913595Y821528D01*
X913650Y821466D01*
X913659Y821454D01*
X913680Y821412D01*
X913711Y821337D01*
X913745Y821227D01*
X913778Y821082D01*
X913804Y820921D01*
X913844Y820438D01*
X913849Y820159D01*
X913899Y820044D01*
Y807868D01*
X913850Y807761D01*
X913828Y807184D01*
X913807Y806989D01*
X913778Y806811D01*
X913745Y806666D01*
X913711Y806556D01*
X913680Y806481D01*
X913659Y806439D01*
X913650Y806427D01*
X913595Y806365D01*
X913519Y806144D01*
X913103Y805729D01*
X912453Y804160D01*
Y802461D01*
X913103Y800891D01*
X914305Y799690D01*
X915874Y799040D01*
X917573D01*
X919142Y799690D01*
X920343Y800891D01*
X920993Y802461D01*
Y804160D01*
X920343Y805729D01*
X919928Y806144D01*
X919851Y806365D01*
X919796Y806427D01*
X919788Y806439D01*
X919766Y806481D01*
X919736Y806556D01*
X919702Y806666D01*
X919669Y806811D01*
X919643Y806972D01*
X919603Y807455D01*
X919598Y807734D01*
X919548Y807849D01*
Y820024D01*
X919597Y820132D01*
X919619Y820709D01*
X919640Y820904D01*
X919669Y821082D01*
X919702Y821227D01*
X919736Y821337D01*
X919766Y821412D01*
X919788Y821454D01*
X919796Y821466D01*
X919851Y821528D01*
X919928Y821749D01*
X920343Y822164D01*
X920993Y823733D01*
Y825432D01*
X920343Y827001D01*
X919142Y828203D01*
X917573Y828853D01*
X915874D01*
X915003Y828492D01*
X914284Y829569D01*
X923626Y838911D01*
X924349Y839993D01*
X924603Y841269D01*
Y851998D01*
X924643Y852095D01*
X924644Y852424D01*
X924667Y853402D01*
X924675Y853503D01*
X924889Y853717D01*
X925539Y855286D01*
Y856985D01*
X924889Y858554D01*
X923688Y859755D01*
X922118Y860406D01*
D02*
G37*
G36*
X651582Y858508D02*
X649242D01*
X646981Y857902D01*
X644953Y856732D01*
X643298Y855077D01*
X642128Y853049D01*
X641522Y850788D01*
Y848448D01*
X642128Y846187D01*
X643298Y844159D01*
X644953Y842504D01*
X646981Y841334D01*
X649242Y840728D01*
X651582D01*
X653843Y841334D01*
X655871Y842504D01*
X657526Y844159D01*
X658696Y846187D01*
X659302Y848448D01*
Y850788D01*
X658696Y853049D01*
X657526Y855077D01*
X655871Y856732D01*
X653843Y857902D01*
X651582Y858508D01*
D02*
G37*
G36*
X974038Y841987D02*
Y837787D01*
X978238D01*
X977464Y839655D01*
X975906Y841213D01*
X974038Y841987D01*
D02*
G37*
G36*
X971498D02*
X969630Y841213D01*
X968071Y839655D01*
X967297Y837787D01*
X971498D01*
Y841987D01*
D02*
G37*
G36*
X703799Y835213D02*
X701195D01*
Y832609D01*
X702228Y833037D01*
X703371Y834180D01*
X703799Y835213D01*
D02*
G37*
G36*
X978238Y835247D02*
X974038D01*
Y831046D01*
X975906Y831820D01*
X977464Y833379D01*
X978238Y835247D01*
D02*
G37*
G36*
X971498D02*
X967297D01*
X968071Y833379D01*
X969630Y831820D01*
X971498Y831046D01*
Y835247D01*
D02*
G37*
G36*
X839131Y831400D02*
Y827200D01*
X843332D01*
X842558Y829068D01*
X840999Y830627D01*
X839131Y831400D01*
D02*
G37*
G36*
X836591D02*
X834723Y830627D01*
X833165Y829068D01*
X832391Y827200D01*
X836591D01*
Y831400D01*
D02*
G37*
G36*
X651582Y838508D02*
X649242D01*
X646981Y837902D01*
X644953Y836732D01*
X643298Y835077D01*
X642128Y833049D01*
X641522Y830788D01*
Y828448D01*
X642128Y826187D01*
X643298Y824159D01*
X644953Y822504D01*
X646981Y821334D01*
X649242Y820728D01*
X651582D01*
X653843Y821334D01*
X655871Y822504D01*
X657526Y824159D01*
X658696Y826187D01*
X659302Y828448D01*
Y830788D01*
X658696Y833049D01*
X657526Y835077D01*
X655871Y836732D01*
X653843Y837902D01*
X651582Y838508D01*
D02*
G37*
G36*
X843332Y824660D02*
X839131D01*
Y820460D01*
X840999Y821233D01*
X842558Y822792D01*
X843332Y824660D01*
D02*
G37*
G36*
X836591D02*
X832391D01*
X833165Y822792D01*
X834723Y821233D01*
X836591Y820460D01*
Y824660D01*
D02*
G37*
G36*
X757000Y823395D02*
Y818593D01*
X761802D01*
X760898Y820776D01*
X759183Y822491D01*
X757000Y823395D01*
D02*
G37*
G36*
X754460D02*
X752277Y822491D01*
X750562Y820776D01*
X749658Y818593D01*
X754460D01*
Y823395D01*
D02*
G37*
G36*
X1059620Y835470D02*
X1057180D01*
X1054822Y834838D01*
X1052708Y833618D01*
X1050982Y831892D01*
X1049762Y829778D01*
X1049130Y827420D01*
Y824980D01*
X1049762Y822622D01*
X1050982Y820508D01*
X1052708Y818782D01*
X1054822Y817562D01*
X1057180Y816930D01*
X1059620D01*
X1061978Y817562D01*
X1064092Y818782D01*
X1065818Y820508D01*
X1067038Y822622D01*
X1067670Y824980D01*
Y827420D01*
X1067038Y829778D01*
X1065818Y831892D01*
X1064092Y833618D01*
X1061978Y834838D01*
X1059620Y835470D01*
D02*
G37*
G36*
X761802Y816053D02*
X757000D01*
Y811251D01*
X759183Y812155D01*
X760898Y813870D01*
X761802Y816053D01*
D02*
G37*
G36*
X754460D02*
X749658D01*
X750562Y813870D01*
X752277Y812155D01*
X754460Y811251D01*
Y816053D01*
D02*
G37*
G36*
X630303Y823888D02*
X628521D01*
X626799Y823427D01*
X625255Y822535D01*
X623995Y821275D01*
X623103Y819731D01*
X622642Y818009D01*
Y816227D01*
X623103Y814505D01*
X623995Y812961D01*
X625255Y811701D01*
X626799Y810809D01*
X628521Y810348D01*
X630303D01*
X632025Y810809D01*
X633569Y811701D01*
X634829Y812961D01*
X635721Y814505D01*
X636182Y816227D01*
Y818009D01*
X635721Y819731D01*
X634829Y821275D01*
X633569Y822535D01*
X632025Y823427D01*
X630303Y823888D01*
D02*
G37*
G36*
X705520Y895520D02*
X691980D01*
Y878980D01*
X693359D01*
X693481Y878913D01*
X693795Y878880D01*
X693905Y878841D01*
X694003Y878776D01*
X694124Y878646D01*
X694269Y878408D01*
X694420Y878040D01*
X694555Y877538D01*
X694660Y876907D01*
X694680Y876682D01*
X694619Y876108D01*
X694525Y875560D01*
X694416Y875144D01*
X694311Y874873D01*
X694269Y874802D01*
X694217Y874770D01*
X693230D01*
Y873649D01*
X693156Y873469D01*
X693201Y873361D01*
X693174Y873246D01*
X693230Y873156D01*
Y860355D01*
X693177Y860273D01*
X693205Y860148D01*
X693156Y860031D01*
X693230Y859851D01*
Y858730D01*
X694178D01*
X694213Y858665D01*
X694314Y858386D01*
X694416Y857962D01*
X694501Y857422D01*
X694611Y855919D01*
X694625Y855009D01*
X694656Y854938D01*
Y844138D01*
X691912Y841394D01*
X691079Y840147D01*
X690786Y838676D01*
X690786Y838676D01*
Y814263D01*
X684985Y808462D01*
X662302D01*
X662238Y808492D01*
X661592Y808518D01*
X661020Y808588D01*
X660463Y808706D01*
X659920Y808870D01*
X659387Y809082D01*
X658863Y809343D01*
X658347Y809656D01*
X657837Y810021D01*
X657333Y810440D01*
X656804Y810946D01*
X656563Y811039D01*
X655871Y811732D01*
X653843Y812902D01*
X651582Y813508D01*
X649242D01*
X646981Y812902D01*
X644953Y811732D01*
X643298Y810077D01*
X642128Y808049D01*
X641522Y805788D01*
Y803448D01*
X642128Y801187D01*
X643298Y799159D01*
X644953Y797504D01*
X646981Y796334D01*
X649242Y795728D01*
X651582D01*
X653843Y796334D01*
X655871Y797504D01*
X656563Y798197D01*
X656804Y798290D01*
X657333Y798796D01*
X657837Y799215D01*
X658347Y799580D01*
X658863Y799892D01*
X659387Y800154D01*
X659920Y800366D01*
X660463Y800530D01*
X661020Y800648D01*
X661592Y800718D01*
X662238Y800744D01*
X662302Y800774D01*
X665576D01*
X665829Y799504D01*
X664047Y798766D01*
X662332Y797051D01*
X661428Y794868D01*
X673572D01*
X672668Y797051D01*
X670953Y798766D01*
X669171Y799504D01*
X669424Y800774D01*
X686577D01*
X686578Y800774D01*
X688048Y801067D01*
X689296Y801900D01*
X697348Y809952D01*
X697348Y809952D01*
X698181Y811199D01*
X698474Y812670D01*
X698474Y812671D01*
Y831989D01*
X698655Y832110D01*
Y836483D01*
X699925D01*
Y837753D01*
X703799D01*
X703371Y838786D01*
X702228Y839929D01*
X701933Y840899D01*
X702051Y841075D01*
X702344Y842546D01*
Y854919D01*
X702374Y854986D01*
X702431Y856741D01*
X702496Y857406D01*
X702584Y857962D01*
X702686Y858386D01*
X702787Y858665D01*
X702822Y858730D01*
X703770D01*
Y859851D01*
X703844Y860031D01*
X703795Y860148D01*
X703823Y860273D01*
X703770Y860355D01*
Y873132D01*
X703819Y873205D01*
X703791Y873342D01*
X703844Y873469D01*
X703770Y873649D01*
Y874770D01*
X702896D01*
X702884Y874794D01*
X702789Y875083D01*
X702693Y875516D01*
X702614Y876065D01*
X702571Y876699D01*
X702590Y876907D01*
X702695Y877538D01*
X702830Y878040D01*
X702980Y878408D01*
X703126Y878646D01*
X703247Y878776D01*
X703345Y878841D01*
X703455Y878880D01*
X703769Y878913D01*
X703892Y878980D01*
X705520D01*
Y895520D01*
D02*
G37*
G36*
X721568Y806001D02*
Y800840D01*
X726728D01*
X726392Y802094D01*
X725531Y803586D01*
X724313Y804803D01*
X722822Y805665D01*
X721568Y806001D01*
D02*
G37*
G36*
X719028D02*
X717773Y805665D01*
X716282Y804803D01*
X715064Y803586D01*
X714203Y802094D01*
X713867Y800840D01*
X719028D01*
Y806001D01*
D02*
G37*
G36*
X788770Y801557D02*
Y796755D01*
X793572D01*
X792668Y798938D01*
X790953Y800653D01*
X788770Y801557D01*
D02*
G37*
G36*
X786230D02*
X784047Y800653D01*
X782332Y798938D01*
X781428Y796755D01*
X786230D01*
Y801557D01*
D02*
G37*
G36*
X736270Y798022D02*
Y793770D01*
X740522D01*
X739737Y795665D01*
X738165Y797237D01*
X736270Y798022D01*
D02*
G37*
G36*
X733730D02*
X731835Y797237D01*
X730263Y795665D01*
X729478Y793770D01*
X733730D01*
Y798022D01*
D02*
G37*
G36*
X726728Y798300D02*
X721568D01*
Y793140D01*
X722822Y793476D01*
X724313Y794337D01*
X725531Y795555D01*
X726392Y797046D01*
X726728Y798300D01*
D02*
G37*
G36*
X719028D02*
X713867D01*
X714203Y797046D01*
X715064Y795555D01*
X716282Y794337D01*
X717773Y793476D01*
X719028Y793140D01*
Y798300D01*
D02*
G37*
G36*
X1034220Y810070D02*
X1031780D01*
X1029422Y809438D01*
X1027308Y808218D01*
X1025582Y806492D01*
X1024362Y804378D01*
X1023730Y802020D01*
Y799580D01*
X1024362Y797222D01*
X1025582Y795108D01*
X1027308Y793382D01*
X1029422Y792162D01*
X1031780Y791530D01*
X1034220D01*
X1036578Y792162D01*
X1038692Y793382D01*
X1040418Y795108D01*
X1041638Y797222D01*
X1042270Y799580D01*
Y802020D01*
X1041638Y804378D01*
X1040418Y806492D01*
X1038692Y808218D01*
X1036578Y809438D01*
X1034220Y810070D01*
D02*
G37*
G36*
X1092027Y794866D02*
X1087225D01*
Y790064D01*
X1089408Y790968D01*
X1091123Y792683D01*
X1092027Y794866D01*
D02*
G37*
G36*
X793572Y794215D02*
X788770D01*
Y789413D01*
X790953Y790317D01*
X792668Y792032D01*
X793572Y794215D01*
D02*
G37*
G36*
X786230D02*
X781428D01*
X782332Y792032D01*
X784047Y790317D01*
X786230Y789413D01*
Y794215D01*
D02*
G37*
G36*
X733730Y791230D02*
X729478D01*
X730263Y789335D01*
X729456Y788345D01*
X729024Y788594D01*
X727770Y788930D01*
Y783770D01*
X732930D01*
X732594Y785024D01*
X731798Y786403D01*
X731851Y786535D01*
X733063Y787254D01*
X733730Y786978D01*
Y791230D01*
D02*
G37*
G36*
X673572Y792328D02*
X668770D01*
Y787526D01*
X670953Y788430D01*
X672668Y790145D01*
X673572Y792328D01*
D02*
G37*
G36*
X666230D02*
X661428D01*
X662332Y790145D01*
X664047Y788430D01*
X666230Y787526D01*
Y792328D01*
D02*
G37*
G36*
X740522Y791230D02*
X736270D01*
Y786978D01*
X738165Y787763D01*
X739737Y789335D01*
X740522Y791230D01*
D02*
G37*
G36*
X871520Y789822D02*
Y785020D01*
X876322D01*
X875418Y787203D01*
X873703Y788918D01*
X871520Y789822D01*
D02*
G37*
G36*
X868980D02*
X866797Y788918D01*
X865082Y787203D01*
X864178Y785020D01*
X868980D01*
Y789822D01*
D02*
G37*
G36*
X725230Y788930D02*
X723976Y788594D01*
X722484Y787733D01*
X721267Y786516D01*
X720406Y785024D01*
X720070Y783770D01*
X725230D01*
Y788930D01*
D02*
G37*
G36*
X876322Y782480D02*
X871520D01*
Y777678D01*
X873703Y778582D01*
X875418Y780297D01*
X876322Y782480D01*
D02*
G37*
G36*
X868980D02*
X864178D01*
X865082Y780297D01*
X866797Y778582D01*
X868980Y777678D01*
Y782480D01*
D02*
G37*
G36*
X1084685Y788490D02*
X1084473D01*
X1081568Y787912D01*
X1078830Y786778D01*
X1076367Y785132D01*
X1074272Y783037D01*
X1072626Y780574D01*
X1071492Y777837D01*
X1071289Y776812D01*
X1070073Y776444D01*
X1069853Y776664D01*
X1067670Y777568D01*
Y771496D01*
Y765424D01*
X1069853Y766328D01*
X1070841Y767316D01*
X1072339Y767018D01*
X1072626Y766326D01*
X1074272Y763863D01*
X1076367Y761768D01*
X1078830Y760122D01*
X1081568Y758988D01*
X1084473Y758410D01*
X1084685D01*
Y773450D01*
Y788490D01*
D02*
G37*
G36*
X732930Y781230D02*
X727770D01*
Y776070D01*
X729024Y776406D01*
X730516Y777267D01*
X731733Y778484D01*
X732594Y779976D01*
X732930Y781230D01*
D02*
G37*
G36*
X725230D02*
X720070D01*
X720406Y779976D01*
X721267Y778484D01*
X722484Y777267D01*
X723976Y776406D01*
X725230Y776070D01*
Y781230D01*
D02*
G37*
G36*
X1087436Y788490D02*
X1087225D01*
Y774720D01*
X1100994D01*
Y774931D01*
X1100417Y777837D01*
X1099283Y780574D01*
X1097637Y783037D01*
X1095542Y785132D01*
X1093079Y786778D01*
X1090342Y787912D01*
X1087436Y788490D01*
D02*
G37*
G36*
X636912Y793985D02*
X621912D01*
X618970Y793598D01*
X616228Y792462D01*
X613874Y790656D01*
X612068Y788302D01*
X610932Y785560D01*
X610545Y782618D01*
X610932Y779676D01*
X612068Y776934D01*
X613874Y774580D01*
X616228Y772774D01*
X618970Y771638D01*
X621912Y771251D01*
X636912D01*
X639854Y771638D01*
X642596Y772774D01*
X644950Y774580D01*
X646756Y776934D01*
X647892Y779676D01*
X648279Y782618D01*
X647892Y785560D01*
X646756Y788302D01*
X644950Y790656D01*
X642596Y792462D01*
X639854Y793598D01*
X636912Y793985D01*
D02*
G37*
G36*
X663770Y772854D02*
Y768051D01*
X668572D01*
X667668Y770235D01*
X665953Y771949D01*
X663770Y772854D01*
D02*
G37*
G36*
X661230D02*
X659047Y771949D01*
X657332Y770235D01*
X656428Y768051D01*
X661230D01*
Y772854D01*
D02*
G37*
G36*
X869154Y772154D02*
Y767954D01*
X873354D01*
X872580Y769822D01*
X871022Y771381D01*
X869154Y772154D01*
D02*
G37*
G36*
X866614D02*
X864746Y771381D01*
X863187Y769822D01*
X862413Y767954D01*
X866614D01*
Y772154D01*
D02*
G37*
G36*
X610798Y772025D02*
X608615Y771121D01*
X606900Y769406D01*
X605995Y767223D01*
X610798D01*
Y772025D01*
D02*
G37*
G36*
X944284Y771464D02*
X939482D01*
Y766662D01*
X941665Y767566D01*
X943380Y769281D01*
X944284Y771464D01*
D02*
G37*
G36*
X936942D02*
X932140D01*
X933044Y769281D01*
X934759Y767566D01*
X936942Y766662D01*
Y771464D01*
D02*
G37*
G36*
X719770Y771072D02*
Y766270D01*
X724572D01*
X723668Y768453D01*
X721953Y770168D01*
X719770Y771072D01*
D02*
G37*
G36*
X717230D02*
X715047Y770168D01*
X713332Y768453D01*
X712428Y766270D01*
X717230D01*
Y771072D01*
D02*
G37*
G36*
X1065130Y770226D02*
X1060328D01*
X1061232Y768043D01*
X1062947Y766328D01*
X1065130Y765424D01*
Y770226D01*
D02*
G37*
G36*
X781000Y768572D02*
Y763770D01*
X785802D01*
X784898Y765953D01*
X783183Y767668D01*
X781000Y768572D01*
D02*
G37*
G36*
X778460D02*
X776277Y767668D01*
X774562Y765953D01*
X773658Y763770D01*
X778460D01*
Y768572D01*
D02*
G37*
G36*
X823242Y766684D02*
Y762432D01*
X827495D01*
X826709Y764327D01*
X825137Y765899D01*
X823242Y766684D01*
D02*
G37*
G36*
X820702D02*
X818807Y765899D01*
X817235Y764327D01*
X816450Y762432D01*
X820702D01*
Y766684D01*
D02*
G37*
G36*
X873354Y765414D02*
X869154D01*
Y761214D01*
X871022Y761988D01*
X872580Y763546D01*
X873354Y765414D01*
D02*
G37*
G36*
X866614D02*
X862413D01*
X863187Y763546D01*
X864746Y761988D01*
X866614Y761214D01*
Y765414D01*
D02*
G37*
G36*
X668572Y765511D02*
X663770D01*
Y760709D01*
X665953Y761613D01*
X667668Y763328D01*
X668572Y765511D01*
D02*
G37*
G36*
X661230D02*
X656428D01*
X657332Y763328D01*
X659047Y761613D01*
X661230Y760709D01*
Y765511D01*
D02*
G37*
G36*
X610798Y764683D02*
X605995D01*
X606900Y762500D01*
X608615Y760785D01*
X610798Y759881D01*
Y764683D01*
D02*
G37*
G36*
X724572Y763730D02*
X719770D01*
Y758928D01*
X721953Y759832D01*
X723668Y761547D01*
X724572Y763730D01*
D02*
G37*
G36*
X717230D02*
X712428D01*
X713332Y761547D01*
X715047Y759832D01*
X717230Y758928D01*
Y763730D01*
D02*
G37*
G36*
X1100994Y772180D02*
X1087225D01*
Y758410D01*
X1087436D01*
X1090342Y758988D01*
X1093079Y760122D01*
X1095542Y761768D01*
X1097637Y763863D01*
X1099283Y766326D01*
X1100417Y769063D01*
X1100994Y771969D01*
Y772180D01*
D02*
G37*
G36*
X785802Y761230D02*
X781000D01*
Y756428D01*
X783183Y757332D01*
X784898Y759047D01*
X785802Y761230D01*
D02*
G37*
G36*
X778460D02*
X773658D01*
X774562Y759047D01*
X776277Y757332D01*
X778460Y756428D01*
Y761230D01*
D02*
G37*
G36*
X827495Y759892D02*
X823242D01*
Y755639D01*
X825137Y756424D01*
X826709Y757996D01*
X827495Y759892D01*
D02*
G37*
G36*
X820702D02*
X816450D01*
X817235Y757996D01*
X818807Y756424D01*
X820702Y755639D01*
Y759892D01*
D02*
G37*
G36*
X630893Y768493D02*
X630682D01*
Y754723D01*
X644452D01*
Y754934D01*
X643874Y757840D01*
X642740Y760577D01*
X641094Y763041D01*
X638999Y765135D01*
X636536Y766781D01*
X633799Y767915D01*
X630893Y768493D01*
D02*
G37*
G36*
X613338Y772025D02*
Y765953D01*
Y759881D01*
X614645Y760422D01*
X615617Y759450D01*
X614950Y757840D01*
X614372Y754934D01*
Y754723D01*
X628142D01*
Y768493D01*
X627931D01*
X625025Y767915D01*
X622288Y766781D01*
X619825Y765135D01*
X619434Y764745D01*
X618164Y765271D01*
Y767166D01*
X617236Y769406D01*
X615521Y771121D01*
X613338Y772025D01*
D02*
G37*
G36*
X980672Y759220D02*
X980554D01*
Y749949D01*
X989824D01*
Y750067D01*
X989106Y752748D01*
X987718Y755151D01*
X985756Y757114D01*
X983353Y758501D01*
X980672Y759220D01*
D02*
G37*
G36*
X978014D02*
X977897D01*
X975216Y758501D01*
X972813Y757114D01*
X970850Y755151D01*
X969463Y752748D01*
X968744Y750067D01*
Y749949D01*
X978014D01*
Y759220D01*
D02*
G37*
G36*
X1079771Y754224D02*
Y749422D01*
X1084574D01*
X1083670Y751605D01*
X1081955Y753320D01*
X1079771Y754224D01*
D02*
G37*
G36*
X1077232D02*
X1075048Y753320D01*
X1073334Y751605D01*
X1072429Y749422D01*
X1077232D01*
Y754224D01*
D02*
G37*
G36*
X1084574Y746882D02*
X1079771D01*
Y742080D01*
X1081955Y742984D01*
X1083670Y744699D01*
X1084574Y746882D01*
D02*
G37*
G36*
X1077232D02*
X1072429D01*
X1073334Y744699D01*
X1075048Y742984D01*
X1077232Y742080D01*
Y746882D01*
D02*
G37*
G36*
X648182Y744485D02*
Y739683D01*
X652984D01*
X652080Y741866D01*
X650365Y743581D01*
X648182Y744485D01*
D02*
G37*
G36*
X645642D02*
X643459Y743581D01*
X641744Y741866D01*
X640840Y739683D01*
X645642D01*
Y744485D01*
D02*
G37*
G36*
X1064754Y757950D02*
X1046214D01*
Y739409D01*
X1064754D01*
Y757950D01*
D02*
G37*
G36*
X644452Y752183D02*
X630682D01*
Y738413D01*
X630893D01*
X633799Y738991D01*
X636536Y740125D01*
X638999Y741771D01*
X641094Y743866D01*
X642740Y746329D01*
X643874Y749066D01*
X644452Y751972D01*
Y752183D01*
D02*
G37*
G36*
X628142D02*
X614372D01*
Y751972D01*
X614950Y749066D01*
X616084Y746329D01*
X617730Y743866D01*
X619825Y741771D01*
X622288Y740125D01*
X625025Y738991D01*
X627931Y738413D01*
X628142D01*
Y752183D01*
D02*
G37*
G36*
X989824Y747410D02*
X980554D01*
Y738139D01*
X980672D01*
X983353Y738858D01*
X985756Y740245D01*
X987718Y742208D01*
X989106Y744611D01*
X989824Y747292D01*
Y747410D01*
D02*
G37*
G36*
X978014D02*
X968744D01*
Y747292D01*
X969463Y744611D01*
X970850Y742208D01*
X972813Y740245D01*
X975216Y738858D01*
X977897Y738139D01*
X978014D01*
Y747410D01*
D02*
G37*
G36*
X687370Y742656D02*
Y737496D01*
X692530D01*
X692194Y738750D01*
X691333Y740241D01*
X690116Y741459D01*
X688624Y742320D01*
X687370Y742656D01*
D02*
G37*
G36*
X684830D02*
X683576Y742320D01*
X682084Y741459D01*
X680867Y740241D01*
X680006Y738750D01*
X679670Y737496D01*
X684830D01*
Y742656D01*
D02*
G37*
%LPD*%
G36*
X852271Y939486D02*
X852421Y939384D01*
X852592Y939294D01*
X852786Y939216D01*
X853000Y939150D01*
X853237Y939096D01*
X853495Y939054D01*
X853774Y939024D01*
X854398Y939000D01*
Y936000D01*
X854075Y935994D01*
X853495Y935946D01*
X853237Y935904D01*
X853000Y935850D01*
X852786Y935784D01*
X852592Y935706D01*
X852421Y935616D01*
X852271Y935514D01*
X852142Y935400D01*
Y939600D01*
X852271Y939486D01*
D02*
G37*
G36*
X857531Y934500D02*
X857501Y934785D01*
X857411Y935040D01*
X857261Y935265D01*
X857050Y935460D01*
X856780Y935625D01*
X856451Y935760D01*
X856060Y935865D01*
X855611Y935940D01*
X855100Y935985D01*
X854530Y936000D01*
Y939000D01*
X855100Y939015D01*
X855611Y939060D01*
X856060Y939135D01*
X856451Y939240D01*
X856780Y939375D01*
X857050Y939540D01*
X857261Y939735D01*
X857411Y939960D01*
X857501Y940215D01*
X857531Y940500D01*
Y934500D01*
D02*
G37*
G36*
X887000Y931230D02*
X886581Y931080D01*
X886210Y930831D01*
X885889Y930480D01*
X885617Y930031D01*
X885395Y929481D01*
X885222Y928830D01*
X885099Y928081D01*
X885025Y927231D01*
X885000Y926281D01*
X880000D01*
X879975Y927231D01*
X879901Y928081D01*
X879778Y928830D01*
X879605Y929481D01*
X879383Y930031D01*
X879111Y930480D01*
X878790Y930831D01*
X878419Y931080D01*
X878000Y931230D01*
X877531Y931281D01*
X887469D01*
X887000Y931230D01*
D02*
G37*
G36*
X885050Y904550D02*
X885200Y903700D01*
X885450Y902950D01*
X885800Y902300D01*
X886250Y901750D01*
X886800Y901300D01*
X887450Y900950D01*
X888200Y900700D01*
X889050Y900550D01*
X890000Y900500D01*
Y895500D01*
X889050Y895450D01*
X888200Y895300D01*
X887450Y895050D01*
X886800Y894700D01*
X886250Y894250D01*
X885800Y893700D01*
X885450Y893050D01*
X885200Y892300D01*
X885050Y891450D01*
X885000Y890500D01*
X883776D01*
X883135Y889208D01*
X881865D01*
X881224Y890500D01*
X880000D01*
X879950Y891450D01*
X879800Y892300D01*
X879550Y893050D01*
X879200Y893700D01*
X878750Y894250D01*
X878200Y894700D01*
X877550Y895050D01*
X876800Y895300D01*
X876536Y895347D01*
X876020Y895265D01*
X875470Y895133D01*
X875020Y894971D01*
X874669Y894780D01*
X874419Y894559D01*
X874269Y894310D01*
X874220Y894031D01*
Y901970D01*
X874269Y901690D01*
X874419Y901441D01*
X874669Y901220D01*
X875020Y901029D01*
X875470Y900867D01*
X876020Y900735D01*
X876536Y900653D01*
X876800Y900700D01*
X877550Y900950D01*
X878200Y901300D01*
X878750Y901750D01*
X879200Y902300D01*
X879550Y902950D01*
X879800Y903700D01*
X879950Y904550D01*
X880000Y905500D01*
X885000D01*
X885050Y904550D01*
D02*
G37*
G36*
X860780Y894031D02*
X860731Y894307D01*
X860581Y894555D01*
X860331Y894773D01*
X859980Y894963D01*
X859530Y895123D01*
X858980Y895254D01*
X858331Y895356D01*
X857580Y895429D01*
X856086Y895478D01*
X855770Y895473D01*
X854169Y895354D01*
X853520Y895250D01*
X852970Y895117D01*
X852520Y894954D01*
X852169Y894761D01*
X851919Y894539D01*
X851769Y894287D01*
X851720Y894006D01*
Y901945D01*
X851769Y901668D01*
X851919Y901420D01*
X852169Y901201D01*
X852520Y901012D01*
X852970Y900852D01*
X853520Y900721D01*
X854169Y900619D01*
X854920Y900546D01*
X856414Y900497D01*
X856730Y900502D01*
X858331Y900621D01*
X858980Y900725D01*
X859530Y900858D01*
X859980Y901021D01*
X860331Y901214D01*
X860581Y901436D01*
X860731Y901688D01*
X860780Y901970D01*
Y894031D01*
D02*
G37*
G36*
X944656Y917541D02*
X946692Y916697D01*
X947794D01*
Y895509D01*
X922725D01*
X922239Y896682D01*
X924142Y898586D01*
X943876Y918320D01*
X944656Y917541D01*
D02*
G37*
G36*
X827520Y900880D02*
X827670Y900800D01*
X827919Y900730D01*
X828270Y900669D01*
X828719Y900617D01*
X830669Y900519D01*
X832469Y900500D01*
Y895500D01*
X831519Y895495D01*
X827919Y895270D01*
X827670Y895200D01*
X827520Y895120D01*
X827469Y895031D01*
Y900969D01*
X827520Y900880D01*
D02*
G37*
G36*
X838280Y894006D02*
X838231Y894289D01*
X838081Y894544D01*
X837831Y894768D01*
X837480Y894962D01*
X837030Y895126D01*
X836480Y895261D01*
X835831Y895366D01*
X835080Y895440D01*
X833280Y895500D01*
Y900500D01*
X834230Y900514D01*
X835831Y900630D01*
X836480Y900731D01*
X837030Y900861D01*
X837480Y901020D01*
X837831Y901208D01*
X838081Y901424D01*
X838231Y901670D01*
X838280Y901945D01*
Y894006D01*
D02*
G37*
G36*
X778830Y870245D02*
X778229Y869493D01*
X777699Y868713D01*
X777239Y867904D01*
X776850Y867065D01*
X776532Y866197D01*
X776284Y865299D01*
X776108Y864372D01*
X776002Y863416D01*
X775966Y862431D01*
X773466Y859931D01*
Y859317D01*
X772852D01*
X770966Y857431D01*
X770943Y858357D01*
X770871Y859136D01*
X770837Y859317D01*
X763733D01*
X762673Y860377D01*
X763159Y861550D01*
X766550D01*
X772293Y867293D01*
X772691Y867128D01*
X773466Y868466D01*
X779502Y870966D01*
X778830Y870245D01*
D02*
G37*
G36*
X775003Y797569D02*
X775108Y795924D01*
X775147Y795720D01*
X775192Y795557D01*
X775243Y795436D01*
X775300Y795357D01*
X769700D01*
X769757Y795436D01*
X769808Y795557D01*
X769853Y795720D01*
X769892Y795924D01*
X769925Y796170D01*
X769973Y796786D01*
X770000Y798023D01*
X775000D01*
X775003Y797569D01*
D02*
G37*
G36*
X779666Y920500D02*
X779411Y920411D01*
X779186Y920260D01*
X778991Y920051D01*
X778826Y919781D01*
X778691Y919451D01*
X778599Y919108D01*
X778610Y919064D01*
X778679Y918844D01*
X778762Y918645D01*
X778857Y918468D01*
X778964Y918311D01*
X779085Y918177D01*
X778473D01*
X778466Y918101D01*
X778451Y917531D01*
X775451D01*
X775436Y918101D01*
X775430Y918177D01*
X774818D01*
X774938Y918311D01*
X775046Y918468D01*
X775141Y918645D01*
X775223Y918844D01*
X775293Y919064D01*
X775303Y919108D01*
X775211Y919451D01*
X775076Y919781D01*
X774911Y920051D01*
X774716Y920260D01*
X774491Y920411D01*
X774236Y920500D01*
X773951Y920530D01*
X779951D01*
X779666Y920500D01*
D02*
G37*
G36*
X759215D02*
X758960Y920411D01*
X758735Y920260D01*
X758540Y920051D01*
X758375Y919781D01*
X758240Y919451D01*
X758148Y919108D01*
X758158Y919064D01*
X758228Y918844D01*
X758310Y918645D01*
X758406Y918468D01*
X758513Y918311D01*
X758634Y918177D01*
X758022D01*
X758015Y918101D01*
X758000Y917531D01*
X755000D01*
X754985Y918101D01*
X754978Y918177D01*
X754366D01*
X754487Y918311D01*
X754594Y918468D01*
X754689Y918645D01*
X754772Y918844D01*
X754842Y919064D01*
X754852Y919108D01*
X754760Y919451D01*
X754625Y919781D01*
X754460Y920051D01*
X754265Y920260D01*
X754040Y920411D01*
X753785Y920500D01*
X753500Y920530D01*
X759500D01*
X759215Y920500D01*
D02*
G37*
G36*
X737215D02*
X736960Y920411D01*
X736735Y920260D01*
X736540Y920051D01*
X736375Y919781D01*
X736240Y919451D01*
X736148Y919108D01*
X736158Y919064D01*
X736228Y918844D01*
X736311Y918645D01*
X736405Y918468D01*
X736513Y918311D01*
X736634Y918177D01*
X736022D01*
X736015Y918101D01*
X736000Y917531D01*
X733000D01*
X732985Y918101D01*
X732978Y918177D01*
X732366D01*
X732487Y918311D01*
X732595Y918468D01*
X732690Y918645D01*
X732772Y918844D01*
X732842Y919064D01*
X732852Y919108D01*
X732760Y919451D01*
X732625Y919781D01*
X732460Y920051D01*
X732265Y920260D01*
X732040Y920411D01*
X731785Y920500D01*
X731500Y920530D01*
X737500D01*
X737215Y920500D01*
D02*
G37*
G36*
X715215D02*
X714960Y920411D01*
X714735Y920260D01*
X714540Y920051D01*
X714375Y919781D01*
X714240Y919451D01*
X714148Y919108D01*
X714158Y919064D01*
X714228Y918844D01*
X714311Y918645D01*
X714406Y918468D01*
X714513Y918311D01*
X714634Y918177D01*
X714022D01*
X714015Y918101D01*
X714000Y917531D01*
X711000D01*
X710985Y918101D01*
X710978Y918177D01*
X710366D01*
X710487Y918311D01*
X710594Y918468D01*
X710689Y918645D01*
X710772Y918844D01*
X710842Y919064D01*
X710852Y919108D01*
X710760Y919451D01*
X710625Y919781D01*
X710460Y920051D01*
X710265Y920260D01*
X710040Y920411D01*
X709785Y920500D01*
X709500Y920530D01*
X715500D01*
X715215Y920500D01*
D02*
G37*
G36*
X848283Y923959D02*
X848176Y923802D01*
X848081Y923625D01*
X847998Y923426D01*
X847928Y923206D01*
X847871Y922965D01*
X847827Y922703D01*
X847795Y922419D01*
X847773Y921850D01*
X847785Y921375D01*
X847830Y920864D01*
X847905Y920415D01*
X848010Y920024D01*
X848145Y919695D01*
X848310Y919425D01*
X848505Y919214D01*
X848730Y919064D01*
X848985Y918975D01*
X849270Y918944D01*
X843270D01*
X843555Y918975D01*
X843810Y919064D01*
X844035Y919214D01*
X844230Y919425D01*
X844395Y919695D01*
X844530Y920024D01*
X844635Y920415D01*
X844710Y920864D01*
X844755Y921375D01*
X844768Y921878D01*
X844764Y922114D01*
X844713Y922703D01*
X844669Y922965D01*
X844612Y923206D01*
X844542Y923426D01*
X844460Y923625D01*
X844364Y923802D01*
X844257Y923959D01*
X844136Y924093D01*
X848404D01*
X848283Y923959D01*
D02*
G37*
G36*
X770232Y903531D02*
X770182Y903810D01*
X770032Y904060D01*
X769782Y904280D01*
X769432Y904471D01*
X768982Y904633D01*
X768432Y904765D01*
X767782Y904868D01*
X767032Y904941D01*
X766781Y904949D01*
X765669Y904868D01*
X765020Y904765D01*
X764470Y904633D01*
X764019Y904471D01*
X763670Y904280D01*
X763419Y904060D01*
X763270Y903810D01*
X763220Y903531D01*
Y911469D01*
X763270Y911190D01*
X763419Y910940D01*
X763670Y910720D01*
X764019Y910529D01*
X764470Y910367D01*
X765020Y910235D01*
X765669Y910132D01*
X766420Y910059D01*
X766670Y910051D01*
X767782Y910132D01*
X768432Y910235D01*
X768982Y910367D01*
X769432Y910529D01*
X769782Y910720D01*
X770032Y910940D01*
X770182Y911190D01*
X770232Y911469D01*
Y903531D01*
D02*
G37*
G36*
X783721Y911190D02*
X783871Y910940D01*
X784121Y910720D01*
X784471Y910529D01*
X784921Y910367D01*
X785471Y910235D01*
X786121Y910132D01*
X786871Y910059D01*
X788496Y910006D01*
X792081Y910230D01*
X792330Y910301D01*
X792480Y910380D01*
X792531Y910470D01*
Y904530D01*
X792480Y904620D01*
X792330Y904699D01*
X792081Y904770D01*
X791730Y904831D01*
X791281Y904883D01*
X789331Y904981D01*
X788212Y904993D01*
X787721Y904985D01*
X786121Y904868D01*
X785471Y904765D01*
X784921Y904633D01*
X784471Y904471D01*
X784121Y904280D01*
X783871Y904060D01*
X783721Y903810D01*
X783671Y903531D01*
Y911469D01*
X783721Y911190D01*
D02*
G37*
G36*
X761025Y903481D02*
X760600Y903331D01*
X760225Y903081D01*
X759900Y902730D01*
X759625Y902281D01*
X759400Y901730D01*
X759225Y901080D01*
X759100Y900331D01*
X759025Y899481D01*
X759019Y899246D01*
X759025Y899019D01*
X759099Y898169D01*
X759222Y897420D01*
X759395Y896769D01*
X759617Y896219D01*
X759889Y895770D01*
X760210Y895419D01*
X760581Y895170D01*
X761000Y895020D01*
X761469Y894969D01*
X751531D01*
X752000Y895020D01*
X752420Y895170D01*
X752790Y895419D01*
X753111Y895770D01*
X753383Y896219D01*
X753605Y896769D01*
X753778Y897420D01*
X753901Y898169D01*
X753975Y899019D01*
X753981Y899246D01*
X753975Y899481D01*
X753900Y900331D01*
X753775Y901080D01*
X753600Y901730D01*
X753375Y902281D01*
X753100Y902730D01*
X752775Y903081D01*
X752400Y903331D01*
X751975Y903481D01*
X751500Y903531D01*
X761500D01*
X761025Y903481D01*
D02*
G37*
G36*
X825548Y914000D02*
X825293Y913911D01*
X825069Y913761D01*
X824874Y913550D01*
X824708Y913280D01*
X824574Y912951D01*
X824469Y912561D01*
X824393Y912111D01*
X824349Y911611D01*
X824390Y911134D01*
X824435Y910871D01*
X824492Y910630D01*
X824561Y910410D01*
X824644Y910212D01*
X824739Y910034D01*
X824847Y909878D01*
X824967Y909743D01*
X820700D01*
X820820Y909878D01*
X820928Y910034D01*
X821023Y910212D01*
X821105Y910410D01*
X821175Y910630D01*
X821232Y910871D01*
X821276Y911134D01*
X821308Y911417D01*
X821316Y911624D01*
X821273Y912111D01*
X821199Y912561D01*
X821094Y912951D01*
X820958Y913280D01*
X820794Y913550D01*
X820599Y913761D01*
X820374Y913911D01*
X820118Y914000D01*
X819834Y914031D01*
X825834D01*
X825548Y914000D01*
D02*
G37*
G36*
X727781Y903531D02*
X727730Y903810D01*
X727580Y904060D01*
X727330Y904280D01*
X726981Y904471D01*
X726531Y904633D01*
X725981Y904765D01*
X725331Y904868D01*
X724581Y904941D01*
X723258Y904984D01*
X721669Y904868D01*
X721020Y904765D01*
X720470Y904633D01*
X720020Y904471D01*
X719669Y904280D01*
X719419Y904060D01*
X719269Y903810D01*
X719220Y903531D01*
Y911469D01*
X719269Y911190D01*
X719419Y910940D01*
X719669Y910720D01*
X720020Y910529D01*
X720470Y910367D01*
X721020Y910235D01*
X721669Y910132D01*
X722420Y910059D01*
X723742Y910016D01*
X725331Y910132D01*
X725981Y910235D01*
X726531Y910367D01*
X726981Y910529D01*
X727330Y910720D01*
X727580Y910940D01*
X727730Y911190D01*
X727781Y911469D01*
Y903531D01*
D02*
G37*
G36*
X739025Y903481D02*
X738600Y903331D01*
X738225Y903081D01*
X737900Y902730D01*
X737625Y902281D01*
X737400Y901730D01*
X737225Y901080D01*
X737100Y900331D01*
X737025Y899481D01*
X737019Y899246D01*
X737025Y899019D01*
X737099Y898169D01*
X737222Y897420D01*
X737395Y896769D01*
X737617Y896219D01*
X737889Y895770D01*
X738210Y895419D01*
X738580Y895170D01*
X739000Y895020D01*
X739470Y894969D01*
X729530D01*
X730000Y895020D01*
X730419Y895170D01*
X730790Y895419D01*
X731111Y895770D01*
X731383Y896219D01*
X731605Y896769D01*
X731778Y897420D01*
X731901Y898169D01*
X731975Y899019D01*
X731981Y899246D01*
X731975Y899481D01*
X731900Y900331D01*
X731775Y901080D01*
X731600Y901730D01*
X731375Y902281D01*
X731100Y902730D01*
X730775Y903081D01*
X730400Y903331D01*
X729975Y903481D01*
X729500Y903531D01*
X739500D01*
X739025Y903481D01*
D02*
G37*
G36*
X729530Y882250D02*
X729481Y882725D01*
X729331Y883150D01*
X729081Y883525D01*
X728730Y883850D01*
X728280Y884125D01*
X727730Y884350D01*
X727081Y884525D01*
X726330Y884650D01*
X725480Y884725D01*
X725375Y884728D01*
X725269Y884725D01*
X724419Y884650D01*
X723670Y884525D01*
X723019Y884350D01*
X722469Y884125D01*
X722020Y883850D01*
X721669Y883525D01*
X721420Y883150D01*
X721270Y882725D01*
X721219Y882250D01*
Y892250D01*
X721270Y891775D01*
X721420Y891350D01*
X721669Y890975D01*
X722020Y890650D01*
X722469Y890375D01*
X723019Y890150D01*
X723670Y889975D01*
X724419Y889850D01*
X725269Y889775D01*
X725375Y889772D01*
X725480Y889775D01*
X726330Y889850D01*
X727081Y889975D01*
X727730Y890150D01*
X728280Y890375D01*
X728730Y890650D01*
X729081Y890975D01*
X729331Y891350D01*
X729481Y891775D01*
X729530Y892250D01*
Y882250D01*
D02*
G37*
G36*
X677531Y865972D02*
X677494Y866292D01*
X677383Y866579D01*
X677199Y866832D01*
X676941Y867052D01*
X676609Y867237D01*
X676203Y867389D01*
X675724Y867507D01*
X675171Y867592D01*
X674544Y867642D01*
X673843Y867659D01*
Y871659D01*
X674544Y871676D01*
X675171Y871727D01*
X675724Y871811D01*
X676203Y871929D01*
X676609Y872081D01*
X676941Y872266D01*
X677199Y872486D01*
X677383Y872739D01*
X677494Y873026D01*
X677531Y873346D01*
Y865972D01*
D02*
G37*
G36*
X923350Y853957D02*
X923333Y853886D01*
X923318Y853782D01*
X923294Y853471D01*
X923270Y852442D01*
X923269Y852100D01*
X919269D01*
X919169Y853993D01*
X923369D01*
X923350Y853957D01*
D02*
G37*
G36*
X911040Y847471D02*
X909275Y847445D01*
X908571Y851445D01*
X908912Y851447D01*
X910270Y851539D01*
X910381Y851568D01*
X910459Y851601D01*
X910505Y851637D01*
X911040Y847471D01*
D02*
G37*
G36*
X892567Y847005D02*
X892518Y846993D01*
X892448Y846954D01*
X892355Y846890D01*
X892241Y846800D01*
X891765Y846376D01*
X891092Y845719D01*
X888263Y848548D01*
X888508Y848794D01*
X889499Y849904D01*
X889537Y849974D01*
X889549Y850023D01*
X892567Y847005D01*
D02*
G37*
G36*
X918709Y822312D02*
X918607Y822162D01*
X918517Y821990D01*
X918439Y821797D01*
X918373Y821582D01*
X918319Y821346D01*
X918277Y821088D01*
X918247Y820808D01*
X918223Y820185D01*
X915223D01*
X915217Y820507D01*
X915169Y821088D01*
X915127Y821346D01*
X915073Y821582D01*
X915007Y821797D01*
X914929Y821990D01*
X914839Y822162D01*
X914737Y822312D01*
X914623Y822440D01*
X918823D01*
X918709Y822312D01*
D02*
G37*
G36*
X864137Y813704D02*
X864208Y813687D01*
X864313Y813672D01*
X864623Y813648D01*
X865652Y813624D01*
X865994Y813623D01*
Y809623D01*
X864101Y809523D01*
Y813723D01*
X864137Y813704D01*
D02*
G37*
G36*
X918229Y807386D02*
X918277Y806805D01*
X918319Y806547D01*
X918373Y806311D01*
X918439Y806096D01*
X918517Y805903D01*
X918607Y805731D01*
X918709Y805581D01*
X918823Y805453D01*
X914623D01*
X914737Y805581D01*
X914839Y805731D01*
X914929Y805903D01*
X915007Y806096D01*
X915073Y806311D01*
X915127Y806547D01*
X915169Y806805D01*
X915199Y807085D01*
X915223Y807708D01*
X918223D01*
X918229Y807386D01*
D02*
G37*
G36*
X865710Y797081D02*
X865780Y797064D01*
X865885Y797049D01*
X866196Y797025D01*
X867225Y797001D01*
X867567Y797000D01*
Y793000D01*
X865673Y792900D01*
Y797100D01*
X865710Y797081D01*
D02*
G37*
G36*
X842984Y767254D02*
X838784D01*
X838803Y767291D01*
X838820Y767361D01*
X838835Y767466D01*
X838859Y767777D01*
X838883Y768806D01*
X838884Y769148D01*
X842884D01*
X842984Y767254D01*
D02*
G37*
G36*
X843896Y765043D02*
X843934Y764981D01*
X843997Y764896D01*
X844200Y764659D01*
X844911Y763915D01*
X845152Y763672D01*
X842323Y760844D01*
X840914Y762112D01*
X843884Y765082D01*
X843896Y765043D01*
D02*
G37*
G36*
X948171Y743841D02*
X947468Y744526D01*
X946074Y745677D01*
X945384Y746145D01*
X944699Y746542D01*
X944018Y746865D01*
X943341Y747117D01*
X942669Y747298D01*
X942001Y747405D01*
X941338Y747441D01*
Y751441D01*
X942001Y751478D01*
X942669Y751585D01*
X943341Y751766D01*
X944018Y752018D01*
X944699Y752342D01*
X945384Y752738D01*
X946074Y753205D01*
X946769Y753745D01*
X947468Y754358D01*
X948171Y755042D01*
Y743841D01*
D02*
G37*
G36*
X703150Y880230D02*
X702725Y880080D01*
X702350Y879830D01*
X702025Y879481D01*
X701750Y879031D01*
X701525Y878481D01*
X701350Y877831D01*
X701225Y877081D01*
X701193Y876714D01*
X701246Y875919D01*
X701340Y875269D01*
X701461Y874719D01*
X701609Y874269D01*
X701784Y873920D01*
X701985Y873670D01*
X702214Y873520D01*
X702469Y873469D01*
X694530D01*
X694833Y873520D01*
X695105Y873670D01*
X695344Y873920D01*
X695551Y874269D01*
X695726Y874719D01*
X695870Y875269D01*
X695982Y875919D01*
X696061Y876669D01*
X696061Y876670D01*
X696025Y877081D01*
X695900Y877831D01*
X695725Y878481D01*
X695500Y879031D01*
X695225Y879481D01*
X694900Y879830D01*
X694525Y880080D01*
X694100Y880230D01*
X693625Y880281D01*
X703625D01*
X703150Y880230D01*
D02*
G37*
G36*
X702190Y859980D02*
X701941Y859830D01*
X701720Y859581D01*
X701529Y859230D01*
X701367Y858781D01*
X701235Y858231D01*
X701132Y857580D01*
X701059Y856831D01*
X701000Y855031D01*
X696000D01*
X695985Y855981D01*
X695868Y857580D01*
X695765Y858231D01*
X695633Y858781D01*
X695471Y859230D01*
X695280Y859581D01*
X695060Y859830D01*
X694810Y859980D01*
X694530Y860031D01*
X702469D01*
X702190Y859980D01*
D02*
G37*
G36*
X656417Y809414D02*
X656996Y808932D01*
X657590Y808507D01*
X658200Y808138D01*
X658825Y807827D01*
X659465Y807571D01*
X660121Y807373D01*
X660793Y807231D01*
X661480Y807146D01*
X662182Y807118D01*
Y802118D01*
X661480Y802090D01*
X660793Y802005D01*
X660121Y801863D01*
X659465Y801665D01*
X658825Y801410D01*
X658200Y801098D01*
X657590Y800729D01*
X656996Y800304D01*
X656417Y799822D01*
X655854Y799284D01*
Y809952D01*
X656417Y809414D01*
D02*
G37*
D11*
X822833Y907567D02*
Y916833D01*
X823000Y917000D01*
X1006125Y851600D02*
X1033000D01*
X938305Y783780D02*
X1006125Y851600D01*
X867457Y921775D02*
X870700Y925018D01*
Y925538D01*
X867457Y915043D02*
Y921775D01*
X845000Y914975D02*
X846270Y916245D01*
Y926270D01*
X867457Y915043D02*
X867500Y915000D01*
X1077541Y796136D02*
Y878751D01*
X1014982Y890827D02*
X1065465D01*
X1077541Y878751D01*
X1004684Y748680D02*
X1030909Y774904D01*
X1048443D01*
X1072271Y798733D02*
Y856578D01*
X1048443Y774904D02*
X1072271Y798733D01*
X1065237Y863611D02*
X1072271Y856578D01*
X1024435Y863611D02*
X1065237D01*
X1017751Y870295D02*
X1024435Y863611D01*
X1014133Y870295D02*
X1017751D01*
X1013751Y870678D02*
X1014133Y870295D01*
X916723Y803310D02*
Y824583D01*
X756500Y916000D02*
Y924500D01*
X734500Y916000D02*
Y924500D01*
X776951Y916000D02*
Y924500D01*
X712500Y916000D02*
Y924500D01*
X946425Y761500D02*
X1022395Y837470D01*
X913953Y761500D02*
X946425D01*
X1022395Y837470D02*
X1040847D01*
X850000Y937500D02*
X862500D01*
X1030084Y748680D02*
X1077541Y796136D01*
X1040847Y837470D02*
X1040877Y837500D01*
X1044300D01*
X1058400Y851600D01*
D16*
X882500Y937500D02*
D03*
X862500D02*
D03*
D19*
X867500Y915000D02*
D03*
X845000Y914975D02*
D03*
X776951Y924500D02*
D03*
X756500D02*
D03*
X734500D02*
D03*
X712500D02*
D03*
X867500Y898000D02*
D03*
X845000Y897975D02*
D03*
X756500Y907500D02*
D03*
X776951D02*
D03*
X734500D02*
D03*
X712500D02*
D03*
D24*
X681500Y866750D02*
D03*
X698500D02*
D03*
D30*
X698750Y887250D02*
D03*
X715750D02*
D03*
D58*
X650412Y804618D02*
D03*
Y849618D02*
D03*
Y829618D02*
D03*
D65*
X629412Y862118D02*
D03*
Y817118D02*
D03*
D69*
X812816Y750000D02*
X825772D01*
X840884Y765112D01*
X840914Y765081D02*
X856554Y749442D01*
X953884D01*
X866935Y811623D02*
X904757Y849445D01*
X861958Y811623D02*
X866935D01*
X875134Y832590D02*
X892597Y850053D01*
X904757Y849445D02*
X912515D01*
X912897Y849828D01*
X840884Y799416D02*
X874058Y832590D01*
X840884Y765112D02*
Y799416D01*
X874058Y832590D02*
X875134D01*
X863531Y795000D02*
X875000D01*
X921269Y841269D01*
Y856135D01*
X673843Y869659D02*
X679500D01*
X668962Y874540D02*
X673843Y869659D01*
X679500D02*
X681500Y867659D01*
Y866750D02*
Y867659D01*
X668395Y874540D02*
X668962D01*
D70*
X882500Y898000D02*
X923556D01*
X947794Y922237D01*
X882500Y898000D02*
Y937500D01*
Y887929D02*
Y898000D01*
X790000Y885000D02*
X879571D01*
X882500Y887929D01*
X773466Y868466D02*
X790000Y885000D01*
X947794Y870636D02*
X952169Y866261D01*
X959670Y858998D02*
X959940D01*
X952169Y866261D02*
X952408D01*
X959670Y858998D01*
X698500Y842546D02*
Y866750D01*
X686578Y804618D02*
X694630Y812670D01*
Y838676D01*
X698500Y842546D01*
X650412Y804618D02*
X686578D01*
X947794Y870636D02*
Y922237D01*
X867500Y898000D02*
X882500D01*
X845013Y897988D02*
X867500D01*
X845000Y897975D02*
X845013Y897988D01*
X823000Y898000D02*
X844975D01*
X766821Y861821D02*
X773466Y868466D01*
X714895Y861821D02*
X766821D01*
X773466Y846062D02*
Y868466D01*
X772500Y792500D02*
Y845096D01*
X773466Y846062D01*
X756500Y887500D02*
Y907500D01*
X776951D01*
X797000D01*
X734250Y887250D02*
X734500Y887500D01*
Y907500D01*
X712500D02*
X734500D01*
X715750Y887250D02*
X734250D01*
X698625Y887125D02*
X698650Y887150D01*
X698625Y866875D02*
Y887125D01*
X698500Y866750D02*
X698625Y866875D01*
D72*
X629412Y896618D02*
D03*
Y782618D02*
D03*
D73*
X650412Y874618D02*
D03*
D74*
X953884Y749442D02*
D03*
X979284Y748680D02*
D03*
X1004684D02*
D03*
X1030084D02*
D03*
X1033000Y826200D02*
D03*
Y851600D02*
D03*
X1058400Y800800D02*
D03*
Y851600D02*
D03*
Y877000D02*
D03*
Y826200D02*
D03*
X1033000Y800800D02*
D03*
D75*
X1055484Y748680D02*
D03*
X1033000Y877000D02*
D03*
D76*
X1085878Y903250D02*
D03*
X1085955Y773450D02*
D03*
X629412Y925869D02*
D03*
Y753453D02*
D03*
D77*
X812816Y750000D02*
D03*
X867884Y766684D02*
D03*
X837861Y825930D02*
D03*
X939085Y885051D02*
D03*
X861958Y811623D02*
D03*
X840884Y765112D02*
D03*
X959940Y858998D02*
D03*
X938305Y783780D02*
D03*
X863531Y795000D02*
D03*
X921269Y856135D02*
D03*
X791317Y867180D02*
D03*
X916723Y824583D02*
D03*
X912897Y849828D02*
D03*
X972768Y836517D02*
D03*
X850875Y858680D02*
D03*
X916723Y803310D02*
D03*
X947794Y922237D02*
D03*
X714895Y861821D02*
D03*
X773466Y846332D02*
D03*
X913953Y761500D02*
D03*
X850000Y937500D02*
D03*
X1013751Y870678D02*
D03*
X1014402Y890827D02*
D03*
D78*
X892597Y850053D02*
D03*
X822833Y907567D02*
D03*
X893218Y928248D02*
D03*
X821972Y761162D02*
D03*
X812673Y930000D02*
D03*
X870700Y925538D02*
D03*
X846270Y926270D02*
D03*
X1027343Y903250D02*
D03*
X776951Y916000D02*
D03*
X756500D02*
D03*
X734500D02*
D03*
X712500D02*
D03*
X668395Y874540D02*
D03*
X735000Y792500D02*
D03*
D79*
X720298Y799570D02*
D03*
X726500Y782500D02*
D03*
X686100Y736226D02*
D03*
X772500Y792500D02*
D03*
D80*
X1085878Y882692D02*
D03*
X992321Y914046D02*
D03*
X956900Y913856D02*
D03*
X992321Y939894D02*
D03*
X785846Y892500D02*
D03*
X1085955Y796136D02*
D03*
X612068Y765953D02*
D03*
X893178Y883047D02*
D03*
X779730Y762500D02*
D03*
X755730Y817323D02*
D03*
X662500Y766781D02*
D03*
X611912Y912467D02*
D03*
X982321Y930585D02*
D03*
X667500Y793598D02*
D03*
X646912Y738413D02*
D03*
X1066400Y771496D02*
D03*
X671072Y901775D02*
D03*
X1013552Y859600D02*
D03*
X1085878Y933145D02*
D03*
X965000Y930585D02*
D03*
X975871Y913856D02*
D03*
X1078502Y748152D02*
D03*
X829109Y941104D02*
D03*
X697500Y910478D02*
D03*
X870250Y783750D02*
D03*
X787500Y795485D02*
D03*
X718500Y765000D02*
D03*
X947716Y939894D02*
D03*
X1039775D02*
D03*
X697500Y942500D02*
D03*
X665000D02*
D03*
X899428Y862680D02*
D03*
X798500Y941770D02*
D03*
X938212Y772734D02*
D03*
X654551Y918745D02*
D03*
D81*
X699925Y836483D02*
D03*
D82*
X698500Y843000D02*
D03*
D83*
X797000Y907500D02*
D03*
X823000Y898000D02*
D03*
Y917000D02*
D03*
D84*
X756500Y887500D02*
D03*
X734500D02*
D03*
M02*
