G04*
G04 #@! TF.GenerationSoftware,Altium Limited,Altium Designer,26.5.0 (11)*
G04*
G04 Layer_Color=8421504*
G04 Board_Origin=0|0*
%FSLAX44Y44*%
%MOMM*%
G71*
G04*
G04 #@! TF.SameCoordinates,1F41E012-7D3C-4DE9-B48C-88F2C9379496*
G04*
G04*
G04 #@! TF.FilePolarity,Positive*
G04*
G01*
G75*
%ADD16R,1.0000X1.2500*%
%ADD17R,0.5000X1.0000*%
G04:AMPARAMS|DCode=18|XSize=0.5mm|YSize=1mm|CornerRadius=0.125mm|HoleSize=0mm|Usage=FLASHONLY|Rotation=180.000|XOffset=0mm|YOffset=0mm|HoleType=Round|Shape=RoundedRectangle|*
%AMROUNDEDRECTD18*
21,1,0.5000,0.7500,0,0,180.0*
21,1,0.2500,1.0000,0,0,180.0*
1,1,0.2500,-0.1250,0.3750*
1,1,0.2500,0.1250,0.3750*
1,1,0.2500,0.1250,-0.3750*
1,1,0.2500,-0.1250,-0.3750*
%
%ADD18ROUNDEDRECTD18*%
%ADD19R,1.3500X0.8000*%
%ADD20R,0.8500X0.7000*%
G04:AMPARAMS|DCode=21|XSize=0.7mm|YSize=0.85mm|CornerRadius=0.175mm|HoleSize=0mm|Usage=FLASHONLY|Rotation=270.000|XOffset=0mm|YOffset=0mm|HoleType=Round|Shape=RoundedRectangle|*
%AMROUNDEDRECTD21*
21,1,0.7000,0.5000,0,0,270.0*
21,1,0.3500,0.8500,0,0,270.0*
1,1,0.3500,-0.2500,-0.1750*
1,1,0.3500,-0.2500,0.1750*
1,1,0.3500,0.2500,0.1750*
1,1,0.3500,0.2500,-0.1750*
%
%ADD21ROUNDEDRECTD21*%
%ADD22R,1.3000X0.7000*%
%ADD23R,1.4750X0.4500*%
%ADD24R,0.8000X1.3500*%
%ADD25R,1.4000X1.2000*%
%ADD26R,1.2500X1.0000*%
%ADD27R,0.9900X0.6900*%
%ADD28R,0.9500X1.7000*%
%ADD29R,1.2000X1.7000*%
%ADD30R,1.1000X1.4000*%
G04:AMPARAMS|DCode=31|XSize=1.4mm|YSize=1.2mm|CornerRadius=0.18mm|HoleSize=0mm|Usage=FLASHONLY|Rotation=180.000|XOffset=0mm|YOffset=0mm|HoleType=Round|Shape=RoundedRectangle|*
%AMROUNDEDRECTD31*
21,1,1.4000,0.8400,0,0,180.0*
21,1,1.0400,1.2000,0,0,180.0*
1,1,0.3600,-0.5200,0.4200*
1,1,0.3600,0.5200,0.4200*
1,1,0.3600,0.5200,-0.4200*
1,1,0.3600,-0.5200,-0.4200*
%
%ADD31ROUNDEDRECTD31*%
G04:AMPARAMS|DCode=32|XSize=0.5mm|YSize=1mm|CornerRadius=0.125mm|HoleSize=0mm|Usage=FLASHONLY|Rotation=270.000|XOffset=0mm|YOffset=0mm|HoleType=Round|Shape=RoundedRectangle|*
%AMROUNDEDRECTD32*
21,1,0.5000,0.7500,0,0,270.0*
21,1,0.2500,1.0000,0,0,270.0*
1,1,0.2500,-0.3750,-0.1250*
1,1,0.2500,-0.3750,0.1250*
1,1,0.2500,0.3750,0.1250*
1,1,0.2500,0.3750,-0.1250*
%
%ADD32ROUNDEDRECTD32*%
%ADD33R,1.6000X1.0000*%
G04:AMPARAMS|DCode=34|XSize=0.99mm|YSize=0.69mm|CornerRadius=0.1725mm|HoleSize=0mm|Usage=FLASHONLY|Rotation=0.000|XOffset=0mm|YOffset=0mm|HoleType=Round|Shape=RoundedRectangle|*
%AMROUNDEDRECTD34*
21,1,0.9900,0.3450,0,0,0.0*
21,1,0.6450,0.6900,0,0,0.0*
1,1,0.3450,0.3225,-0.1725*
1,1,0.3450,-0.3225,-0.1725*
1,1,0.3450,-0.3225,0.1725*
1,1,0.3450,0.3225,0.1725*
%
%ADD34ROUNDEDRECTD34*%
%ADD35R,1.0000X0.5000*%
D16*
X830884Y811623D02*
D03*
X850884D02*
D03*
X830884Y777678D02*
D03*
X850884D02*
D03*
X1002159Y808430D02*
D03*
X982159D02*
D03*
X830884Y795000D02*
D03*
X850884D02*
D03*
X982159Y825000D02*
D03*
Y791287D02*
D03*
X982159Y774320D02*
D03*
X686000Y750000D02*
D03*
X982141Y870636D02*
D03*
X982321Y890827D02*
D03*
X704925Y895525D02*
D03*
X687500Y930000D02*
D03*
X704925Y877000D02*
D03*
X1002159Y774320D02*
D03*
X1002159Y825000D02*
D03*
X1002141Y870636D02*
D03*
X1002159Y791287D02*
D03*
X1048400Y922316D02*
D03*
X707500Y930000D02*
D03*
X724925Y877000D02*
D03*
X1068400Y922316D02*
D03*
X1002321Y890827D02*
D03*
X724925Y895525D02*
D03*
X706000Y750000D02*
D03*
D17*
X834834Y930000D02*
D03*
X834830Y750000D02*
D03*
D18*
X821833Y930000D02*
D03*
X821830Y750000D02*
D03*
D19*
X850958Y833180D02*
D03*
Y850180D02*
D03*
X871919Y915000D02*
D03*
X850958Y884180D02*
D03*
X960000Y831500D02*
D03*
X871919Y898000D02*
D03*
X850958Y867180D02*
D03*
X960000Y848500D02*
D03*
D20*
X745925Y888500D02*
D03*
D21*
Y873500D02*
D03*
D22*
X732500Y808123D02*
D03*
Y846223D02*
D03*
Y833777D02*
D03*
X787500Y833523D02*
D03*
Y820823D02*
D03*
Y808123D02*
D03*
Y846223D02*
D03*
X732500Y820823D02*
D03*
D23*
X935570Y817180D02*
D03*
X876810Y856180D02*
D03*
Y862680D02*
D03*
X935570Y856180D02*
D03*
Y849680D02*
D03*
Y830180D02*
D03*
Y810680D02*
D03*
X876810D02*
D03*
Y817180D02*
D03*
Y823680D02*
D03*
Y830180D02*
D03*
Y836680D02*
D03*
X935570Y862680D02*
D03*
Y869180D02*
D03*
X876810Y849680D02*
D03*
Y869180D02*
D03*
Y843180D02*
D03*
X935570Y823680D02*
D03*
Y843180D02*
D03*
Y836680D02*
D03*
D24*
X850884Y753750D02*
D03*
X867884D02*
D03*
X1041900Y903250D02*
D03*
X928500Y885051D02*
D03*
X744000Y792500D02*
D03*
X911500Y885051D02*
D03*
X761000Y792500D02*
D03*
X1058900Y903250D02*
D03*
D25*
X809388Y850180D02*
D03*
X831388D02*
D03*
X809388Y867180D02*
D03*
D26*
X893178Y916500D02*
D03*
X926446Y792734D02*
D03*
X905893Y792734D02*
D03*
X887500Y785000D02*
D03*
X893178Y896500D02*
D03*
X887500Y765000D02*
D03*
X905893Y772734D02*
D03*
X926446Y772734D02*
D03*
D27*
X710450Y839618D02*
D03*
X684550D02*
D03*
Y830118D02*
D03*
Y849118D02*
D03*
X710450D02*
D03*
D28*
X708500Y802500D02*
D03*
X681500D02*
D03*
D29*
X713500Y782500D02*
D03*
X681500D02*
D03*
D30*
X911500Y922316D02*
D03*
X1008740D02*
D03*
X928500D02*
D03*
X1025740D02*
D03*
D31*
X831388Y867180D02*
D03*
D32*
X765375Y875250D02*
D03*
D33*
X726500Y930000D02*
D03*
X798500D02*
D03*
X798500Y750000D02*
D03*
X726500D02*
D03*
D34*
X710450Y830118D02*
D03*
D35*
X765375Y888250D02*
D03*
M02*
