G04*
G04 #@! TF.GenerationSoftware,Altium Limited,Altium Designer,26.5.0 (11)*
G04*
G04 Layer_Physical_Order=1*
G04 Layer_Color=255*
G04 Board_Origin=0|0*
%FSLAX44Y44*%
%MOMM*%
G71*
G04*
G04 #@! TF.SameCoordinates,1F41E012-7D3C-4DE9-B48C-88F2C9379496*
G04*
G04*
G04 #@! TF.FilePolarity,Positive*
G04*
G01*
G75*
%ADD11C,0.3000*%
%ADD16R,1.0000X1.2500*%
%ADD17R,0.5000X1.0000*%
G04:AMPARAMS|DCode=18|XSize=0.5mm|YSize=1mm|CornerRadius=0.125mm|HoleSize=0mm|Usage=FLASHONLY|Rotation=180.000|XOffset=0mm|YOffset=0mm|HoleType=Round|Shape=RoundedRectangle|*
%AMROUNDEDRECTD18*
21,1,0.5000,0.7500,0,0,180.0*
21,1,0.2500,1.0000,0,0,180.0*
1,1,0.2500,-0.1250,0.3750*
1,1,0.2500,0.1250,0.3750*
1,1,0.2500,0.1250,-0.3750*
1,1,0.2500,-0.1250,-0.3750*
%
%ADD18ROUNDEDRECTD18*%
%ADD19R,1.3500X0.8000*%
%ADD20R,0.8500X0.7000*%
G04:AMPARAMS|DCode=21|XSize=0.7mm|YSize=0.85mm|CornerRadius=0.175mm|HoleSize=0mm|Usage=FLASHONLY|Rotation=270.000|XOffset=0mm|YOffset=0mm|HoleType=Round|Shape=RoundedRectangle|*
%AMROUNDEDRECTD21*
21,1,0.7000,0.5000,0,0,270.0*
21,1,0.3500,0.8500,0,0,270.0*
1,1,0.3500,-0.2500,-0.1750*
1,1,0.3500,-0.2500,0.1750*
1,1,0.3500,0.2500,0.1750*
1,1,0.3500,0.2500,-0.1750*
%
%ADD21ROUNDEDRECTD21*%
%ADD22R,1.3000X0.7000*%
%ADD23R,1.4750X0.4500*%
%ADD24R,0.8000X1.3500*%
%ADD25R,1.4000X1.2000*%
%ADD26R,1.2500X1.0000*%
%ADD27R,0.9900X0.6900*%
%ADD28R,0.9500X1.7000*%
%ADD29R,1.2000X1.7000*%
%ADD30R,1.1000X1.4000*%
G04:AMPARAMS|DCode=31|XSize=1.4mm|YSize=1.2mm|CornerRadius=0.18mm|HoleSize=0mm|Usage=FLASHONLY|Rotation=180.000|XOffset=0mm|YOffset=0mm|HoleType=Round|Shape=RoundedRectangle|*
%AMROUNDEDRECTD31*
21,1,1.4000,0.8400,0,0,180.0*
21,1,1.0400,1.2000,0,0,180.0*
1,1,0.3600,-0.5200,0.4200*
1,1,0.3600,0.5200,0.4200*
1,1,0.3600,0.5200,-0.4200*
1,1,0.3600,-0.5200,-0.4200*
%
%ADD31ROUNDEDRECTD31*%
G04:AMPARAMS|DCode=32|XSize=0.5mm|YSize=1mm|CornerRadius=0.125mm|HoleSize=0mm|Usage=FLASHONLY|Rotation=270.000|XOffset=0mm|YOffset=0mm|HoleType=Round|Shape=RoundedRectangle|*
%AMROUNDEDRECTD32*
21,1,0.5000,0.7500,0,0,270.0*
21,1,0.2500,1.0000,0,0,270.0*
1,1,0.2500,-0.3750,-0.1250*
1,1,0.2500,-0.3750,0.1250*
1,1,0.2500,0.3750,0.1250*
1,1,0.2500,0.3750,-0.1250*
%
%ADD32ROUNDEDRECTD32*%
%ADD33R,1.6000X1.0000*%
G04:AMPARAMS|DCode=34|XSize=0.99mm|YSize=0.69mm|CornerRadius=0.1725mm|HoleSize=0mm|Usage=FLASHONLY|Rotation=0.000|XOffset=0mm|YOffset=0mm|HoleType=Round|Shape=RoundedRectangle|*
%AMROUNDEDRECTD34*
21,1,0.9900,0.3450,0,0,0.0*
21,1,0.6450,0.6900,0,0,0.0*
1,1,0.3450,0.3225,-0.1725*
1,1,0.3450,-0.3225,-0.1725*
1,1,0.3450,-0.3225,0.1725*
1,1,0.3450,0.3225,0.1725*
%
%ADD34ROUNDEDRECTD34*%
%ADD35R,1.0000X0.5000*%
%ADD58C,1.5240*%
%ADD65C,1.0000*%
%ADD69C,0.4000*%
%ADD70C,0.5000*%
%ADD71C,0.3810*%
%ADD72O,3.5000X2.0000*%
%ADD73O,1.4000X1.5240*%
%ADD74C,1.6000*%
%ADD75R,1.6000X1.6000*%
%ADD76C,2.5000*%
%ADD77C,0.6000*%
%ADD78C,0.6096*%
%ADD79C,0.8000*%
%ADD80C,0.7112*%
%ADD81C,0.3050*%
%ADD82C,0.3048*%
G36*
X847858Y935400D02*
X847729Y935514D01*
X847579Y935616D01*
X847408Y935706D01*
X847214Y935784D01*
X847000Y935850D01*
X846763Y935904D01*
X846505Y935946D01*
X846226Y935976D01*
X845602Y936000D01*
Y939000D01*
X845925Y939006D01*
X846505Y939054D01*
X846763Y939096D01*
X847000Y939150D01*
X847214Y939216D01*
X847408Y939294D01*
X847579Y939384D01*
X847729Y939486D01*
X847858Y939600D01*
Y935400D01*
D02*
G37*
G36*
X1043430Y917316D02*
X1043381Y917791D01*
X1043231Y918216D01*
X1042980Y918591D01*
X1042630Y918916D01*
X1042180Y919191D01*
X1041630Y919416D01*
X1040980Y919591D01*
X1040230Y919716D01*
X1039380Y919791D01*
X1038430Y919816D01*
Y924816D01*
X1039380Y924840D01*
X1040230Y924915D01*
X1040980Y925041D01*
X1041630Y925216D01*
X1042180Y925441D01*
X1042630Y925715D01*
X1042980Y926040D01*
X1043231Y926415D01*
X1043380Y926841D01*
X1043430Y927316D01*
Y917316D01*
D02*
G37*
G36*
X1031260Y926841D02*
X1031409Y926415D01*
X1031659Y926040D01*
X1032009Y925715D01*
X1032459Y925441D01*
X1033009Y925216D01*
X1033660Y925041D01*
X1034409Y924915D01*
X1035259Y924840D01*
X1036209Y924816D01*
Y919816D01*
X1035259Y919791D01*
X1034409Y919716D01*
X1033660Y919591D01*
X1033009Y919416D01*
X1032459Y919191D01*
X1032009Y918916D01*
X1031659Y918591D01*
X1031409Y918216D01*
X1031260Y917791D01*
X1031209Y917316D01*
Y927316D01*
X1031260Y926841D01*
D02*
G37*
G36*
X1072020Y916056D02*
X1071680Y915936D01*
X1071380Y915736D01*
X1071120Y915456D01*
X1070900Y915096D01*
X1070720Y914656D01*
X1070580Y914136D01*
X1070480Y913536D01*
X1070420Y912856D01*
X1070400Y912096D01*
X1066400D01*
X1066380Y912856D01*
X1066320Y913536D01*
X1066220Y914136D01*
X1066080Y914656D01*
X1065900Y915096D01*
X1065680Y915456D01*
X1065420Y915736D01*
X1065120Y915936D01*
X1064780Y916056D01*
X1064400Y916096D01*
X1072400D01*
X1072020Y916056D01*
D02*
G37*
G36*
X1061415Y914019D02*
X1061532Y912420D01*
X1061635Y911769D01*
X1061767Y911219D01*
X1061929Y910770D01*
X1062120Y910419D01*
X1062340Y910170D01*
X1062590Y910020D01*
X1062869Y909969D01*
X1054930D01*
X1055210Y910020D01*
X1055460Y910170D01*
X1055680Y910419D01*
X1055871Y910770D01*
X1056033Y911219D01*
X1056165Y911769D01*
X1056268Y912420D01*
X1056341Y913169D01*
X1056400Y914969D01*
X1061400D01*
X1061415Y914019D01*
D02*
G37*
G36*
X1062543Y896480D02*
X1062251Y896330D01*
X1061992Y896080D01*
X1061769Y895731D01*
X1061580Y895281D01*
X1061425Y894731D01*
X1061305Y894081D01*
X1061219Y893331D01*
X1061167Y892480D01*
X1061150Y891531D01*
X1056150D01*
X1056138Y892480D01*
X1055955Y894731D01*
X1055845Y895281D01*
X1055711Y895731D01*
X1055552Y896080D01*
X1055369Y896330D01*
X1055162Y896480D01*
X1054930Y896531D01*
X1062869D01*
X1062543Y896480D01*
D02*
G37*
G36*
X620171Y886799D02*
X619578Y886879D01*
X618979Y886881D01*
X618374Y886806D01*
X617764Y886655D01*
X617147Y886427D01*
X616524Y886123D01*
X615895Y885742D01*
X615261Y885284D01*
X614620Y884749D01*
X613973Y884138D01*
X610176Y887411D01*
X610781Y888052D01*
X611305Y888681D01*
X611745Y889299D01*
X612103Y889904D01*
X612378Y890498D01*
X612571Y891079D01*
X612681Y891649D01*
X612708Y892206D01*
X612653Y892752D01*
X612515Y893286D01*
X620171Y886799D01*
D02*
G37*
G36*
X1061150Y889313D02*
X1061180Y888593D01*
X1061271Y887883D01*
X1061422Y887182D01*
X1061634Y886491D01*
X1061906Y885808D01*
X1062239Y885135D01*
X1062633Y884471D01*
X1063086Y883817D01*
X1063601Y883171D01*
X1064176Y882535D01*
X1052981Y882885D01*
X1053583Y883476D01*
X1054122Y884083D01*
X1054597Y884704D01*
X1055009Y885340D01*
X1055358Y885992D01*
X1055643Y886659D01*
X1055865Y887341D01*
X1056023Y888038D01*
X1056118Y888750D01*
X1056150Y889477D01*
X1061150Y889313D01*
D02*
G37*
G36*
X659795Y947575D02*
X660281Y946402D01*
X659832Y945953D01*
X658928Y943770D01*
X671072D01*
X670168Y945953D01*
X669719Y946402D01*
X670205Y947575D01*
X692295D01*
X692781Y946402D01*
X692332Y945953D01*
X691428Y943770D01*
X703572D01*
X702668Y945953D01*
X702219Y946402D01*
X702705Y947575D01*
X793888Y947575D01*
X794414Y946305D01*
X793332Y945223D01*
X792428Y943040D01*
X804572D01*
X803668Y945223D01*
X802586Y946305D01*
X803112Y947575D01*
X825483D01*
X825735Y946305D01*
X825656Y946272D01*
X823942Y944557D01*
X823037Y942374D01*
X829109D01*
Y941104D01*
X830379D01*
Y934970D01*
X831064Y934513D01*
Y923730D01*
X838604D01*
Y934676D01*
X845442D01*
X845549Y934626D01*
X846126Y934604D01*
X846321Y934583D01*
X846499Y934554D01*
X846644Y934521D01*
X846754Y934487D01*
X846830Y934457D01*
X846871Y934435D01*
X846883Y934427D01*
X846945Y934372D01*
X847166Y934296D01*
X847581Y933880D01*
X849151Y933230D01*
X850849D01*
X852419Y933880D01*
X853620Y935081D01*
X854270Y936651D01*
Y938349D01*
X853620Y939919D01*
X852419Y941120D01*
X850849Y941770D01*
X849151D01*
X847581Y941120D01*
X847166Y940704D01*
X846945Y940628D01*
X846883Y940573D01*
X846871Y940565D01*
X846830Y940543D01*
X846754Y940513D01*
X846644Y940479D01*
X846499Y940446D01*
X846338Y940419D01*
X845855Y940380D01*
X845576Y940374D01*
X845462Y940324D01*
X837334D01*
X837333Y940324D01*
X836476Y940154D01*
X835644Y940591D01*
X835206Y940937D01*
Y942317D01*
X834277Y944557D01*
X832563Y946272D01*
X832484Y946305D01*
X832736Y947575D01*
X1072475Y947575D01*
X1074609Y947575D01*
X1078840Y947018D01*
X1082962Y945913D01*
X1086905Y944280D01*
X1090601Y942147D01*
X1093987Y939549D01*
X1097005Y936531D01*
X1099603Y933145D01*
X1101737Y929449D01*
X1103371Y925507D01*
X1104475Y921384D01*
X1105033Y917153D01*
X1105033Y915019D01*
X1105033Y915017D01*
X1105033Y915015D01*
X1105056Y893335D01*
X1093244Y881497D01*
X1091974Y882022D01*
Y883904D01*
X1091046Y886145D01*
X1089792Y887399D01*
X1090192Y888773D01*
X1090265Y888788D01*
X1093002Y889922D01*
X1095466Y891568D01*
X1097561Y893663D01*
X1099206Y896126D01*
X1100340Y898863D01*
X1100918Y901769D01*
Y901980D01*
X1085878D01*
Y903250D01*
X1084608D01*
Y918290D01*
X1084397D01*
X1081491Y917712D01*
X1078754Y916578D01*
X1076291Y914932D01*
X1075789Y914430D01*
X1074670Y915107D01*
Y929836D01*
X1062130D01*
Y922318D01*
X1060860Y921792D01*
X1057618Y925034D01*
X1056371Y925867D01*
X1054900Y926159D01*
X1054670Y927402D01*
Y929836D01*
X1042130D01*
Y927582D01*
X1042063Y927459D01*
X1042030Y927145D01*
X1041991Y927035D01*
X1041926Y926938D01*
X1041796Y926817D01*
X1041558Y926671D01*
X1041190Y926520D01*
X1040688Y926385D01*
X1040057Y926280D01*
X1039302Y926214D01*
X1038394Y926190D01*
X1038326Y926159D01*
X1036314D01*
X1036246Y926190D01*
X1035338Y926214D01*
X1034583Y926280D01*
X1033952Y926385D01*
X1033450Y926520D01*
X1033082Y926671D01*
X1032844Y926817D01*
X1032713Y926938D01*
X1032649Y927035D01*
X1032610Y927145D01*
X1032577Y927459D01*
X1032510Y927582D01*
Y930585D01*
X1018970D01*
Y914046D01*
X1032510D01*
Y917049D01*
X1032577Y917172D01*
X1032610Y917486D01*
X1032648Y917596D01*
X1032713Y917693D01*
X1032844Y917814D01*
X1033082Y917960D01*
X1033450Y918111D01*
X1033952Y918246D01*
X1034583Y918351D01*
X1035338Y918418D01*
X1036246Y918441D01*
X1036314Y918472D01*
X1038326D01*
X1038394Y918441D01*
X1039302Y918418D01*
X1040057Y918351D01*
X1040688Y918246D01*
X1041190Y918111D01*
X1041558Y917960D01*
X1041796Y917814D01*
X1041926Y917693D01*
X1041991Y917596D01*
X1042030Y917486D01*
X1042063Y917172D01*
X1042130Y917049D01*
Y914796D01*
X1053748D01*
X1054982Y913655D01*
X1054969Y913259D01*
X1054904Y912594D01*
X1054816Y912038D01*
X1054714Y911614D01*
X1054613Y911334D01*
X1054578Y911270D01*
X1053630D01*
Y910149D01*
X1053556Y909969D01*
X1053605Y909852D01*
X1053577Y909727D01*
X1053630Y909645D01*
Y896883D01*
X1053587Y896821D01*
X1053614Y896671D01*
X1053556Y896531D01*
X1053630Y896351D01*
Y895230D01*
X1054426D01*
X1054510Y894949D01*
X1054591Y894539D01*
X1054764Y892416D01*
X1054775Y891513D01*
X1054806Y891441D01*
Y889600D01*
X1054777Y889537D01*
X1054748Y888871D01*
X1054669Y888282D01*
X1054538Y887706D01*
X1054355Y887143D01*
X1054117Y886588D01*
X1053824Y886039D01*
X1053473Y885496D01*
X1053061Y884958D01*
X1052587Y884425D01*
X1052018Y883866D01*
X1051916Y883626D01*
X1050982Y882692D01*
X1049762Y880578D01*
X1049130Y878220D01*
Y875780D01*
X1049762Y873422D01*
X1050982Y871308D01*
X1052708Y869582D01*
X1054822Y868362D01*
X1057180Y867730D01*
X1059620D01*
X1061978Y868362D01*
X1064092Y869582D01*
X1065066Y870556D01*
X1066336Y870030D01*
Y864251D01*
X1065023Y862939D01*
X1064939Y862909D01*
X1064499Y862514D01*
X1064067Y862202D01*
X1063581Y861921D01*
X1063038Y861674D01*
X1062436Y861460D01*
X1061773Y861282D01*
X1061066Y861146D01*
X1059387Y860987D01*
X1058461Y860974D01*
X1058219Y860870D01*
X1057180D01*
X1054822Y860238D01*
X1052708Y859018D01*
X1050982Y857292D01*
X1049762Y855178D01*
X1049130Y852820D01*
Y850380D01*
X1049762Y848022D01*
X1050982Y845908D01*
X1052708Y844182D01*
X1054822Y842962D01*
X1057180Y842330D01*
X1059620D01*
X1061978Y842962D01*
X1064092Y844182D01*
X1065818Y845908D01*
X1067038Y848022D01*
X1067670Y850380D01*
Y851419D01*
X1067774Y851661D01*
X1067787Y852606D01*
X1067844Y853457D01*
X1067943Y854246D01*
X1068082Y854973D01*
X1068260Y855636D01*
X1068474Y856238D01*
X1068722Y856781D01*
X1069002Y857267D01*
X1069314Y857699D01*
X1069709Y858139D01*
X1069738Y858223D01*
X1072028Y860512D01*
X1072750Y861594D01*
X1073004Y862870D01*
Y891456D01*
X1072750Y892732D01*
X1072028Y893814D01*
X1071984Y893857D01*
X1072082Y894541D01*
X1073407Y894843D01*
X1074196Y893663D01*
X1076291Y891568D01*
X1078754Y889922D01*
X1081491Y888788D01*
X1081565Y888773D01*
X1081964Y887399D01*
X1080710Y886145D01*
X1079806Y883962D01*
X1085878D01*
Y882692D01*
X1087148D01*
Y876461D01*
X1087379Y876263D01*
X1087923Y875566D01*
X1087653Y874203D01*
X1087728Y805673D01*
X1088040Y804112D01*
X1088197Y803877D01*
X1087813Y802189D01*
X1087591Y802057D01*
X1087225Y802208D01*
Y797406D01*
X1092027D01*
X1091677Y798250D01*
X1092754Y798970D01*
X1105173Y786578D01*
X1105196Y765370D01*
X1105233Y765182D01*
X1105214Y764991D01*
X1105227Y764849D01*
X1105227Y762913D01*
X1104675Y758692D01*
X1103581Y754578D01*
X1101962Y750641D01*
X1099847Y746947D01*
X1097271Y743559D01*
X1094277Y740533D01*
X1090916Y737920D01*
X1087244Y735766D01*
X1083325Y734105D01*
X1079223Y732967D01*
X1075008Y732370D01*
X1072880Y732348D01*
X1072677Y732305D01*
X1072470Y732322D01*
X1072304Y732304D01*
X692658D01*
X692023Y733404D01*
X692194Y733701D01*
X692530Y734956D01*
X679670D01*
X680006Y733701D01*
X680177Y733404D01*
X679542Y732304D01*
X651159D01*
X650694Y733574D01*
X652080Y734960D01*
X652984Y737143D01*
X640840D01*
X641744Y734960D01*
X643130Y733574D01*
X642665Y732304D01*
X639001D01*
X634102Y732949D01*
X629329Y734228D01*
X624764Y736119D01*
X620484Y738590D01*
X616564Y741598D01*
X613070Y745092D01*
X610061Y749012D01*
X607591Y753292D01*
X605700Y757857D01*
X604421Y762630D01*
X603776Y767529D01*
Y769995D01*
X603841Y798428D01*
X605112Y798812D01*
X605575Y798119D01*
X610854Y792841D01*
X610880Y792772D01*
X611457Y792161D01*
X611907Y791617D01*
X612258Y791119D01*
X612511Y790673D01*
X612674Y790288D01*
X612759Y789967D01*
X612782Y789708D01*
X612760Y789494D01*
X612699Y789297D01*
X612527Y788980D01*
X612517Y788892D01*
X612456Y788828D01*
X612456Y788808D01*
X612068Y788302D01*
X610932Y785560D01*
X610545Y782618D01*
X610932Y779676D01*
X612068Y776934D01*
X613874Y774580D01*
X616228Y772774D01*
X618970Y771638D01*
X621912Y771251D01*
X636912D01*
X639854Y771638D01*
X642596Y772774D01*
X644950Y774580D01*
X646632Y776773D01*
X646656Y776786D01*
X646966Y777194D01*
X647262Y777498D01*
X647601Y777769D01*
X647988Y778011D01*
X648430Y778222D01*
X648933Y778402D01*
X649498Y778547D01*
X650128Y778654D01*
X650822Y778720D01*
X651620Y778744D01*
X651687Y778774D01*
X670426D01*
X670494Y778744D01*
X671402Y778720D01*
X672157Y778653D01*
X672788Y778548D01*
X673290Y778413D01*
X673658Y778262D01*
X673896Y778117D01*
X674026Y777996D01*
X674091Y777898D01*
X674130Y777788D01*
X674163Y777474D01*
X674230Y777352D01*
Y772730D01*
X688770D01*
Y792270D01*
X688599D01*
X687520Y792730D01*
Y793851D01*
X687594Y794031D01*
X687561Y794110D01*
X687585Y794192D01*
X687520Y794308D01*
Y812270D01*
X675480D01*
Y794308D01*
X675415Y794192D01*
X675439Y794110D01*
X675406Y794031D01*
X675480Y793851D01*
Y793030D01*
X675285Y792902D01*
X673608Y793258D01*
X673596Y793277D01*
Y794810D01*
X672668Y797051D01*
X670953Y798766D01*
X668770Y799670D01*
Y793598D01*
X667500D01*
Y792328D01*
X661428D01*
X662332Y790145D01*
X664047Y788430D01*
X665732Y787732D01*
X665480Y786462D01*
X651687D01*
X651620Y786492D01*
X650822Y786516D01*
X650128Y786582D01*
X649498Y786689D01*
X648933Y786834D01*
X648431Y787013D01*
X647988Y787225D01*
X647601Y787467D01*
X647262Y787738D01*
X646965Y788042D01*
X646656Y788450D01*
X646632Y788464D01*
X644950Y790656D01*
X642596Y792462D01*
X639854Y793598D01*
X636912Y793985D01*
X623589D01*
X623018Y794013D01*
X622444Y794095D01*
X621869Y794234D01*
X621288Y794431D01*
X620700Y794689D01*
X620105Y795009D01*
X619503Y795394D01*
X618893Y795846D01*
X618277Y796366D01*
X617630Y796980D01*
X617560Y797006D01*
X612137Y802429D01*
Y880401D01*
X614849Y883113D01*
X614918Y883139D01*
X615533Y883721D01*
X616104Y884197D01*
X616655Y884595D01*
X617184Y884915D01*
X617688Y885162D01*
X618168Y885339D01*
X618624Y885452D01*
X619061Y885506D01*
X619484Y885504D01*
X619989Y885437D01*
X620137Y885477D01*
X620284Y885430D01*
X620339Y885458D01*
X621912Y885251D01*
X636912D01*
X639854Y885638D01*
X642596Y886774D01*
X644950Y888580D01*
X646756Y890934D01*
X647892Y893676D01*
X648279Y896618D01*
X647892Y899560D01*
X646756Y902302D01*
X644950Y904656D01*
X642596Y906462D01*
X639854Y907598D01*
X636912Y907985D01*
X621912D01*
X618970Y907598D01*
X616817Y906706D01*
X616228Y906462D01*
X615566Y907499D01*
X616009Y907943D01*
X617080Y909014D01*
X617984Y911197D01*
X613182D01*
Y906395D01*
X614475Y906930D01*
X615077Y907180D01*
X615717Y906070D01*
X615252Y905713D01*
X613874Y904656D01*
X612068Y902302D01*
X610932Y899560D01*
X610545Y896618D01*
X610932Y893676D01*
X611197Y893036D01*
X611184Y892942D01*
X611296Y892510D01*
X611330Y892170D01*
X611312Y891814D01*
X611238Y891427D01*
X611098Y891004D01*
X610885Y890545D01*
X610592Y890049D01*
X610215Y889521D01*
X609752Y888965D01*
X609176Y888355D01*
X609165Y888324D01*
X609134Y888309D01*
X609116Y888252D01*
X605575Y884711D01*
X605308Y884312D01*
X604039Y884699D01*
X604097Y909995D01*
X604096Y910000D01*
X604097Y910004D01*
X604098Y912467D01*
X604741Y917350D01*
X606016Y922107D01*
X607901Y926657D01*
X610364Y930923D01*
X613363Y934830D01*
X616845Y938312D01*
X620753Y941311D01*
X625018Y943773D01*
X629569Y945658D01*
X634326Y946932D01*
X639210Y947575D01*
X641672Y947575D01*
X659795D01*
D02*
G37*
G36*
X1068686Y859057D02*
X1068242Y858563D01*
X1067847Y858014D01*
X1067498Y857412D01*
X1067198Y856755D01*
X1066946Y856045D01*
X1066741Y855280D01*
X1066584Y854461D01*
X1066475Y853588D01*
X1066413Y852661D01*
X1066400Y851680D01*
X1058480Y859600D01*
X1059461Y859613D01*
X1061261Y859784D01*
X1062080Y859941D01*
X1062845Y860146D01*
X1063555Y860398D01*
X1064212Y860698D01*
X1064814Y861047D01*
X1065363Y861442D01*
X1065857Y861886D01*
X1068686Y859057D01*
D02*
G37*
G36*
X684025Y795020D02*
X684100Y794169D01*
X684123Y794031D01*
X686219D01*
X685798Y793980D01*
X685421Y793830D01*
X685088Y793580D01*
X684799Y793231D01*
X684555Y792781D01*
X684480Y792574D01*
X684625Y792219D01*
X684900Y791769D01*
X685225Y791420D01*
X685600Y791170D01*
X686025Y791020D01*
X686500Y790969D01*
X684109D01*
X684089Y790831D01*
X684022Y789980D01*
X684000Y789031D01*
X679000D01*
X678978Y789980D01*
X678911Y790831D01*
X678891Y790969D01*
X676500D01*
X676975Y791020D01*
X677400Y791170D01*
X677775Y791420D01*
X678100Y791769D01*
X678375Y792219D01*
X678520Y792574D01*
X678445Y792781D01*
X678201Y793231D01*
X677912Y793580D01*
X677579Y793830D01*
X677202Y793980D01*
X676780Y794031D01*
X678877D01*
X678900Y794169D01*
X678975Y795020D01*
X679000Y795969D01*
X684000D01*
X684025Y795020D01*
D02*
G37*
G36*
X617360Y795341D02*
X618040Y794768D01*
X618722Y794262D01*
X619408Y793823D01*
X620098Y793452D01*
X620790Y793149D01*
X621486Y792913D01*
X622185Y792744D01*
X622887Y792643D01*
X623592Y792609D01*
X613735Y788324D01*
X613971Y788760D01*
X614114Y789218D01*
X614162Y789700D01*
X614118Y790204D01*
X613979Y790732D01*
X613746Y791283D01*
X613420Y791856D01*
X613000Y792453D01*
X612486Y793073D01*
X611879Y793716D01*
X616684Y795982D01*
X617360Y795341D01*
D02*
G37*
G36*
X675530Y777618D02*
X675480Y778093D01*
X675331Y778518D01*
X675080Y778893D01*
X674731Y779218D01*
X674280Y779493D01*
X673730Y779718D01*
X673081Y779893D01*
X672330Y780018D01*
X671480Y780093D01*
X670530Y780118D01*
Y785118D01*
X671480Y785143D01*
X672330Y785218D01*
X673081Y785343D01*
X673730Y785518D01*
X674280Y785743D01*
X674731Y786018D01*
X675080Y786343D01*
X675331Y786718D01*
X675480Y787143D01*
X675530Y787618D01*
Y777618D01*
D02*
G37*
G36*
X645922Y787143D02*
X646337Y786718D01*
X646805Y786343D01*
X647326Y786018D01*
X647901Y785743D01*
X648530Y785518D01*
X649212Y785343D01*
X649948Y785218D01*
X650737Y785143D01*
X651580Y785118D01*
Y780118D01*
X650737Y780093D01*
X649948Y780018D01*
X649212Y779893D01*
X648530Y779718D01*
X647901Y779493D01*
X647326Y779218D01*
X646805Y778893D01*
X646337Y778518D01*
X645922Y778093D01*
X645561Y777618D01*
Y787618D01*
X645922Y787143D01*
D02*
G37*
%LPC*%
G36*
X1041045Y945966D02*
Y941164D01*
X1045847D01*
X1044943Y943347D01*
X1043228Y945061D01*
X1041045Y945966D01*
D02*
G37*
G36*
X1038505D02*
X1036322Y945061D01*
X1034607Y943347D01*
X1033703Y941164D01*
X1038505D01*
Y945966D01*
D02*
G37*
G36*
X993591D02*
Y941164D01*
X998393D01*
X997489Y943347D01*
X995774Y945061D01*
X993591Y945966D01*
D02*
G37*
G36*
X991051D02*
X988868Y945061D01*
X987153Y943347D01*
X986249Y941164D01*
X991051D01*
Y945966D01*
D02*
G37*
G36*
X948986D02*
Y941164D01*
X953788D01*
X952884Y943347D01*
X951169Y945061D01*
X948986Y945966D01*
D02*
G37*
G36*
X946446D02*
X944262Y945061D01*
X942548Y943347D01*
X941643Y941164D01*
X946446D01*
Y945966D01*
D02*
G37*
G36*
X696230Y941230D02*
X691428D01*
X692332Y939047D01*
X692589Y938790D01*
X692063Y937520D01*
X681230D01*
Y922480D01*
X683233D01*
X683356Y922413D01*
X683575Y922390D01*
X683600Y922381D01*
X683623Y922366D01*
X683679Y922306D01*
X683770Y922158D01*
X683875Y921900D01*
X683975Y921528D01*
X684055Y921047D01*
X684107Y920462D01*
X684126Y919744D01*
X684166Y919654D01*
Y898961D01*
X684420Y897685D01*
X685143Y896604D01*
X687486Y894260D01*
X688567Y893538D01*
X689843Y893284D01*
X695829D01*
X695919Y893244D01*
X696637Y893225D01*
X697222Y893173D01*
X697703Y893093D01*
X698075Y892993D01*
X698333Y892887D01*
X698481Y892797D01*
X698541Y892741D01*
X698556Y892719D01*
X698565Y892693D01*
X698588Y892474D01*
X698655Y892351D01*
Y888005D01*
X700658D01*
X700781Y887938D01*
X701000Y887915D01*
X701025Y887906D01*
X701048Y887891D01*
X701104Y887831D01*
X701195Y887683D01*
X701300Y887425D01*
X701400Y887053D01*
X701480Y886572D01*
X701508Y886263D01*
X701480Y885954D01*
X701400Y885472D01*
X701300Y885100D01*
X701195Y884842D01*
X701104Y884694D01*
X701048Y884633D01*
X701025Y884619D01*
X701000Y884610D01*
X700781Y884587D01*
X700658Y884520D01*
X698655D01*
Y869480D01*
X700658D01*
X700781Y869413D01*
X701000Y869390D01*
X701025Y869381D01*
X701048Y869367D01*
X701104Y869306D01*
X701195Y869158D01*
X701300Y868900D01*
X701400Y868528D01*
X701480Y868047D01*
X701532Y867462D01*
X701551Y866744D01*
X701591Y866654D01*
Y865525D01*
X701845Y864250D01*
X702568Y863168D01*
X702741Y862994D01*
X702255Y861821D01*
X639402D01*
X637019Y859443D01*
X635880Y860100D01*
X636182Y861227D01*
Y863009D01*
X635721Y864731D01*
X634829Y866275D01*
X633569Y867535D01*
X632025Y868427D01*
X630303Y868888D01*
X628521D01*
X626799Y868427D01*
X625255Y867535D01*
X623995Y866275D01*
X623103Y864731D01*
X622642Y863009D01*
Y861227D01*
X623103Y859505D01*
X623995Y857961D01*
X625255Y856701D01*
X626799Y855809D01*
X628521Y855348D01*
X630303D01*
X632025Y855809D01*
X633569Y856701D01*
X634788Y857919D01*
X634980Y857910D01*
X636057Y857547D01*
X635987Y821810D01*
X635208Y821450D01*
X634716Y821388D01*
X633569Y822535D01*
X632025Y823427D01*
X630303Y823888D01*
X628521D01*
X626799Y823427D01*
X625255Y822535D01*
X623995Y821275D01*
X623103Y819731D01*
X622642Y818009D01*
Y816227D01*
X623103Y814505D01*
X623995Y812961D01*
X625255Y811701D01*
X626799Y810809D01*
X628521Y810348D01*
X630303D01*
X632025Y810809D01*
X633569Y811701D01*
X634829Y812961D01*
X635721Y814505D01*
X636182Y816227D01*
Y818009D01*
X636013Y818641D01*
X637152Y819297D01*
X639506Y816939D01*
X716160D01*
X722190Y822969D01*
X723460Y822442D01*
Y822093D01*
X732500D01*
Y820823D01*
X733770D01*
Y814783D01*
X740156D01*
Y812893D01*
X724730D01*
Y806029D01*
X723460Y805296D01*
X722822Y805665D01*
X721568Y806001D01*
Y799570D01*
X719028D01*
Y806001D01*
X717773Y805665D01*
X717060Y805253D01*
X715790Y805986D01*
Y813540D01*
X709770D01*
Y802500D01*
X708500D01*
Y801230D01*
X701210D01*
Y791460D01*
X704960D01*
Y783770D01*
X713500D01*
Y782500D01*
X714770D01*
Y771460D01*
X714848D01*
X715100Y770190D01*
X715047Y770168D01*
X713332Y768453D01*
X712428Y766270D01*
X724572D01*
X723668Y768453D01*
X721953Y770168D01*
X721900Y770190D01*
X722040Y771460D01*
X722040D01*
Y776057D01*
X723310Y776790D01*
X723976Y776406D01*
X725230Y776070D01*
Y782500D01*
X726500D01*
Y783770D01*
X732930D01*
X732594Y785024D01*
X731798Y786403D01*
X731851Y786535D01*
X733063Y787254D01*
X733730Y786978D01*
Y792500D01*
X735031D01*
Y795000D01*
X735981Y795025D01*
X736831Y795100D01*
X737580Y795225D01*
X738231Y795400D01*
X738781Y795625D01*
X739230Y795900D01*
X739581Y796225D01*
X739830Y796600D01*
X739980Y797025D01*
X740031Y797500D01*
Y787500D01*
X739980Y787975D01*
X739830Y788400D01*
X739581Y788775D01*
X739230Y789100D01*
X738781Y789375D01*
X738231Y789600D01*
X737580Y789775D01*
X736831Y789900D01*
X736270Y789949D01*
Y786978D01*
X736404Y787033D01*
X737460Y786328D01*
Y783210D01*
X742730D01*
Y792500D01*
X744000D01*
Y793770D01*
X750540D01*
Y801790D01*
X748005D01*
X747999Y801828D01*
X747889Y803331D01*
X747875Y804241D01*
X747844Y804312D01*
Y816894D01*
X747551Y818365D01*
X746718Y819612D01*
X746718Y819612D01*
X743789Y822541D01*
X742542Y823374D01*
X741540Y823574D01*
Y826863D01*
X741540Y826863D01*
X741540D01*
X741925Y828004D01*
X742135Y828214D01*
X744990Y831484D01*
Y839753D01*
X746164Y840239D01*
X767937Y818466D01*
X769019Y817743D01*
X770295Y817489D01*
X776912D01*
X777004Y817449D01*
X777733Y817435D01*
X778342Y817395D01*
X778853Y817333D01*
X779258Y817253D01*
X779549Y817165D01*
X779708Y817094D01*
X779730Y817057D01*
Y816053D01*
X780851D01*
X781031Y815979D01*
X781126Y816019D01*
X781226Y815993D01*
X781327Y816053D01*
X793673D01*
X793774Y815993D01*
X793874Y816019D01*
X793969Y815979D01*
X794149Y816053D01*
X795270D01*
Y817057D01*
X795292Y817094D01*
X795451Y817165D01*
X795742Y817253D01*
X796126Y817329D01*
X797286Y817435D01*
X797870Y817446D01*
X821816Y793501D01*
X822897Y792778D01*
X824173Y792524D01*
X824614D01*
Y787480D01*
X837154D01*
Y802520D01*
X824614D01*
Y801792D01*
X823440Y801306D01*
X801566Y823181D01*
X800484Y823904D01*
X799208Y824157D01*
X798088D01*
X797996Y824198D01*
X797267Y824212D01*
X796658Y824251D01*
X796147Y824314D01*
X795742Y824394D01*
X795451Y824481D01*
X795292Y824553D01*
X795270Y824589D01*
Y825593D01*
X794149D01*
X793969Y825667D01*
X793874Y825628D01*
X793774Y825654D01*
X793673Y825593D01*
X781327D01*
X781226Y825654D01*
X781126Y825628D01*
X781031Y825667D01*
X780851Y825593D01*
X779730D01*
Y824589D01*
X779708Y824553D01*
X779549Y824481D01*
X779258Y824394D01*
X778874Y824318D01*
X777714Y824211D01*
X777004Y824198D01*
X776912Y824157D01*
X771676D01*
X749259Y846574D01*
Y865888D01*
X749299Y865977D01*
X749315Y866554D01*
X749359Y867046D01*
X749430Y867491D01*
X749525Y867889D01*
X749641Y868241D01*
X749777Y868549D01*
X749929Y868817D01*
X750097Y869050D01*
X750283Y869253D01*
X750550Y869484D01*
X750574Y869531D01*
X750623Y869552D01*
X750681Y869690D01*
X751270Y870572D01*
X751504Y871750D01*
Y875250D01*
X751270Y876428D01*
X750602Y877427D01*
X749603Y878095D01*
X748425Y878329D01*
X743425D01*
X742695Y878184D01*
X742069Y879354D01*
X744381Y881666D01*
X748137D01*
X749413Y881920D01*
X750494Y882643D01*
X751217Y883724D01*
X751218Y883730D01*
X751445D01*
Y884871D01*
X751471Y885000D01*
X751445Y885129D01*
Y892191D01*
X757906D01*
X759105Y892020D01*
Y884480D01*
X771645D01*
Y892020D01*
X768913D01*
X768883Y892129D01*
X768833Y892398D01*
X768759Y893260D01*
X768749Y893792D01*
X768666Y893984D01*
X768455Y895043D01*
X767733Y896125D01*
X765975Y897883D01*
X764893Y898605D01*
X763618Y898859D01*
X734021D01*
X733931Y898899D01*
X733213Y898918D01*
X732628Y898970D01*
X732147Y899050D01*
X731775Y899150D01*
X731517Y899256D01*
X731369Y899346D01*
X731309Y899402D01*
X731294Y899425D01*
X731285Y899450D01*
X731262Y899669D01*
X731195Y899792D01*
Y903045D01*
X718655D01*
Y888005D01*
X731195D01*
Y891258D01*
X731262Y891381D01*
X731285Y891600D01*
X731294Y891626D01*
X731309Y891648D01*
X731369Y891704D01*
X731517Y891795D01*
X731775Y891900D01*
X732147Y892000D01*
X732628Y892080D01*
X733213Y892132D01*
X733931Y892151D01*
X734021Y892191D01*
X740405D01*
Y887120D01*
X733666Y880381D01*
X733213Y880393D01*
X732628Y880445D01*
X732147Y880525D01*
X731775Y880625D01*
X731517Y880731D01*
X731369Y880821D01*
X731309Y880877D01*
X731294Y880900D01*
X731285Y880925D01*
X731262Y881144D01*
X731195Y881267D01*
Y884520D01*
X718655D01*
Y869480D01*
X731195D01*
Y872734D01*
X731262Y872856D01*
X731285Y873075D01*
X731294Y873101D01*
X731309Y873123D01*
X731369Y873179D01*
X731517Y873270D01*
X731775Y873375D01*
X732147Y873475D01*
X732628Y873555D01*
X733213Y873607D01*
X733931Y873626D01*
X734021Y873666D01*
X735000D01*
X736276Y873920D01*
X737358Y874642D01*
X739321Y876606D01*
X740491Y875980D01*
X740346Y875250D01*
Y871750D01*
X740580Y870572D01*
X741169Y869690D01*
X741227Y869552D01*
X741276Y869531D01*
X741300Y869484D01*
X741567Y869253D01*
X741753Y869050D01*
X741921Y868817D01*
X742073Y868549D01*
X742209Y868241D01*
X742325Y867889D01*
X742420Y867491D01*
X742491Y867046D01*
X742535Y866554D01*
X742551Y865977D01*
X742591Y865888D01*
Y856527D01*
X741418Y856041D01*
X735639Y861821D01*
X719165D01*
Y862670D01*
X718515Y864239D01*
X717313Y865441D01*
X715744Y866091D01*
X714045D01*
X712476Y865441D01*
X712309Y865274D01*
X710786Y865193D01*
X710705Y865155D01*
X710011D01*
X708302Y866863D01*
X708318Y867462D01*
X708370Y868047D01*
X708450Y868528D01*
X708550Y868900D01*
X708655Y869158D01*
X708746Y869306D01*
X708802Y869367D01*
X708824Y869381D01*
X708850Y869390D01*
X709069Y869413D01*
X709192Y869480D01*
X711195D01*
Y884520D01*
X709192D01*
X709069Y884587D01*
X708850Y884610D01*
X708824Y884619D01*
X708802Y884633D01*
X708746Y884694D01*
X708655Y884842D01*
X708550Y885100D01*
X708450Y885472D01*
X708370Y885954D01*
X708342Y886263D01*
X708370Y886572D01*
X708450Y887053D01*
X708550Y887425D01*
X708655Y887683D01*
X708746Y887831D01*
X708802Y887891D01*
X708824Y887906D01*
X708850Y887915D01*
X709069Y887938D01*
X709192Y888005D01*
X711195D01*
Y903045D01*
X698655D01*
Y900885D01*
X698588Y900762D01*
X698565Y900543D01*
X698556Y900518D01*
X698541Y900495D01*
X698481Y900439D01*
X698333Y900349D01*
X698075Y900243D01*
X697703Y900143D01*
X697222Y900063D01*
X696637Y900011D01*
X695919Y899992D01*
X695829Y899952D01*
X691224D01*
X690834Y900342D01*
Y907322D01*
X692104Y907575D01*
X692332Y907025D01*
X694047Y905310D01*
X696230Y904405D01*
Y910478D01*
Y916550D01*
X694047Y915646D01*
X692332Y913931D01*
X692104Y913380D01*
X690834Y913633D01*
Y919654D01*
X690874Y919744D01*
X690893Y920462D01*
X690945Y921047D01*
X691025Y921528D01*
X691125Y921900D01*
X691230Y922158D01*
X691321Y922306D01*
X691377Y922366D01*
X691400Y922381D01*
X691425Y922390D01*
X691644Y922413D01*
X691767Y922480D01*
X693770D01*
Y936072D01*
X695040Y936921D01*
X696230Y936428D01*
Y941230D01*
D02*
G37*
G36*
X671072D02*
X666270D01*
Y936428D01*
X668453Y937332D01*
X670168Y939047D01*
X671072Y941230D01*
D02*
G37*
G36*
X663730D02*
X658928D01*
X659832Y939047D01*
X661547Y937332D01*
X663730Y936428D01*
Y941230D01*
D02*
G37*
G36*
X820564Y937610D02*
X819105Y937320D01*
X817851Y936482D01*
X817065Y935307D01*
X816951Y935205D01*
X815637Y934821D01*
X813943Y935522D01*
Y930000D01*
Y924478D01*
X815637Y925179D01*
X816951Y924795D01*
X817065Y924693D01*
X817851Y923518D01*
X819105Y922680D01*
X820564Y922390D01*
Y930000D01*
Y937610D01*
D02*
G37*
G36*
X1087148Y939217D02*
Y934415D01*
X1091951D01*
X1091046Y936598D01*
X1089331Y938313D01*
X1087148Y939217D01*
D02*
G37*
G36*
X1084608D02*
X1082425Y938313D01*
X1080710Y936598D01*
X1079806Y934415D01*
X1084608D01*
Y939217D01*
D02*
G37*
G36*
X1045847Y938624D02*
X1041045D01*
Y933821D01*
X1043228Y934726D01*
X1044943Y936441D01*
X1045847Y938624D01*
D02*
G37*
G36*
X1038505D02*
X1033703D01*
X1034607Y936441D01*
X1036322Y934726D01*
X1038505Y933821D01*
Y938624D01*
D02*
G37*
G36*
X998393D02*
X993591D01*
Y933821D01*
X995774Y934726D01*
X997489Y936441D01*
X998393Y938624D01*
D02*
G37*
G36*
X991051D02*
X986249D01*
X987153Y936441D01*
X988868Y934726D01*
X991051Y933821D01*
Y938624D01*
D02*
G37*
G36*
X953788D02*
X948986D01*
Y933821D01*
X951169Y934726D01*
X952884Y936441D01*
X953788Y938624D01*
D02*
G37*
G36*
X946446D02*
X941643D01*
X942548Y936441D01*
X944262Y934726D01*
X946446Y933821D01*
Y938624D01*
D02*
G37*
G36*
X983591Y936658D02*
Y931855D01*
X988393D01*
X987489Y934039D01*
X985774Y935753D01*
X983591Y936658D01*
D02*
G37*
G36*
X981051D02*
X978868Y935753D01*
X977153Y934039D01*
X976249Y931855D01*
X981051D01*
Y936658D01*
D02*
G37*
G36*
X966270D02*
Y931855D01*
X971072D01*
X970168Y934039D01*
X968453Y935753D01*
X966270Y936658D01*
D02*
G37*
G36*
X963730D02*
X961547Y935753D01*
X959832Y934039D01*
X958928Y931855D01*
X963730D01*
Y936658D01*
D02*
G37*
G36*
X827840Y939834D02*
X823037D01*
X823451Y938836D01*
X823363Y938544D01*
X823103Y938235D01*
Y931270D01*
X826948D01*
Y933750D01*
X826888Y934052D01*
X827840Y934954D01*
Y939834D01*
D02*
G37*
G36*
X894488Y933771D02*
Y929518D01*
X898741D01*
X897955Y931413D01*
X896384Y932986D01*
X894488Y933771D01*
D02*
G37*
G36*
X891948D02*
X890053Y932986D01*
X888481Y931413D01*
X887696Y929518D01*
X891948D01*
Y933771D01*
D02*
G37*
G36*
X847540Y931792D02*
Y927540D01*
X851792D01*
X851007Y929435D01*
X849435Y931007D01*
X847540Y931792D01*
D02*
G37*
G36*
X845000D02*
X843105Y931007D01*
X841533Y929435D01*
X840748Y927540D01*
X845000D01*
Y931792D01*
D02*
G37*
G36*
X630893Y940909D02*
X630682D01*
Y927139D01*
X644452D01*
Y927350D01*
X643874Y930256D01*
X642740Y932993D01*
X641094Y935456D01*
X638999Y937551D01*
X636536Y939197D01*
X633799Y940331D01*
X630893Y940909D01*
D02*
G37*
G36*
X628142D02*
X627931D01*
X625025Y940331D01*
X622288Y939197D01*
X619825Y937551D01*
X617730Y935456D01*
X616084Y932993D01*
X614950Y930256D01*
X614372Y927350D01*
Y927139D01*
X628142D01*
Y940909D01*
D02*
G37*
G36*
X1091951Y931875D02*
X1087148D01*
Y927073D01*
X1089331Y927977D01*
X1091046Y929692D01*
X1091951Y931875D01*
D02*
G37*
G36*
X1084608D02*
X1079806D01*
X1080710Y929692D01*
X1082425Y927977D01*
X1084608Y927073D01*
Y931875D01*
D02*
G37*
G36*
X871970Y931060D02*
Y926808D01*
X876222D01*
X875437Y928703D01*
X873865Y930275D01*
X871970Y931060D01*
D02*
G37*
G36*
X869430D02*
X867534Y930275D01*
X865962Y928703D01*
X865177Y926808D01*
X869430D01*
Y931060D01*
D02*
G37*
G36*
X1015510Y930585D02*
X1001970D01*
Y927582D01*
X1001903Y927459D01*
X1001870Y927145D01*
X1001831Y927035D01*
X1001766Y926938D01*
X1001636Y926817D01*
X1001398Y926671D01*
X1001030Y926520D01*
X1000528Y926385D01*
X999897Y926280D01*
X999142Y926214D01*
X998234Y926190D01*
X998166Y926159D01*
X988175D01*
X987612Y927429D01*
X988393Y929315D01*
X976249D01*
X977030Y927429D01*
X976467Y926159D01*
X970854D01*
X970291Y927429D01*
X971072Y929315D01*
X958928D01*
X959709Y927429D01*
X959146Y926159D01*
X949483D01*
X948643Y926507D01*
X946944D01*
X946105Y926159D01*
X939074D01*
X939006Y926190D01*
X938098Y926214D01*
X937343Y926280D01*
X936712Y926385D01*
X936210Y926520D01*
X935842Y926671D01*
X935604Y926817D01*
X935473Y926938D01*
X935409Y927035D01*
X935370Y927145D01*
X935337Y927459D01*
X935270Y927582D01*
Y930585D01*
X921730D01*
Y914046D01*
X935270D01*
Y917049D01*
X935337Y917172D01*
X935370Y917486D01*
X935409Y917596D01*
X935473Y917693D01*
X935604Y917814D01*
X935842Y917960D01*
X936210Y918111D01*
X936712Y918246D01*
X937343Y918351D01*
X938098Y918418D01*
X939006Y918441D01*
X939074Y918472D01*
X945727D01*
X946944Y917967D01*
X948643D01*
X949861Y918472D01*
X951235D01*
X951687Y917202D01*
X950828Y915126D01*
X962972D01*
X962112Y917202D01*
X962565Y918472D01*
X970206D01*
X970658Y917202D01*
X969798Y915126D01*
X981943D01*
X981083Y917202D01*
X981535Y918472D01*
X986467D01*
X987030Y917202D01*
X986249Y915316D01*
X998393D01*
X997612Y917202D01*
X997974Y918031D01*
X998345Y918438D01*
X999141Y918418D01*
X999897Y918351D01*
X1000528Y918246D01*
X1001030Y918111D01*
X1001398Y917960D01*
X1001636Y917814D01*
X1001766Y917693D01*
X1001831Y917596D01*
X1001870Y917486D01*
X1001903Y917172D01*
X1001970Y917049D01*
Y914046D01*
X1015510D01*
Y930585D01*
D02*
G37*
G36*
X703572Y941230D02*
X698770D01*
Y936428D01*
X699960Y936921D01*
X701230Y936072D01*
Y922480D01*
X710223D01*
X710476Y921210D01*
X709335Y920737D01*
X707763Y919165D01*
X706978Y917270D01*
X718022D01*
X717237Y919165D01*
X715665Y920737D01*
X714147Y921366D01*
X713770Y922480D01*
X713770Y922792D01*
Y925733D01*
X713837Y925856D01*
X713860Y926075D01*
X713869Y926100D01*
X713884Y926123D01*
X713944Y926179D01*
X714092Y926270D01*
X714350Y926375D01*
X714722Y926475D01*
X715203Y926555D01*
X715500Y926581D01*
X715797Y926555D01*
X716278Y926475D01*
X716650Y926375D01*
X716908Y926270D01*
X717056Y926179D01*
X717116Y926123D01*
X717131Y926100D01*
X717140Y926075D01*
X717163Y925856D01*
X717230Y925733D01*
Y923730D01*
X735770D01*
Y936270D01*
X717230D01*
Y934267D01*
X717163Y934144D01*
X717140Y933925D01*
X717131Y933900D01*
X717116Y933877D01*
X717056Y933821D01*
X716908Y933730D01*
X716650Y933625D01*
X716278Y933525D01*
X715797Y933445D01*
X715500Y933419D01*
X715203Y933445D01*
X714722Y933525D01*
X714350Y933625D01*
X714092Y933730D01*
X713944Y933821D01*
X713884Y933877D01*
X713869Y933900D01*
X713860Y933925D01*
X713837Y934144D01*
X713770Y934267D01*
Y937520D01*
X702937D01*
X702411Y938790D01*
X702668Y939047D01*
X703572Y941230D01*
D02*
G37*
G36*
X826948Y928730D02*
X823103D01*
Y922390D01*
X824562Y922680D01*
X825816Y923518D01*
X826654Y924771D01*
X826948Y926250D01*
Y928730D01*
D02*
G37*
G36*
X851792Y925000D02*
X847540D01*
Y920748D01*
X849435Y921533D01*
X851007Y923105D01*
X851792Y925000D01*
D02*
G37*
G36*
X845000D02*
X840748D01*
X841533Y923105D01*
X843105Y921533D01*
X845000Y920748D01*
Y925000D01*
D02*
G37*
G36*
X655821Y924817D02*
Y920015D01*
X660623D01*
X659719Y922198D01*
X658004Y923913D01*
X655821Y924817D01*
D02*
G37*
G36*
X653281D02*
X651098Y923913D01*
X649383Y922198D01*
X648479Y920015D01*
X653281D01*
Y924817D01*
D02*
G37*
G36*
X898741Y926978D02*
X887696D01*
X888387Y925310D01*
X887864Y924040D01*
X884388D01*
Y917770D01*
X893178D01*
X901968D01*
Y924040D01*
X898572D01*
X898050Y925310D01*
X898741Y926978D01*
D02*
G37*
G36*
X628142Y924599D02*
X614372D01*
Y924387D01*
X614950Y921482D01*
X616084Y918745D01*
X615356Y917714D01*
X615272Y917673D01*
X613182Y918539D01*
Y913737D01*
X617984D01*
X617635Y914580D01*
X618712Y915299D01*
X619825Y914186D01*
X622288Y912540D01*
X625025Y911407D01*
X627931Y910829D01*
X628142D01*
Y924599D01*
D02*
G37*
G36*
X778221Y921522D02*
Y917270D01*
X782474D01*
X781689Y919165D01*
X780117Y920737D01*
X778221Y921522D01*
D02*
G37*
G36*
X775681D02*
X773786Y920737D01*
X772214Y919165D01*
X771429Y917270D01*
X775681D01*
Y921522D01*
D02*
G37*
G36*
X757770D02*
Y917270D01*
X762022D01*
X761237Y919165D01*
X759665Y920737D01*
X757770Y921522D01*
D02*
G37*
G36*
X755230D02*
X753335Y920737D01*
X751763Y919165D01*
X750978Y917270D01*
X755230D01*
Y921522D01*
D02*
G37*
G36*
X735770D02*
Y917270D01*
X740022D01*
X739237Y919165D01*
X737665Y920737D01*
X735770Y921522D01*
D02*
G37*
G36*
X733230D02*
X731335Y920737D01*
X729763Y919165D01*
X728978Y917270D01*
X733230D01*
Y921522D01*
D02*
G37*
G36*
X876222Y924268D02*
X865177D01*
X865781Y922810D01*
X865135Y921540D01*
X862629D01*
Y916270D01*
X871920D01*
X881209D01*
Y921540D01*
X876264D01*
X875618Y922810D01*
X876222Y924268D01*
D02*
G37*
G36*
X610642Y918539D02*
X608459Y917635D01*
X606744Y915920D01*
X605840Y913737D01*
X610642D01*
Y918539D01*
D02*
G37*
G36*
X660623Y917475D02*
X655821D01*
Y912672D01*
X658004Y913577D01*
X659719Y915292D01*
X660623Y917475D01*
D02*
G37*
G36*
X653281D02*
X648479D01*
X649383Y915292D01*
X651098Y913577D01*
X653281Y912672D01*
Y917475D01*
D02*
G37*
G36*
X698770Y916550D02*
Y911748D01*
X703572D01*
X702668Y913931D01*
X700953Y915646D01*
X698770Y916550D01*
D02*
G37*
G36*
X644452Y924599D02*
X630682D01*
Y910829D01*
X630893D01*
X633799Y911407D01*
X636536Y912540D01*
X638999Y914186D01*
X641094Y916281D01*
X642740Y918745D01*
X643874Y921482D01*
X644452Y924387D01*
Y924599D01*
D02*
G37*
G36*
X782474Y914730D02*
X778221D01*
Y910478D01*
X780117Y911263D01*
X781689Y912835D01*
X782474Y914730D01*
D02*
G37*
G36*
X775681D02*
X771429D01*
X772214Y912835D01*
X773786Y911263D01*
X775681Y910478D01*
Y914730D01*
D02*
G37*
G36*
X762022D02*
X757770D01*
Y910478D01*
X759665Y911263D01*
X761237Y912835D01*
X762022Y914730D01*
D02*
G37*
G36*
X755230D02*
X750978D01*
X751763Y912835D01*
X753335Y911263D01*
X755230Y910478D01*
Y914730D01*
D02*
G37*
G36*
X740022D02*
X735770D01*
Y910478D01*
X737665Y911263D01*
X739237Y912835D01*
X740022Y914730D01*
D02*
G37*
G36*
X733230D02*
X728978D01*
X729763Y912835D01*
X731335Y911263D01*
X733230Y910478D01*
Y914730D01*
D02*
G37*
G36*
X718022D02*
X713770D01*
Y910478D01*
X715665Y911263D01*
X717237Y912835D01*
X718022Y914730D01*
D02*
G37*
G36*
X711230D02*
X706978D01*
X707763Y912835D01*
X709335Y911263D01*
X711230Y910478D01*
Y914730D01*
D02*
G37*
G36*
X901968Y915230D02*
X894448D01*
Y908960D01*
X901968D01*
Y915230D01*
D02*
G37*
G36*
X891908D02*
X884388D01*
Y908960D01*
X891908D01*
Y915230D01*
D02*
G37*
G36*
X824103Y913089D02*
Y908837D01*
X828356D01*
X827571Y910732D01*
X825999Y912304D01*
X824103Y913089D01*
D02*
G37*
G36*
X821563D02*
X819668Y912304D01*
X818096Y910732D01*
X817311Y908837D01*
X821563D01*
Y913089D01*
D02*
G37*
G36*
X881209Y913730D02*
X873190D01*
Y908460D01*
X881209D01*
Y913730D01*
D02*
G37*
G36*
X870650D02*
X862629D01*
Y908460D01*
X870650D01*
Y913730D01*
D02*
G37*
G36*
X998393Y912776D02*
X993591D01*
Y907973D01*
X995774Y908878D01*
X997489Y910592D01*
X998393Y912776D01*
D02*
G37*
G36*
X991051D02*
X986249D01*
X987153Y910592D01*
X988868Y908878D01*
X991051Y907973D01*
Y912776D01*
D02*
G37*
G36*
X981943Y912586D02*
X977141D01*
Y907784D01*
X979324Y908688D01*
X981038Y910403D01*
X981943Y912586D01*
D02*
G37*
G36*
X974601D02*
X969798D01*
X970703Y910403D01*
X972417Y908688D01*
X974601Y907784D01*
Y912586D01*
D02*
G37*
G36*
X962972D02*
X958170D01*
Y907784D01*
X960353Y908688D01*
X962068Y910403D01*
X962972Y912586D01*
D02*
G37*
G36*
X955630D02*
X950828D01*
X951732Y910403D01*
X953447Y908688D01*
X955630Y907784D01*
Y912586D01*
D02*
G37*
G36*
X1040630Y912540D02*
X1035360D01*
Y908067D01*
X1034629Y907119D01*
X1034582Y907094D01*
X1031402D01*
X1030508Y907987D01*
X1028613Y908772D01*
Y903250D01*
Y897556D01*
X1029156Y897193D01*
Y890074D01*
X1029126Y890006D01*
X1029102Y889098D01*
X1029035Y888343D01*
X1028930Y887712D01*
X1028884Y887540D01*
X1022460D01*
Y878270D01*
X1043540D01*
Y887540D01*
X1037116D01*
X1037070Y887712D01*
X1036965Y888343D01*
X1036898Y889098D01*
X1036874Y890006D01*
X1036844Y890074D01*
Y893960D01*
X1040630D01*
Y900746D01*
X1038952Y900709D01*
X1037931Y900627D01*
Y900077D01*
X1037899Y900205D01*
X1037803Y900319D01*
X1037645Y900420D01*
X1037423Y900508D01*
X1037231Y900557D01*
X1036787Y900494D01*
X1036224Y900381D01*
X1035741Y900248D01*
X1035337Y900094D01*
X1035013Y899920D01*
X1034768Y899725D01*
X1034765Y900750D01*
X1034757Y900750D01*
Y903250D01*
Y905750D01*
X1035360Y905757D01*
X1036788Y905858D01*
X1037137Y905918D01*
X1037423Y905992D01*
X1037645Y906080D01*
X1037803Y906181D01*
X1037899Y906295D01*
X1037931Y906423D01*
Y903121D01*
X1040630Y900885D01*
Y903250D01*
Y912540D01*
D02*
G37*
G36*
X610642Y911197D02*
X605840D01*
X606744Y909014D01*
X608459Y907299D01*
X610642Y906395D01*
Y911197D01*
D02*
G37*
G36*
X1048440Y912540D02*
X1043170D01*
Y904520D01*
X1048440D01*
Y912540D01*
D02*
G37*
G36*
X1087360Y918290D02*
X1087148D01*
Y904520D01*
X1100918D01*
Y904731D01*
X1100340Y907637D01*
X1099206Y910374D01*
X1097561Y912837D01*
X1095466Y914932D01*
X1093002Y916578D01*
X1090265Y917712D01*
X1087360Y918290D01*
D02*
G37*
G36*
X1026073Y908772D02*
X1024178Y907987D01*
X1022606Y906415D01*
X1021821Y904520D01*
X1026073D01*
Y908772D01*
D02*
G37*
G36*
X703572Y909208D02*
X698770D01*
Y904405D01*
X700953Y905310D01*
X702668Y907025D01*
X703572Y909208D01*
D02*
G37*
G36*
X672342Y907847D02*
Y903045D01*
X677144D01*
X676240Y905228D01*
X674525Y906943D01*
X672342Y907847D01*
D02*
G37*
G36*
X669802D02*
X667619Y906943D01*
X665904Y905228D01*
X665000Y903045D01*
X669802D01*
Y907847D01*
D02*
G37*
G36*
X1026073Y901980D02*
X1021821D01*
X1022606Y900085D01*
X1024178Y898513D01*
X1026073Y897728D01*
Y901980D01*
D02*
G37*
G36*
X677144Y900505D02*
X672342D01*
Y895703D01*
X674525Y896607D01*
X676240Y898322D01*
X677144Y900505D01*
D02*
G37*
G36*
X669802D02*
X665000D01*
X665904Y898322D01*
X667619Y896607D01*
X669802Y895703D01*
Y900505D01*
D02*
G37*
G36*
X1048440Y901980D02*
X1043170D01*
Y893960D01*
X1048440D01*
Y901980D01*
D02*
G37*
G36*
X787116Y898572D02*
Y893770D01*
X791919D01*
X791014Y895953D01*
X789299Y897668D01*
X787116Y898572D01*
D02*
G37*
G36*
X784576D02*
X782393Y897668D01*
X780678Y895953D01*
X779774Y893770D01*
X784576D01*
Y898572D01*
D02*
G37*
G36*
X1008591Y898347D02*
X996051D01*
Y883307D01*
X1008591D01*
Y885560D01*
X1008658Y885683D01*
X1008691Y885997D01*
X1008730Y886107D01*
X1008795Y886205D01*
X1008925Y886326D01*
X1009163Y886471D01*
X1009531Y886622D01*
X1010033Y886757D01*
X1010664Y886862D01*
X1011420Y886929D01*
X1012327Y886953D01*
X1012395Y886983D01*
X1012524D01*
X1013552Y886557D01*
X1015251D01*
X1016821Y887207D01*
X1018022Y888408D01*
X1018672Y889978D01*
Y891676D01*
X1018022Y893246D01*
X1016821Y894447D01*
X1015251Y895097D01*
X1013552D01*
X1012524Y894671D01*
X1012395D01*
X1012327Y894701D01*
X1011420Y894725D01*
X1010664Y894792D01*
X1010033Y894897D01*
X1009531Y895032D01*
X1009163Y895182D01*
X1008925Y895328D01*
X1008795Y895449D01*
X1008730Y895546D01*
X1008691Y895657D01*
X1008658Y895971D01*
X1008591Y896094D01*
Y898347D01*
D02*
G37*
G36*
X791919Y891230D02*
X787116D01*
Y886428D01*
X789299Y887332D01*
X791014Y889047D01*
X791919Y891230D01*
D02*
G37*
G36*
X784576D02*
X779774D01*
X780678Y889047D01*
X782393Y887332D01*
X784576Y886428D01*
Y891230D01*
D02*
G37*
G36*
X940355Y890521D02*
Y886321D01*
X944555D01*
X943781Y888189D01*
X942223Y889748D01*
X940355Y890521D01*
D02*
G37*
G36*
X927230Y894341D02*
X921960D01*
Y886321D01*
X927230D01*
Y894341D01*
D02*
G37*
G36*
X860248Y890720D02*
X852228D01*
Y885450D01*
X860248D01*
Y890720D01*
D02*
G37*
G36*
X849688D02*
X841668D01*
Y885450D01*
X849688D01*
Y890720D01*
D02*
G37*
G36*
X804572Y940500D02*
X792428D01*
X793332Y938317D01*
X794109Y937540D01*
X793583Y936270D01*
X789230D01*
Y923730D01*
X794233D01*
X794356Y923663D01*
X794575Y923640D01*
X794601Y923631D01*
X794623Y923616D01*
X794679Y923556D01*
X794770Y923408D01*
X794875Y923150D01*
X794975Y922778D01*
X795055Y922297D01*
X795107Y921712D01*
X795126Y920994D01*
X795166Y920904D01*
Y917185D01*
X795420Y915909D01*
X796143Y914827D01*
X815328Y895642D01*
X816409Y894920D01*
X817685Y894666D01*
X861074D01*
X861164Y894626D01*
X861883Y894607D01*
X862469Y894556D01*
X862952Y894477D01*
X863325Y894378D01*
X863585Y894273D01*
X863734Y894184D01*
X863793Y894130D01*
X863804Y894112D01*
X863811Y894095D01*
X863833Y893884D01*
X863900Y893763D01*
Y892730D01*
X865021D01*
X865200Y892656D01*
X865272Y892685D01*
X865346Y892664D01*
X865468Y892730D01*
X867653D01*
X867776Y892663D01*
X867995Y892640D01*
X868020Y892631D01*
X868042Y892617D01*
X868098Y892556D01*
X868189Y892408D01*
X868295Y892150D01*
X868395Y891778D01*
X868475Y891296D01*
X868527Y890712D01*
X868545Y889994D01*
X868586Y889904D01*
Y885581D01*
X868839Y884305D01*
X869562Y883223D01*
X873476Y879309D01*
Y875526D01*
X873436Y875436D01*
X873417Y874718D01*
X873365Y874134D01*
X873285Y873652D01*
X873185Y873280D01*
X873080Y873022D01*
X872989Y872874D01*
X872933Y872813D01*
X872911Y872799D01*
X872885Y872790D01*
X872666Y872767D01*
X872543Y872700D01*
X868165D01*
Y866680D01*
X864708D01*
X859708Y871680D01*
Y877640D01*
X860248D01*
Y882910D01*
X850958D01*
X841668D01*
Y880112D01*
X799208Y879930D01*
X796208Y877180D01*
Y871919D01*
X794938Y871393D01*
X794455Y871877D01*
X792587Y872650D01*
Y867180D01*
Y861710D01*
X794455Y862483D01*
X794938Y862967D01*
X796208Y862441D01*
Y851794D01*
X795270Y850993D01*
X794938Y850993D01*
X781331D01*
X781233Y851052D01*
X781129Y851027D01*
X781031Y851067D01*
X780851Y850993D01*
X779730D01*
Y849999D01*
X779565Y849928D01*
X779270Y849843D01*
X778881Y849768D01*
X777717Y849666D01*
X777221Y849656D01*
X776667Y849662D01*
X776149Y849688D01*
X775885Y849952D01*
X774316Y850602D01*
X772617D01*
X771048Y849952D01*
X769979Y848884D01*
X769357Y848976D01*
X768709Y849273D01*
Y868628D01*
X768749Y868717D01*
X768768Y869370D01*
X768818Y869903D01*
X768897Y870350D01*
X768997Y870710D01*
X769109Y870981D01*
X769219Y871168D01*
X769320Y871287D01*
X769412Y871361D01*
X769512Y871413D01*
X769764Y871488D01*
X769879Y871581D01*
X770108Y871626D01*
X770942Y872183D01*
X771499Y873017D01*
X771694Y874000D01*
Y876500D01*
X771499Y877483D01*
X770942Y878317D01*
X770108Y878874D01*
X769125Y879069D01*
X761625D01*
X760642Y878874D01*
X759808Y878317D01*
X759251Y877483D01*
X759056Y876500D01*
Y874000D01*
X759251Y873017D01*
X759808Y872183D01*
X760642Y871626D01*
X760871Y871581D01*
X760986Y871488D01*
X761238Y871413D01*
X761338Y871361D01*
X761430Y871287D01*
X761531Y871168D01*
X761641Y870981D01*
X761753Y870710D01*
X761853Y870350D01*
X761932Y869903D01*
X761982Y869370D01*
X762001Y868717D01*
X762041Y868628D01*
Y845557D01*
X762295Y844281D01*
X763018Y843199D01*
X774986Y831231D01*
X776067Y830508D01*
X777121Y830299D01*
X777313Y830214D01*
X777978Y830200D01*
X778526Y830159D01*
X778979Y830097D01*
X779330Y830018D01*
X779573Y829935D01*
X779666Y829888D01*
X779667Y829881D01*
X779730Y829770D01*
Y828753D01*
X780851D01*
X781031Y828679D01*
X781115Y828714D01*
X781203Y828690D01*
X781314Y828753D01*
X793673D01*
X793774Y828693D01*
X793874Y828718D01*
X793969Y828679D01*
X794149Y828753D01*
X795270D01*
Y829757D01*
X795292Y829794D01*
X795451Y829865D01*
X795742Y829952D01*
X796126Y830029D01*
X797286Y830135D01*
X797996Y830149D01*
X798088Y830189D01*
X801353D01*
X821400Y810143D01*
X822482Y809420D01*
X823541Y809209D01*
X823733Y809126D01*
X824614Y809110D01*
Y804103D01*
X837154D01*
Y819120D01*
X837154Y819143D01*
X837155Y819176D01*
X836706Y819211D01*
X836703Y819143D01*
X824614D01*
Y818018D01*
X823440Y817532D01*
X805313Y835660D01*
X805524Y836519D01*
X805802Y836930D01*
X838223D01*
X838378Y836494D01*
X838434Y835660D01*
X837711Y835177D01*
X837711Y835177D01*
X835954Y833420D01*
X835342Y832503D01*
X835127Y831423D01*
X835127Y831423D01*
Y830794D01*
X834723Y830627D01*
X833165Y829068D01*
X832391Y827200D01*
X837861D01*
Y825930D01*
X839131D01*
Y820460D01*
X840999Y821233D01*
X842558Y822792D01*
X843401Y824828D01*
Y826640D01*
X849688D01*
Y833180D01*
X850958D01*
Y834450D01*
X860248D01*
Y839720D01*
X859458D01*
Y846930D01*
X864458Y851930D01*
X868165D01*
Y839660D01*
Y833160D01*
Y826660D01*
Y820160D01*
Y813660D01*
Y807160D01*
X883975D01*
X884155Y807086D01*
X884223Y807114D01*
X884294Y807093D01*
X885455Y807160D01*
X885980Y806107D01*
Y794096D01*
X885940Y794006D01*
X885921Y793288D01*
X885869Y792703D01*
X885789Y792222D01*
X885689Y791850D01*
X885583Y791592D01*
X885493Y791444D01*
X885437Y791384D01*
X885414Y791369D01*
X885389Y791360D01*
X885170Y791337D01*
X885047Y791270D01*
X879980D01*
Y778730D01*
X881250D01*
Y771270D01*
X879980D01*
Y758730D01*
X882520D01*
X882574Y758676D01*
X891000D01*
X891000Y758676D01*
X891000Y758676D01*
X893659D01*
X893706Y758656D01*
X896705Y758625D01*
X896712Y758628D01*
X896720Y758625D01*
X896841Y758676D01*
X909395D01*
X909502Y758626D01*
X910079Y758604D01*
X910275Y758583D01*
X910453Y758554D01*
X910598Y758521D01*
X910707Y758487D01*
X910783Y758457D01*
X910824Y758435D01*
X910836Y758427D01*
X910898Y758372D01*
X911119Y758295D01*
X911535Y757880D01*
X913104Y757230D01*
X914803D01*
X916372Y757880D01*
X917168Y758676D01*
X923112D01*
Y742981D01*
X922722Y742591D01*
X839377D01*
X838742Y743218D01*
X838600Y743730D01*
X838653Y744978D01*
X838674Y745031D01*
X838600Y745210D01*
Y756270D01*
X831060D01*
Y745210D01*
X830986Y745031D01*
X831060Y744851D01*
Y743730D01*
X831338D01*
X831451Y742196D01*
X831455Y741590D01*
X831536Y741400D01*
X831750Y740324D01*
X832473Y739242D01*
X834816Y736899D01*
X835897Y736177D01*
X837173Y735923D01*
X924103D01*
X925379Y736177D01*
X926461Y736899D01*
X928804Y739242D01*
X929527Y740324D01*
X929781Y741600D01*
Y763334D01*
X932911Y766464D01*
X933966D01*
Y766700D01*
X935236Y767369D01*
X936942Y766662D01*
Y772734D01*
X938212D01*
Y774004D01*
X944284D01*
X943380Y776187D01*
X941665Y777902D01*
X940129Y778539D01*
X940129Y779913D01*
X940723Y780160D01*
X941925Y781361D01*
X942574Y782930D01*
Y784629D01*
X941925Y786198D01*
X940723Y787399D01*
X939154Y788049D01*
X937455D01*
X935886Y787399D01*
X935470Y786984D01*
X935250Y786908D01*
X934206Y787461D01*
X933966Y787879D01*
Y800730D01*
X937042D01*
X965448Y772323D01*
X965448Y772323D01*
X966365Y771711D01*
X967446Y771496D01*
X967446Y771496D01*
X974042D01*
X974154Y771446D01*
X974681Y771432D01*
X975096Y771396D01*
X975427Y771341D01*
X975669Y771275D01*
X975817Y771215D01*
X975819Y771214D01*
X975823Y771177D01*
X975889Y771054D01*
Y766800D01*
X988429D01*
X988608Y766070D01*
X988608Y766069D01*
X988851Y765705D01*
X989441Y764822D01*
X996031Y758232D01*
X997278Y757399D01*
X998349Y757186D01*
X998589Y756779D01*
X998740Y756215D01*
X998736Y755842D01*
X997266Y754371D01*
X996046Y752258D01*
X995414Y749900D01*
Y747459D01*
X996046Y745101D01*
X997266Y742988D01*
X998992Y741262D01*
X1001106Y740041D01*
X1003464Y739409D01*
X1005905D01*
X1008262Y740041D01*
X1010376Y741262D01*
X1012102Y742988D01*
X1013323Y745101D01*
X1013954Y747459D01*
Y749900D01*
X1013323Y752258D01*
X1012102Y754371D01*
X1010638Y755836D01*
X1011007Y757106D01*
X1023762D01*
X1024131Y755836D01*
X1022666Y754371D01*
X1021446Y752258D01*
X1020814Y749900D01*
Y747459D01*
X1021446Y745101D01*
X1022666Y742988D01*
X1024392Y741262D01*
X1026506Y740041D01*
X1028864Y739409D01*
X1031305D01*
X1033662Y740041D01*
X1035776Y741262D01*
X1037502Y742988D01*
X1038723Y745101D01*
X1039354Y747459D01*
Y749900D01*
X1038723Y752258D01*
X1037502Y754371D01*
X1036038Y755836D01*
X1036407Y757106D01*
X1046214D01*
Y739409D01*
X1064754D01*
Y757950D01*
X1059328D01*
Y758021D01*
X1059036Y759492D01*
X1058202Y760739D01*
X1058202Y760739D01*
X1055273Y763668D01*
X1054026Y764501D01*
X1052555Y764794D01*
X1052555Y764794D01*
X1000342D01*
X999508Y765627D01*
X999994Y766800D01*
X1008429D01*
Y768070D01*
X1025670D01*
X1029096Y771496D01*
X1031920D01*
X1031920Y771496D01*
X1033001Y771711D01*
X1033917Y772323D01*
X1051313Y789719D01*
X1051413Y789752D01*
X1051797Y790087D01*
X1052183Y790345D01*
X1052650Y790585D01*
X1053203Y790804D01*
X1053842Y790995D01*
X1054568Y791154D01*
X1055361Y791276D01*
X1057265Y791416D01*
X1058332Y791426D01*
X1058577Y791530D01*
X1059620D01*
X1061978Y792162D01*
X1064092Y793382D01*
X1065818Y795108D01*
X1067038Y797222D01*
X1067670Y799580D01*
Y802020D01*
X1067038Y804378D01*
X1065818Y806492D01*
X1064092Y808218D01*
X1061978Y809438D01*
X1059620Y810070D01*
X1058400D01*
Y816930D01*
X1059620D01*
X1061978Y817562D01*
X1064092Y818782D01*
X1065818Y820508D01*
X1067038Y822622D01*
X1067670Y824980D01*
Y827420D01*
X1067038Y829778D01*
X1065818Y831892D01*
X1064092Y833618D01*
X1061978Y834838D01*
X1061065Y835083D01*
X1060861Y835246D01*
X1058546Y835914D01*
X1056654Y836557D01*
X1055157Y837178D01*
X1054590Y837462D01*
X1054122Y837734D01*
X1053771Y837979D01*
X1053464Y838247D01*
X1053363Y838281D01*
X1052177Y839467D01*
X1051261Y840079D01*
X1050180Y840294D01*
X1050180Y840294D01*
X1005429D01*
X1004349Y840079D01*
X1003432Y839467D01*
X1000869Y836904D01*
X1000257Y835988D01*
X1000042Y834907D01*
X1000042Y834907D01*
Y834368D01*
X999992Y834256D01*
X999978Y833728D01*
X999941Y833313D01*
X999886Y832982D01*
X999821Y832740D01*
X999761Y832592D01*
X999760Y832591D01*
X999722Y832587D01*
X999600Y832520D01*
X995889D01*
X995889Y832520D01*
X995711Y833053D01*
X995363Y833572D01*
X995363Y833572D01*
X995346Y833598D01*
X994877Y834300D01*
X994877Y834300D01*
X982189Y846988D01*
X980942Y847821D01*
X979471Y848114D01*
X979471Y848114D01*
X968020D01*
Y853770D01*
X965237D01*
X965114Y853837D01*
X964800Y853870D01*
X964690Y853909D01*
X964592Y853973D01*
X964471Y854104D01*
X964326Y854342D01*
X964175Y854710D01*
X964040Y855212D01*
X963935Y855843D01*
X963868Y856598D01*
X963850Y857280D01*
X964211Y858149D01*
Y859848D01*
X963560Y861417D01*
X962359Y862618D01*
X960790Y863268D01*
X959091D01*
X957522Y862618D01*
X956321Y861417D01*
X955670Y859848D01*
Y858149D01*
X956087Y857144D01*
X956072Y856598D01*
X956006Y855843D01*
X955900Y855212D01*
X955765Y854710D01*
X955615Y854342D01*
X955469Y854104D01*
X955348Y853973D01*
X955251Y853909D01*
X955140Y853870D01*
X954826Y853837D01*
X954704Y853770D01*
X951980D01*
Y846514D01*
X947023D01*
X946928Y846555D01*
X944913Y846574D01*
X944215Y846605D01*
Y859155D01*
X946990Y859307D01*
X947070Y859346D01*
X949000D01*
X950276Y859600D01*
X951357Y860322D01*
X956701Y865666D01*
X973045D01*
X973135Y865626D01*
X973852Y865607D01*
X974437Y865555D01*
X974919Y865475D01*
X975290Y865375D01*
X975548Y865269D01*
X975696Y865179D01*
X975757Y865123D01*
X975772Y865100D01*
X975781Y865075D01*
X975804Y864856D01*
X975871Y864733D01*
Y863116D01*
X988410D01*
Y878156D01*
X975871D01*
Y873267D01*
X975804Y873144D01*
X975781Y872925D01*
X975772Y872899D01*
X975757Y872877D01*
X975696Y872821D01*
X975548Y872730D01*
X975291Y872625D01*
X974919Y872525D01*
X974437Y872445D01*
X973852Y872393D01*
X973135Y872374D01*
X973045Y872334D01*
X956345D01*
X955973Y872868D01*
X955749Y873604D01*
X956330Y874474D01*
X956584Y875750D01*
Y881920D01*
X962157Y887493D01*
X973225D01*
X973316Y887453D01*
X974033Y887434D01*
X974618Y887382D01*
X975099Y887302D01*
X975471Y887202D01*
X975729Y887096D01*
X975877Y887006D01*
X975938Y886950D01*
X975953Y886927D01*
X975961Y886902D01*
X975984Y886683D01*
X976051Y886560D01*
Y883307D01*
X988591D01*
Y898347D01*
X976051D01*
Y895094D01*
X975984Y894971D01*
X975961Y894752D01*
X975953Y894726D01*
X975938Y894704D01*
X975877Y894648D01*
X975729Y894557D01*
X975471Y894452D01*
X975099Y894352D01*
X974618Y894272D01*
X974033Y894220D01*
X973316Y894201D01*
X973225Y894161D01*
X960776D01*
X959500Y893907D01*
X958418Y893185D01*
X950892Y885659D01*
X950170Y884577D01*
X949916Y883301D01*
Y877131D01*
X945485Y872700D01*
X944215D01*
X942985Y872772D01*
X942949Y872760D01*
X942915Y872774D01*
X942736Y872700D01*
X926925D01*
X925420Y874205D01*
X916016D01*
X915432Y874591D01*
X914832Y875475D01*
X914842Y875598D01*
X914923Y876079D01*
X915023Y876451D01*
X915128Y876709D01*
X915219Y876857D01*
X915275Y876918D01*
X915297Y876933D01*
X915323Y876941D01*
X915542Y876964D01*
X915664Y877031D01*
X916770D01*
Y878326D01*
X916772Y878332D01*
X916770Y878337D01*
Y891542D01*
X916816Y891627D01*
X916794Y891700D01*
X916824Y891771D01*
X916770Y891900D01*
Y893071D01*
X915715D01*
X915593Y893138D01*
X915374Y893161D01*
X915348Y893170D01*
X915326Y893185D01*
X915270Y893245D01*
X915179Y893393D01*
X915074Y893651D01*
X914974Y894023D01*
X914893Y894505D01*
X914842Y895089D01*
X914823Y895807D01*
X914783Y895897D01*
Y911220D01*
X914823Y911310D01*
X914842Y912028D01*
X914893Y912612D01*
X914974Y913094D01*
X915074Y913465D01*
X915179Y913723D01*
X915270Y913872D01*
X915326Y913932D01*
X915348Y913947D01*
X915374Y913956D01*
X915593Y913979D01*
X915715Y914046D01*
X918270D01*
Y930585D01*
X904730D01*
Y914046D01*
X907182D01*
X907305Y913979D01*
X907524Y913956D01*
X907549Y913947D01*
X907572Y913932D01*
X907628Y913872D01*
X907718Y913723D01*
X907824Y913466D01*
X907924Y913094D01*
X908004Y912612D01*
X908056Y912028D01*
X908075Y911310D01*
X908115Y911220D01*
Y895896D01*
X908075Y895805D01*
X908056Y895086D01*
X908007Y894497D01*
X907929Y894012D01*
X907832Y893635D01*
X907729Y893373D01*
X907641Y893223D01*
X907591Y893167D01*
X907581Y893160D01*
X907578Y893159D01*
X907381Y893137D01*
X907260Y893071D01*
X906230D01*
Y891950D01*
X906156Y891771D01*
X906186Y891697D01*
X906164Y891621D01*
X906230Y891500D01*
Y878604D01*
X906164Y878486D01*
X906187Y878407D01*
X906156Y878332D01*
X906230Y878152D01*
Y877031D01*
X907258D01*
X907376Y876966D01*
X907553Y876946D01*
X907598Y876893D01*
X907684Y876742D01*
X907786Y876477D01*
X907881Y876098D01*
X907957Y875609D01*
X908006Y875018D01*
X908024Y874298D01*
X908064Y874207D01*
Y859576D01*
X898185Y849697D01*
X896915Y850223D01*
Y850912D01*
X896258Y852499D01*
X895043Y853714D01*
X893456Y854371D01*
X891738D01*
X891395Y854229D01*
X891390Y854230D01*
X890203Y855110D01*
X890133Y864680D01*
X888208Y866605D01*
Y866680D01*
X885455D01*
Y872700D01*
X881077D01*
X880954Y872767D01*
X880735Y872790D01*
X880710Y872799D01*
X880687Y872813D01*
X880631Y872874D01*
X880540Y873022D01*
X880435Y873280D01*
X880335Y873652D01*
X880255Y874134D01*
X880203Y874718D01*
X880184Y875436D01*
X880144Y875526D01*
Y880690D01*
X879890Y881966D01*
X879167Y883047D01*
X875254Y886962D01*
Y889904D01*
X875294Y889994D01*
X875312Y890712D01*
X875364Y891296D01*
X875444Y891778D01*
X875545Y892150D01*
X875650Y892408D01*
X875741Y892556D01*
X875797Y892617D01*
X875819Y892631D01*
X875844Y892640D01*
X876063Y892663D01*
X876186Y892730D01*
X878371D01*
X878493Y892664D01*
X878567Y892685D01*
X878639Y892656D01*
X878818Y892730D01*
X879939D01*
Y893763D01*
X880006Y893884D01*
X880028Y894095D01*
X880035Y894112D01*
X880046Y894130D01*
X880105Y894184D01*
X880254Y894273D01*
X880514Y894378D01*
X880887Y894477D01*
X881370Y894556D01*
X881956Y894607D01*
X882675Y894626D01*
X882765Y894666D01*
X882833D01*
X882923Y894626D01*
X883640Y894607D01*
X884225Y894555D01*
X884706Y894475D01*
X885078Y894375D01*
X885336Y894269D01*
X885484Y894179D01*
X885545Y894123D01*
X885560Y894100D01*
X885569Y894075D01*
X885592Y893856D01*
X885658Y893733D01*
Y890230D01*
X891270D01*
X891523Y888960D01*
X889725Y888215D01*
X888010Y886501D01*
X887106Y884317D01*
X899251D01*
X898346Y886501D01*
X896631Y888215D01*
X894834Y888960D01*
X895087Y890230D01*
X900698D01*
Y902770D01*
X887256D01*
X887154Y902830D01*
X887054Y902805D01*
X886959Y902844D01*
X886780Y902770D01*
X885658D01*
Y901766D01*
X885637Y901730D01*
X885477Y901658D01*
X885187Y901571D01*
X884802Y901495D01*
X883643Y901388D01*
X882932Y901374D01*
X882840Y901334D01*
X882765D01*
X882675Y901374D01*
X881956Y901393D01*
X881370Y901444D01*
X880887Y901523D01*
X880514Y901622D01*
X880254Y901727D01*
X880106Y901816D01*
X880046Y901870D01*
X880035Y901888D01*
X880028Y901905D01*
X880006Y902116D01*
X879939Y902237D01*
Y903270D01*
X878818D01*
X878639Y903344D01*
X878567Y903314D01*
X878493Y903336D01*
X878371Y903270D01*
X865468D01*
X865346Y903336D01*
X865272Y903314D01*
X865200Y903344D01*
X865021Y903270D01*
X863900D01*
Y902237D01*
X863833Y902116D01*
X863811Y901905D01*
X863804Y901888D01*
X863793Y901870D01*
X863734Y901816D01*
X863585Y901727D01*
X863325Y901622D01*
X862952Y901523D01*
X862469Y901444D01*
X861883Y901393D01*
X861164Y901374D01*
X861074Y901334D01*
X825708D01*
X825455Y902604D01*
X825999Y902829D01*
X827571Y904401D01*
X828356Y906297D01*
X817311D01*
X818096Y904401D01*
X819394Y903103D01*
X819212Y901968D01*
X819094Y901744D01*
X818731Y901669D01*
X801834Y918566D01*
Y920904D01*
X801874Y920994D01*
X801893Y921712D01*
X801945Y922297D01*
X802025Y922778D01*
X802125Y923150D01*
X802231Y923408D01*
X802321Y923556D01*
X802377Y923616D01*
X802400Y923631D01*
X802425Y923640D01*
X802644Y923663D01*
X802767Y923730D01*
X807770D01*
Y925205D01*
X809040Y925731D01*
X809508Y925263D01*
X811404Y924478D01*
Y930000D01*
Y935522D01*
X809508Y934737D01*
X809040Y934269D01*
X807770Y934795D01*
Y936270D01*
X803417D01*
X802891Y937540D01*
X803668Y938317D01*
X804572Y940500D01*
D02*
G37*
G36*
X944555Y883781D02*
X940355D01*
Y879581D01*
X942223Y880355D01*
X943781Y881913D01*
X944555Y883781D01*
D02*
G37*
G36*
X935040Y894341D02*
X929770D01*
Y885051D01*
Y875761D01*
X935040D01*
Y879602D01*
X936310Y880204D01*
X937815Y879581D01*
Y885051D01*
Y890521D01*
X936310Y889898D01*
X935040Y890500D01*
Y894341D01*
D02*
G37*
G36*
X899251Y881777D02*
X894448D01*
Y876975D01*
X896631Y877880D01*
X898346Y879594D01*
X899251Y881777D01*
D02*
G37*
G36*
X891908D02*
X887106D01*
X888010Y879594D01*
X889725Y877880D01*
X891908Y876975D01*
Y881777D01*
D02*
G37*
G36*
X1084608Y881422D02*
X1079806D01*
X1080710Y879239D01*
X1082425Y877524D01*
X1084608Y876620D01*
Y881422D01*
D02*
G37*
G36*
X649142Y884693D02*
X647922Y884532D01*
X645601Y883571D01*
X643608Y882042D01*
X642079Y880049D01*
X641118Y877729D01*
X640875Y875888D01*
X649142D01*
Y884693D01*
D02*
G37*
G36*
X669665Y880062D02*
Y875810D01*
X673918D01*
X673133Y877705D01*
X671561Y879277D01*
X669665Y880062D01*
D02*
G37*
G36*
X927230Y883781D02*
X921960D01*
Y875761D01*
X927230D01*
Y883781D01*
D02*
G37*
G36*
X673918Y873270D02*
X669665D01*
Y869017D01*
X671561Y869802D01*
X673133Y871374D01*
X673918Y873270D01*
D02*
G37*
G36*
X651682Y884693D02*
Y874618D01*
Y864543D01*
X652903Y864704D01*
X655223Y865665D01*
X657216Y867194D01*
X658745Y869187D01*
X659187Y870254D01*
X659495Y870360D01*
X660079Y870508D01*
X660711Y870615D01*
X661390Y870681D01*
X662161Y870705D01*
X662228Y870735D01*
X664297D01*
X665230Y869802D01*
X667125Y869017D01*
Y874540D01*
Y880062D01*
X665230Y879277D01*
X664376Y878423D01*
X662247D01*
X662180Y878453D01*
X661420Y878476D01*
X660748Y878542D01*
X660125Y878649D01*
X659547Y878796D01*
X659216Y878912D01*
X658745Y880049D01*
X657216Y882042D01*
X655223Y883571D01*
X652903Y884532D01*
X651682Y884693D01*
D02*
G37*
G36*
X790047Y872650D02*
X788179Y871877D01*
X786620Y870318D01*
X785846Y868450D01*
X790047D01*
Y872650D01*
D02*
G37*
G36*
X1043540Y875730D02*
X1034270D01*
Y866460D01*
X1043540D01*
Y875730D01*
D02*
G37*
G36*
X1031730D02*
X1022460D01*
Y866460D01*
X1031730D01*
Y875730D01*
D02*
G37*
G36*
X649142Y873348D02*
X640875D01*
X641118Y871508D01*
X642079Y869187D01*
X643608Y867194D01*
X645601Y865665D01*
X647922Y864704D01*
X649142Y864543D01*
Y873348D01*
D02*
G37*
G36*
X900698Y868752D02*
Y863950D01*
X905501D01*
X904596Y866133D01*
X902881Y867848D01*
X900698Y868752D01*
D02*
G37*
G36*
X898158D02*
X895975Y867848D01*
X894260Y866133D01*
X893356Y863950D01*
X898158D01*
Y868752D01*
D02*
G37*
G36*
X790047Y865910D02*
X785846D01*
X786620Y864042D01*
X788179Y862483D01*
X790047Y861710D01*
Y865910D01*
D02*
G37*
G36*
X1008410Y878156D02*
X995871D01*
Y863116D01*
X1007036D01*
X1007885Y861846D01*
X1007480Y860870D01*
X1019625D01*
X1018720Y863053D01*
X1017005Y864768D01*
X1015483Y865399D01*
Y866773D01*
X1016169Y867058D01*
X1017371Y868259D01*
X1018021Y869828D01*
Y871527D01*
X1017371Y873096D01*
X1016169Y874298D01*
X1014600Y874948D01*
X1012901D01*
X1011332Y874298D01*
X1010917Y873882D01*
X1010696Y873806D01*
X1010634Y873751D01*
X1010622Y873743D01*
X1010580Y873721D01*
X1010505Y873690D01*
X1010395Y873656D01*
X1010250Y873623D01*
X1010089Y873597D01*
X1009687Y873564D01*
X1009619Y873566D01*
X1009204Y873602D01*
X1008873Y873658D01*
X1008631Y873723D01*
X1008483Y873783D01*
X1008481Y873784D01*
X1008477Y873821D01*
X1008410Y873944D01*
Y878156D01*
D02*
G37*
G36*
X905501Y861410D02*
X900698D01*
Y856608D01*
X902881Y857512D01*
X904596Y859227D01*
X905501Y861410D01*
D02*
G37*
G36*
X898158D02*
X893356D01*
X894260Y859227D01*
X895975Y857512D01*
X898158Y856608D01*
Y861410D01*
D02*
G37*
G36*
X1019625Y858330D02*
X1014822D01*
Y853528D01*
X1017005Y854432D01*
X1018720Y856147D01*
X1019625Y858330D01*
D02*
G37*
G36*
X1012282D02*
X1007480D01*
X1008384Y856147D01*
X1010099Y854432D01*
X1012282Y853528D01*
Y858330D01*
D02*
G37*
G36*
X1034220Y860870D02*
X1031780D01*
X1029422Y860238D01*
X1027308Y859018D01*
X1025582Y857292D01*
X1024362Y855178D01*
X1023730Y852820D01*
Y850380D01*
X1024362Y848022D01*
X1025582Y845908D01*
X1027308Y844182D01*
X1029422Y842962D01*
X1031780Y842330D01*
X1034220D01*
X1036578Y842962D01*
X1038692Y844182D01*
X1040418Y845908D01*
X1041638Y848022D01*
X1042270Y850380D01*
Y852820D01*
X1041638Y855178D01*
X1040418Y857292D01*
X1038692Y859018D01*
X1036578Y860238D01*
X1034220Y860870D01*
D02*
G37*
G36*
X860248Y831910D02*
X852228D01*
Y826640D01*
X860248D01*
Y831910D01*
D02*
G37*
G36*
X836591Y824660D02*
X832391D01*
X833165Y822792D01*
X834723Y821233D01*
X836591Y820460D01*
Y824660D01*
D02*
G37*
G36*
X757000Y823395D02*
Y818593D01*
X761802D01*
X760898Y820776D01*
X759183Y822491D01*
X757000Y823395D01*
D02*
G37*
G36*
X754460D02*
X752277Y822491D01*
X750562Y820776D01*
X749658Y818593D01*
X754460D01*
Y823395D01*
D02*
G37*
G36*
X731230Y819553D02*
X723460D01*
Y814783D01*
X731230D01*
Y819553D01*
D02*
G37*
G36*
X761802Y816053D02*
X757000D01*
Y811251D01*
X759183Y812155D01*
X760898Y813870D01*
X761802Y816053D01*
D02*
G37*
G36*
X754460D02*
X749658D01*
X750562Y813870D01*
X752277Y812155D01*
X754460Y811251D01*
Y816053D01*
D02*
G37*
G36*
X857154Y819143D02*
X844614D01*
Y804103D01*
X857154D01*
Y807357D01*
X857220Y807479D01*
X857243Y807698D01*
X857252Y807724D01*
X857267Y807746D01*
X857328Y807802D01*
X857476Y807893D01*
X857734Y807998D01*
X858106Y808098D01*
X858587Y808179D01*
X859135Y808227D01*
X859225Y808225D01*
X859326Y808217D01*
X859540Y808003D01*
X861109Y807353D01*
X862808D01*
X864377Y808003D01*
X865578Y809204D01*
X866228Y810774D01*
Y812473D01*
X865578Y814042D01*
X864377Y815243D01*
X862808Y815893D01*
X861109D01*
X859540Y815243D01*
X859373Y815076D01*
X858821Y815047D01*
X858587Y815068D01*
X858106Y815148D01*
X857734Y815248D01*
X857476Y815354D01*
X857328Y815444D01*
X857267Y815500D01*
X857252Y815523D01*
X857243Y815548D01*
X857220Y815767D01*
X857154Y815890D01*
Y819143D01*
D02*
G37*
G36*
X707230Y813540D02*
X701210D01*
Y803770D01*
X707230D01*
Y813540D01*
D02*
G37*
G36*
X781031Y812967D02*
X780851Y812893D01*
X779730D01*
Y812266D01*
X779514Y812215D01*
X779078Y812146D01*
X776929Y812007D01*
X776016Y811998D01*
X775944Y811967D01*
X763929D01*
X762458Y811674D01*
X761211Y810841D01*
X761211Y810841D01*
X758282Y807912D01*
X757449Y806665D01*
X757156Y805194D01*
X757156Y805194D01*
Y804331D01*
X757126Y804264D01*
X757069Y802509D01*
X757004Y801844D01*
X756916Y801288D01*
X756814Y800864D01*
X756713Y800584D01*
X756678Y800520D01*
X755730D01*
Y799399D01*
X755656Y799220D01*
X755705Y799102D01*
X755677Y798977D01*
X755730Y798895D01*
Y784480D01*
X766270D01*
Y787234D01*
X766337Y787356D01*
X766370Y787670D01*
X766409Y787781D01*
X766473Y787878D01*
X766604Y787999D01*
X766842Y788145D01*
X767210Y788295D01*
X767712Y788430D01*
X768343Y788535D01*
X768637Y788561D01*
X768685Y788558D01*
X768855Y788535D01*
X768967Y788513D01*
X768991Y788507D01*
X769031Y788490D01*
X769052Y788490D01*
X769059Y788488D01*
X769515Y788032D01*
X771452Y787230D01*
X772096D01*
X772103Y787226D01*
X772118Y787211D01*
X772158Y787195D01*
X772179Y787183D01*
X772234Y787146D01*
X773377Y786140D01*
X773672Y785849D01*
X773745Y785819D01*
X784782Y774782D01*
X784782Y774782D01*
X786029Y773949D01*
X787500Y773656D01*
X820810D01*
X820878Y773626D01*
X821785Y773602D01*
X822541Y773535D01*
X823172Y773430D01*
X823673Y773295D01*
X824042Y773145D01*
X824280Y772999D01*
X824410Y772878D01*
X824475Y772780D01*
X824514Y772670D01*
X824547Y772356D01*
X824614Y772234D01*
Y770158D01*
X837154D01*
Y785198D01*
X824614D01*
Y782766D01*
X824547Y782644D01*
X824514Y782330D01*
X824475Y782219D01*
X824410Y782122D01*
X824280Y782001D01*
X824042Y781855D01*
X823674Y781705D01*
X823172Y781570D01*
X822541Y781465D01*
X821785Y781398D01*
X820878Y781374D01*
X820810Y781344D01*
X789092D01*
X779193Y791243D01*
X779166Y791313D01*
X778337Y792179D01*
X777986Y792590D01*
X777881Y792727D01*
X777817Y792821D01*
X777805Y792842D01*
X777789Y792882D01*
X777774Y792897D01*
X777770Y792904D01*
Y793548D01*
X776968Y795485D01*
X775485Y796968D01*
X773548Y797770D01*
X771452D01*
X769515Y796968D01*
X769059Y796512D01*
X769052Y796510D01*
X769031Y796510D01*
X768991Y796493D01*
X768967Y796487D01*
X768902Y796474D01*
X768514Y796450D01*
X768343Y796465D01*
X767712Y796570D01*
X767210Y796705D01*
X766842Y796855D01*
X766604Y797001D01*
X766473Y797122D01*
X766409Y797219D01*
X766370Y797330D01*
X766337Y797644D01*
X766270Y797766D01*
Y798895D01*
X766323Y798977D01*
X766295Y799102D01*
X766344Y799220D01*
X766270Y799399D01*
Y800520D01*
X765322D01*
X765287Y800584D01*
X765186Y800864D01*
X765084Y801288D01*
X764999Y801828D01*
X764893Y803270D01*
X765141Y803570D01*
X765887Y804279D01*
X775944D01*
X776016Y804249D01*
X776940Y804239D01*
X778476Y804165D01*
X779051Y804105D01*
X779514Y804031D01*
X779730Y803980D01*
Y803353D01*
X780851D01*
X781031Y803279D01*
X781204Y803351D01*
X781391Y803327D01*
X781424Y803353D01*
X795270D01*
Y812893D01*
X781424D01*
X781391Y812919D01*
X781204Y812896D01*
X781031Y812967D01*
D02*
G37*
G36*
X1084685Y802208D02*
X1082501Y801304D01*
X1080787Y799589D01*
X1079882Y797406D01*
X1084685D01*
Y802208D01*
D02*
G37*
G36*
X788770Y801557D02*
Y796755D01*
X793572D01*
X792668Y798938D01*
X790953Y800653D01*
X788770Y801557D01*
D02*
G37*
G36*
X786230D02*
X784047Y800653D01*
X782332Y798938D01*
X781428Y796755D01*
X786230D01*
Y801557D01*
D02*
G37*
G36*
X651582Y813508D02*
X649242D01*
X646981Y812902D01*
X644953Y811732D01*
X643298Y810077D01*
X642128Y808049D01*
X641522Y805788D01*
Y803448D01*
X642128Y801187D01*
X643298Y799159D01*
X644953Y797504D01*
X646981Y796334D01*
X649242Y795728D01*
X651582D01*
X653843Y796334D01*
X655871Y797504D01*
X657526Y799159D01*
X658696Y801187D01*
X659302Y803448D01*
Y805788D01*
X658696Y808049D01*
X657526Y810077D01*
X655871Y811732D01*
X653843Y812902D01*
X651582Y813508D01*
D02*
G37*
G36*
X666230Y799670D02*
X664047Y798766D01*
X662332Y797051D01*
X661428Y794868D01*
X666230D01*
Y799670D01*
D02*
G37*
G36*
X857154Y802520D02*
X844614D01*
Y787480D01*
X857154D01*
Y790733D01*
X857220Y790856D01*
X857243Y791075D01*
X857252Y791100D01*
X857267Y791123D01*
X857328Y791179D01*
X857476Y791270D01*
X857734Y791375D01*
X858106Y791475D01*
X858587Y791555D01*
X859172Y791607D01*
X859828Y791624D01*
X860797Y791602D01*
X860899Y791594D01*
X861112Y791380D01*
X862682Y790730D01*
X864380D01*
X865950Y791380D01*
X867151Y792581D01*
X867801Y794151D01*
Y795849D01*
X867151Y797419D01*
X865950Y798620D01*
X864380Y799270D01*
X862682D01*
X861112Y798620D01*
X860945Y798453D01*
X859596Y798382D01*
X859172Y798393D01*
X858587Y798445D01*
X858106Y798525D01*
X857734Y798625D01*
X857476Y798730D01*
X857328Y798821D01*
X857267Y798877D01*
X857252Y798900D01*
X857243Y798925D01*
X857220Y799144D01*
X857154Y799267D01*
Y802520D01*
D02*
G37*
G36*
X1092027Y794866D02*
X1087225D01*
Y790064D01*
X1089408Y790968D01*
X1091123Y792683D01*
X1092027Y794866D01*
D02*
G37*
G36*
X1084685D02*
X1079882D01*
X1080787Y792683D01*
X1082501Y790968D01*
X1084685Y790064D01*
Y794866D01*
D02*
G37*
G36*
X793572Y794215D02*
X788770D01*
Y789413D01*
X790953Y790317D01*
X792668Y792032D01*
X793572Y794215D01*
D02*
G37*
G36*
X786230D02*
X781428D01*
X782332Y792032D01*
X784047Y790317D01*
X786230Y789413D01*
Y794215D01*
D02*
G37*
G36*
X871520Y789822D02*
Y785020D01*
X876322D01*
X875418Y787203D01*
X873703Y788918D01*
X871520Y789822D01*
D02*
G37*
G36*
X868980D02*
X866797Y788918D01*
X865082Y787203D01*
X864178Y785020D01*
X868980D01*
Y789822D01*
D02*
G37*
G36*
X750540Y791230D02*
X745270D01*
Y783210D01*
X750540D01*
Y791230D01*
D02*
G37*
G36*
X876322Y782480D02*
X871520D01*
Y777678D01*
X873703Y778582D01*
X875418Y780297D01*
X876322Y782480D01*
D02*
G37*
G36*
X868980D02*
X864178D01*
X865082Y780297D01*
X866797Y778582D01*
X868980Y777678D01*
Y782480D01*
D02*
G37*
G36*
X1084685Y788490D02*
X1084473D01*
X1081568Y787912D01*
X1078830Y786778D01*
X1076367Y785132D01*
X1074272Y783037D01*
X1072626Y780574D01*
X1071492Y777837D01*
X1071289Y776812D01*
X1070073Y776444D01*
X1069853Y776664D01*
X1067670Y777568D01*
Y771496D01*
Y765424D01*
X1069853Y766328D01*
X1070841Y767316D01*
X1072339Y767018D01*
X1072626Y766326D01*
X1074272Y763863D01*
X1076367Y761768D01*
X1078830Y760122D01*
X1081568Y758988D01*
X1084473Y758410D01*
X1084685D01*
Y773450D01*
Y788490D01*
D02*
G37*
G36*
X732930Y781230D02*
X727770D01*
Y776070D01*
X729024Y776406D01*
X730516Y777267D01*
X731733Y778484D01*
X732594Y779976D01*
X732930Y781230D01*
D02*
G37*
G36*
X1087436Y788490D02*
X1087225D01*
Y774720D01*
X1100994D01*
Y774931D01*
X1100417Y777837D01*
X1099283Y780574D01*
X1097637Y783037D01*
X1095542Y785132D01*
X1093079Y786778D01*
X1090342Y787912D01*
X1087436Y788490D01*
D02*
G37*
G36*
X1065130Y777568D02*
X1062947Y776664D01*
X1061232Y774949D01*
X1060328Y772766D01*
X1065130D01*
Y777568D01*
D02*
G37*
G36*
X712230Y781230D02*
X704960D01*
Y771460D01*
X712230D01*
Y781230D01*
D02*
G37*
G36*
X857154Y785198D02*
X844614D01*
Y770158D01*
X846469D01*
X846819Y769734D01*
X847059Y768999D01*
X847060Y768987D01*
X846144Y768063D01*
X845480D01*
X845449Y768083D01*
X845359Y768063D01*
X845321D01*
X845227Y768104D01*
X844607Y768111D01*
X843952Y768147D01*
X843878Y768156D01*
X843303Y768732D01*
X841733Y769382D01*
X840034D01*
X838465Y768732D01*
X837264Y767531D01*
X836614Y765961D01*
Y764262D01*
X837264Y762693D01*
X838465Y761492D01*
X840034Y760842D01*
X841733D01*
X843024Y761377D01*
X844486Y761355D01*
X845614Y760756D01*
Y745730D01*
X856154D01*
Y761770D01*
X854304D01*
X854261Y762385D01*
X854258Y762778D01*
X854178Y762968D01*
X853964Y764045D01*
X853507Y764729D01*
X853964Y765414D01*
X854218Y766690D01*
Y767332D01*
X854258Y767422D01*
X854277Y768140D01*
X854328Y768724D01*
X854409Y769206D01*
X854509Y769578D01*
X854614Y769836D01*
X854705Y769984D01*
X854761Y770044D01*
X854783Y770059D01*
X854809Y770068D01*
X855028Y770091D01*
X855150Y770158D01*
X857154D01*
Y785198D01*
D02*
G37*
G36*
X663770Y772854D02*
Y768051D01*
X668572D01*
X667668Y770235D01*
X665953Y771949D01*
X663770Y772854D01*
D02*
G37*
G36*
X661230D02*
X659047Y771949D01*
X657332Y770235D01*
X656428Y768051D01*
X661230D01*
Y772854D01*
D02*
G37*
G36*
X869154Y772154D02*
Y767954D01*
X873354D01*
X872580Y769822D01*
X871022Y771381D01*
X869154Y772154D01*
D02*
G37*
G36*
X866614D02*
X864746Y771381D01*
X863187Y769822D01*
X862413Y767954D01*
X866614D01*
Y772154D01*
D02*
G37*
G36*
X610798Y772025D02*
X608615Y771121D01*
X606900Y769406D01*
X605995Y767223D01*
X610798D01*
Y772025D01*
D02*
G37*
G36*
X944284Y771464D02*
X939482D01*
Y766662D01*
X941665Y767566D01*
X943380Y769281D01*
X944284Y771464D01*
D02*
G37*
G36*
X1065130Y770226D02*
X1060328D01*
X1061232Y768043D01*
X1062947Y766328D01*
X1065130Y765424D01*
Y770226D01*
D02*
G37*
G36*
X781000Y768572D02*
Y763770D01*
X785802D01*
X784898Y765953D01*
X783183Y767668D01*
X781000Y768572D01*
D02*
G37*
G36*
X778460D02*
X776277Y767668D01*
X774562Y765953D01*
X773658Y763770D01*
X778460D01*
Y768572D01*
D02*
G37*
G36*
X823242Y766684D02*
Y762432D01*
X827495D01*
X826709Y764327D01*
X825137Y765899D01*
X823242Y766684D01*
D02*
G37*
G36*
X820702D02*
X818807Y765899D01*
X817235Y764327D01*
X816450Y762432D01*
X820702D01*
Y766684D01*
D02*
G37*
G36*
X668572Y765511D02*
X663770D01*
Y760709D01*
X665953Y761613D01*
X667668Y763328D01*
X668572Y765511D01*
D02*
G37*
G36*
X661230D02*
X656428D01*
X657332Y763328D01*
X659047Y761613D01*
X661230Y760709D01*
Y765511D01*
D02*
G37*
G36*
X610798Y764683D02*
X605995D01*
X606900Y762500D01*
X608615Y760785D01*
X610798Y759881D01*
Y764683D01*
D02*
G37*
G36*
X724572Y763730D02*
X719770D01*
Y758928D01*
X721953Y759832D01*
X723668Y761547D01*
X724572Y763730D01*
D02*
G37*
G36*
X717230D02*
X712428D01*
X713332Y761547D01*
X715047Y759832D01*
X717230Y758928D01*
Y763730D01*
D02*
G37*
G36*
X1100994Y772180D02*
X1087225D01*
Y758410D01*
X1087436D01*
X1090342Y758988D01*
X1093079Y760122D01*
X1095542Y761768D01*
X1097637Y763863D01*
X1099283Y766326D01*
X1100417Y769063D01*
X1100994Y771969D01*
Y772180D01*
D02*
G37*
G36*
X785802Y761230D02*
X781000D01*
Y756428D01*
X783183Y757332D01*
X784898Y759047D01*
X785802Y761230D01*
D02*
G37*
G36*
X778460D02*
X773658D01*
X774562Y759047D01*
X776277Y757332D01*
X778460Y756428D01*
Y761230D01*
D02*
G37*
G36*
X873354Y765414D02*
X862413D01*
X862871Y764310D01*
X862034Y763040D01*
X861344D01*
Y755020D01*
X874424D01*
Y763040D01*
X873734D01*
X872897Y764310D01*
X873354Y765414D01*
D02*
G37*
G36*
X630893Y768493D02*
X630682D01*
Y754723D01*
X644452D01*
Y754934D01*
X643874Y757840D01*
X642740Y760577D01*
X641094Y763041D01*
X638999Y765135D01*
X636536Y766781D01*
X633799Y767915D01*
X630893Y768493D01*
D02*
G37*
G36*
X613338Y772025D02*
Y765953D01*
Y759881D01*
X614645Y760422D01*
X615617Y759450D01*
X614950Y757840D01*
X614372Y754934D01*
Y754723D01*
X628142D01*
Y768493D01*
X627931D01*
X625025Y767915D01*
X622288Y766781D01*
X619825Y765135D01*
X619434Y764745D01*
X618164Y765271D01*
Y767166D01*
X617236Y769406D01*
X615521Y771121D01*
X613338Y772025D01*
D02*
G37*
G36*
X827495Y759892D02*
X816450D01*
X817235Y757996D01*
X817547Y757684D01*
X817848Y756482D01*
X817010Y755229D01*
X816746Y753904D01*
X816303Y753639D01*
X815446Y753409D01*
X815235Y753620D01*
X813665Y754270D01*
X811967D01*
X810397Y753620D01*
X810111Y753334D01*
X807770D01*
Y756270D01*
X789230D01*
Y743730D01*
X807770D01*
Y746666D01*
X810111D01*
X810397Y746380D01*
X811967Y745730D01*
X813665D01*
X815235Y746380D01*
X815446Y746591D01*
X816303Y746361D01*
X816746Y746096D01*
X817010Y744771D01*
X817848Y743518D01*
X819101Y742680D01*
X820560Y742390D01*
Y750000D01*
X821830D01*
Y751270D01*
X826944D01*
Y753750D01*
X826650Y755229D01*
X825812Y756482D01*
X826350Y757637D01*
X826709Y757996D01*
X827495Y759892D01*
D02*
G37*
G36*
X693540Y758790D02*
X687270D01*
Y751270D01*
X693540D01*
Y758790D01*
D02*
G37*
G36*
X684730D02*
X678460D01*
Y751270D01*
X684730D01*
Y758790D01*
D02*
G37*
G36*
X980672Y759220D02*
X980554D01*
Y749949D01*
X989824D01*
Y750067D01*
X989106Y752748D01*
X987718Y755151D01*
X985756Y757114D01*
X983353Y758501D01*
X980672Y759220D01*
D02*
G37*
G36*
X978014D02*
X977897D01*
X975216Y758501D01*
X972813Y757114D01*
X970850Y755151D01*
X969463Y752748D01*
X968744Y750067D01*
Y749949D01*
X978014D01*
Y759220D01*
D02*
G37*
G36*
X1079771Y754224D02*
Y749422D01*
X1084574D01*
X1083670Y751605D01*
X1081955Y753320D01*
X1079771Y754224D01*
D02*
G37*
G36*
X1077232D02*
X1075048Y753320D01*
X1073334Y751605D01*
X1072429Y749422D01*
X1077232D01*
Y754224D01*
D02*
G37*
G36*
X874424Y752480D02*
X869154D01*
Y744460D01*
X874424D01*
Y752480D01*
D02*
G37*
G36*
X866614D02*
X861344D01*
Y744460D01*
X866614D01*
Y752480D01*
D02*
G37*
G36*
X712270Y757520D02*
X699730D01*
Y742480D01*
X712270D01*
Y745733D01*
X712337Y745856D01*
X712360Y746075D01*
X712369Y746100D01*
X712383Y746123D01*
X712444Y746179D01*
X712592Y746270D01*
X712850Y746375D01*
X713222Y746475D01*
X713703Y746555D01*
X714288Y746607D01*
X714750Y746619D01*
X715212Y746607D01*
X715797Y746555D01*
X716278Y746475D01*
X716650Y746375D01*
X716908Y746270D01*
X717056Y746179D01*
X717116Y746123D01*
X717131Y746100D01*
X717140Y746075D01*
X717163Y745856D01*
X717230Y745733D01*
Y743730D01*
X735770D01*
Y756270D01*
X717230D01*
Y754267D01*
X717163Y754144D01*
X717140Y753925D01*
X717131Y753900D01*
X717116Y753877D01*
X717056Y753821D01*
X716908Y753730D01*
X716650Y753625D01*
X716278Y753525D01*
X715797Y753445D01*
X715212Y753393D01*
X714750Y753381D01*
X714288Y753393D01*
X713703Y753445D01*
X713222Y753525D01*
X712850Y753625D01*
X712592Y753730D01*
X712444Y753821D01*
X712383Y753877D01*
X712369Y753900D01*
X712360Y753925D01*
X712337Y754144D01*
X712270Y754267D01*
Y757520D01*
D02*
G37*
G36*
X826944Y748730D02*
X823100D01*
Y742390D01*
X824559Y742680D01*
X825812Y743518D01*
X826650Y744771D01*
X826944Y746250D01*
Y748730D01*
D02*
G37*
G36*
X1084574Y746882D02*
X1079771D01*
Y742080D01*
X1081955Y742984D01*
X1083670Y744699D01*
X1084574Y746882D01*
D02*
G37*
G36*
X1077232D02*
X1072429D01*
X1073334Y744699D01*
X1075048Y742984D01*
X1077232Y742080D01*
Y746882D01*
D02*
G37*
G36*
X955105Y758711D02*
X952664D01*
X950306Y758080D01*
X948192Y756859D01*
X946467Y755133D01*
X945246Y753020D01*
X944614Y750662D01*
Y748221D01*
X945246Y745863D01*
X946467Y743750D01*
X948192Y742024D01*
X950306Y740803D01*
X952664Y740172D01*
X955105D01*
X957462Y740803D01*
X959576Y742024D01*
X961302Y743750D01*
X962523Y745863D01*
X963154Y748221D01*
Y750662D01*
X962523Y753020D01*
X961302Y755133D01*
X959576Y756859D01*
X957462Y758080D01*
X955105Y758711D01*
D02*
G37*
G36*
X648182Y744485D02*
Y739683D01*
X652984D01*
X652080Y741866D01*
X650365Y743581D01*
X648182Y744485D01*
D02*
G37*
G36*
X645642D02*
X643459Y743581D01*
X641744Y741866D01*
X640840Y739683D01*
X645642D01*
Y744485D01*
D02*
G37*
G36*
X644452Y752183D02*
X630682D01*
Y738413D01*
X630893D01*
X633799Y738991D01*
X636536Y740125D01*
X638999Y741771D01*
X641094Y743866D01*
X642740Y746329D01*
X643874Y749066D01*
X644452Y751972D01*
Y752183D01*
D02*
G37*
G36*
X628142D02*
X614372D01*
Y751972D01*
X614950Y749066D01*
X616084Y746329D01*
X617730Y743866D01*
X619825Y741771D01*
X622288Y740125D01*
X625025Y738991D01*
X627931Y738413D01*
X628142D01*
Y752183D01*
D02*
G37*
G36*
X989824Y747410D02*
X980554D01*
Y738139D01*
X980672D01*
X983353Y738858D01*
X985756Y740245D01*
X987718Y742208D01*
X989106Y744611D01*
X989824Y747292D01*
Y747410D01*
D02*
G37*
G36*
X978014D02*
X968744D01*
Y747292D01*
X969463Y744611D01*
X970850Y742208D01*
X972813Y740245D01*
X975216Y738858D01*
X977897Y738139D01*
X978014D01*
Y747410D01*
D02*
G37*
G36*
X693540Y748730D02*
X686000D01*
X678460D01*
Y741210D01*
X680202D01*
X680693Y739940D01*
X680006Y738750D01*
X679670Y737496D01*
X692530D01*
X692194Y738750D01*
X691507Y739940D01*
X691998Y741210D01*
X693540D01*
Y748730D01*
D02*
G37*
%LPD*%
G36*
X691120Y923740D02*
X690780Y923621D01*
X690480Y923420D01*
X690220Y923140D01*
X690000Y922781D01*
X689820Y922340D01*
X689680Y921821D01*
X689580Y921220D01*
X689520Y920540D01*
X689500Y919781D01*
X685500D01*
X685480Y920540D01*
X685420Y921220D01*
X685320Y921821D01*
X685180Y922340D01*
X685000Y922781D01*
X684780Y923140D01*
X684520Y923420D01*
X684220Y923621D01*
X683880Y923740D01*
X683500Y923781D01*
X691500D01*
X691120Y923740D01*
D02*
G37*
G36*
X699956Y892618D02*
X699915Y892998D01*
X699796Y893338D01*
X699595Y893638D01*
X699315Y893898D01*
X698956Y894118D01*
X698515Y894298D01*
X697996Y894438D01*
X697395Y894538D01*
X696715Y894598D01*
X695956Y894618D01*
Y898618D01*
X696715Y898638D01*
X697395Y898698D01*
X697996Y898798D01*
X698515Y898938D01*
X698956Y899118D01*
X699315Y899338D01*
X699595Y899598D01*
X699796Y899898D01*
X699915Y900238D01*
X699956Y900618D01*
Y892618D01*
D02*
G37*
G36*
X729934Y899145D02*
X730054Y898805D01*
X730255Y898505D01*
X730535Y898245D01*
X730894Y898025D01*
X731335Y897845D01*
X731854Y897705D01*
X732455Y897605D01*
X733135Y897545D01*
X733895Y897525D01*
Y893525D01*
X733135Y893505D01*
X732455Y893445D01*
X731854Y893345D01*
X731335Y893205D01*
X730894Y893025D01*
X730535Y892805D01*
X730255Y892545D01*
X730054Y892245D01*
X729934Y891905D01*
X729894Y891525D01*
Y899525D01*
X729934Y899145D01*
D02*
G37*
G36*
X767385Y893188D02*
X767469Y892213D01*
X767543Y891817D01*
X767637Y891482D01*
X767752Y891207D01*
X767889Y890994D01*
X768046Y890841D01*
X768224Y890750D01*
X768423Y890720D01*
X762327D01*
X762526Y890750D01*
X762704Y890841D01*
X762861Y890994D01*
X762998Y891207D01*
X763113Y891482D01*
X763207Y891817D01*
X763281Y892213D01*
X763333Y892670D01*
X763364Y893188D01*
X763375Y893768D01*
X767375D01*
X767385Y893188D01*
D02*
G37*
G36*
X708545Y889266D02*
X708205Y889146D01*
X707905Y888945D01*
X707645Y888665D01*
X707425Y888306D01*
X707245Y887866D01*
X707105Y887346D01*
X707005Y886746D01*
X706962Y886263D01*
X707005Y885779D01*
X707105Y885180D01*
X707245Y884660D01*
X707425Y884220D01*
X707645Y883859D01*
X707905Y883579D01*
X708205Y883380D01*
X708545Y883260D01*
X708925Y883220D01*
X700925D01*
X701305Y883260D01*
X701645Y883380D01*
X701945Y883579D01*
X702205Y883859D01*
X702425Y884220D01*
X702605Y884660D01*
X702745Y885180D01*
X702845Y885779D01*
X702888Y886263D01*
X702845Y886746D01*
X702745Y887346D01*
X702605Y887866D01*
X702425Y888306D01*
X702205Y888665D01*
X701945Y888945D01*
X701645Y889146D01*
X701305Y889266D01*
X700925Y889305D01*
X708925D01*
X708545Y889266D01*
D02*
G37*
G36*
X729934Y880620D02*
X730054Y880280D01*
X730255Y879980D01*
X730535Y879720D01*
X730894Y879500D01*
X731335Y879320D01*
X731854Y879180D01*
X732455Y879080D01*
X733135Y879020D01*
X733895Y879000D01*
Y875000D01*
X733135Y874980D01*
X732455Y874920D01*
X731854Y874820D01*
X731335Y874680D01*
X730894Y874500D01*
X730535Y874280D01*
X730255Y874020D01*
X730054Y873720D01*
X729934Y873380D01*
X729894Y873000D01*
Y881000D01*
X729934Y880620D01*
D02*
G37*
G36*
X708545Y870741D02*
X708205Y870620D01*
X707905Y870421D01*
X707645Y870141D01*
X707425Y869781D01*
X707245Y869341D01*
X707105Y868820D01*
X707005Y868221D01*
X706945Y867541D01*
X706925Y866780D01*
X702925D01*
X702905Y867541D01*
X702845Y868221D01*
X702745Y868820D01*
X702605Y869341D01*
X702425Y869781D01*
X702205Y870141D01*
X701945Y870421D01*
X701645Y870620D01*
X701305Y870741D01*
X700925Y870780D01*
X708925D01*
X708545Y870741D01*
D02*
G37*
G36*
X749323Y870240D02*
X749030Y869919D01*
X748771Y869562D01*
X748547Y869166D01*
X748357Y868734D01*
X748201Y868265D01*
X748080Y867758D01*
X747994Y867215D01*
X747942Y866634D01*
X747925Y866016D01*
X743925D01*
X743908Y866634D01*
X743856Y867215D01*
X743770Y867758D01*
X743649Y868265D01*
X743493Y868734D01*
X743304Y869166D01*
X743079Y869562D01*
X742820Y869919D01*
X742527Y870240D01*
X742199Y870524D01*
X749651D01*
X749323Y870240D01*
D02*
G37*
G36*
X712752Y859721D02*
X712716Y859740D01*
X712645Y859757D01*
X712541Y859772D01*
X712230Y859796D01*
X711201Y859820D01*
X710859Y859821D01*
Y863821D01*
X712752Y863921D01*
Y859721D01*
D02*
G37*
G36*
X657862Y847866D02*
X657904Y847619D01*
X658001Y847341D01*
X658153Y847031D01*
X658361Y846691D01*
X658624Y846319D01*
X658942Y845916D01*
X659744Y845017D01*
X660229Y844521D01*
X656693Y840985D01*
X656276Y841387D01*
X655510Y842036D01*
X655161Y842282D01*
X654835Y842477D01*
X654531Y842619D01*
X654249Y842710D01*
X653991Y842748D01*
X653754Y842735D01*
X653541Y842670D01*
X657876Y848082D01*
X657862Y847866D01*
D02*
G37*
G36*
X660229Y834715D02*
X659744Y834219D01*
X658624Y832917D01*
X658361Y832545D01*
X658153Y832205D01*
X658001Y831895D01*
X657904Y831617D01*
X657862Y831370D01*
X657876Y831154D01*
X653541Y836566D01*
X653754Y836501D01*
X653991Y836488D01*
X654249Y836526D01*
X654531Y836617D01*
X654835Y836759D01*
X655161Y836954D01*
X655510Y837200D01*
X655882Y837498D01*
X656693Y838251D01*
X660229Y834715D01*
D02*
G37*
G36*
X689520Y842863D02*
X689669Y842707D01*
X689920Y842569D01*
X690269Y842449D01*
X690720Y842348D01*
X691270Y842265D01*
X692670Y842155D01*
X694470Y842118D01*
Y837118D01*
X693520Y837109D01*
X690720Y836888D01*
X690269Y836787D01*
X689920Y836667D01*
X689669Y836529D01*
X689520Y836373D01*
X689470Y836199D01*
Y843037D01*
X689520Y842863D01*
D02*
G37*
G36*
X705530Y836199D02*
X702530Y836168D01*
Y839168D01*
X703100Y839183D01*
X703611Y839228D01*
X704060Y839303D01*
X704450Y839408D01*
X704781Y839543D01*
X705050Y839708D01*
X705260Y839903D01*
X705411Y840128D01*
X705500Y840383D01*
X705530Y840668D01*
Y836199D01*
D02*
G37*
G36*
X726031Y837247D02*
Y833268D01*
X725992Y833630D01*
X725878Y833954D01*
X725688Y834240D01*
X725421Y834487D01*
X725078Y834697D01*
X724659Y834868D01*
X724164Y835002D01*
X723592Y835097D01*
X722944Y835154D01*
X722221Y835173D01*
Y838983D01*
X726031Y837247D01*
D02*
G37*
G36*
X719426Y833010D02*
X718767Y832339D01*
X716647Y829931D01*
X716246Y829398D01*
X715598Y828413D01*
X715351Y827962D01*
X715155Y827538D01*
X711886Y833552D01*
X712423Y833577D01*
X712957Y833653D01*
X713487Y833779D01*
X714013Y833955D01*
X714536Y834182D01*
X715055Y834458D01*
X715571Y834786D01*
X716084Y835163D01*
X716592Y835591D01*
X717097Y836069D01*
X719426Y833010D01*
D02*
G37*
G36*
X794009Y824014D02*
X794129Y823764D01*
X794330Y823543D01*
X794610Y823352D01*
X794969Y823191D01*
X795409Y823058D01*
X795929Y822955D01*
X796529Y822882D01*
X797209Y822838D01*
X797970Y822823D01*
Y818823D01*
X797209Y818809D01*
X795929Y818691D01*
X795409Y818588D01*
X794969Y818456D01*
X794610Y818294D01*
X794330Y818103D01*
X794129Y817883D01*
X794009Y817633D01*
X793969Y817354D01*
Y824293D01*
X794009Y824014D01*
D02*
G37*
G36*
X781031Y817354D02*
X780991Y817633D01*
X780871Y817883D01*
X780670Y818103D01*
X780390Y818294D01*
X780031Y818456D01*
X779591Y818588D01*
X779071Y818691D01*
X778471Y818764D01*
X777791Y818809D01*
X777030Y818823D01*
Y822823D01*
X777791Y822838D01*
X779071Y822955D01*
X779591Y823058D01*
X780031Y823191D01*
X780390Y823352D01*
X780670Y823543D01*
X780871Y823764D01*
X780991Y824014D01*
X781031Y824293D01*
Y817354D01*
D02*
G37*
G36*
X746515Y803270D02*
X746632Y801669D01*
X746735Y801020D01*
X746867Y800470D01*
X747029Y800020D01*
X747220Y799669D01*
X747440Y799419D01*
X747690Y799269D01*
X747970Y799220D01*
X740031D01*
X740310Y799269D01*
X740559Y799419D01*
X740780Y799669D01*
X740971Y800020D01*
X741133Y800470D01*
X741265Y801020D01*
X741368Y801669D01*
X741441Y802420D01*
X741500Y804220D01*
X746500D01*
X746515Y803270D01*
D02*
G37*
G36*
X713270Y804095D02*
X713419Y803670D01*
X713670Y803295D01*
X714019Y802970D01*
X714470Y802695D01*
X715020Y802470D01*
X715669Y802295D01*
X716420Y802170D01*
X716557Y802158D01*
X716873Y802178D01*
X717078Y802217D01*
X717241Y802262D01*
X717362Y802313D01*
X717441Y802370D01*
Y802091D01*
X718220Y802070D01*
Y797070D01*
X717441Y797050D01*
Y796770D01*
X717362Y796827D01*
X717241Y796878D01*
X717078Y796923D01*
X716873Y796962D01*
X716657Y796991D01*
X716420Y796970D01*
X715669Y796845D01*
X715020Y796670D01*
X714470Y796445D01*
X714019Y796170D01*
X713670Y795845D01*
X713419Y795470D01*
X713270Y795045D01*
X713220Y794570D01*
Y804570D01*
X713270Y804095D01*
D02*
G37*
G36*
X719520Y787025D02*
X719669Y786600D01*
X719920Y786225D01*
X720269Y785900D01*
X720720Y785625D01*
X721270Y785400D01*
X721919Y785225D01*
X722670Y785100D01*
X722787Y785090D01*
X723076Y785108D01*
X723280Y785147D01*
X723443Y785192D01*
X723564Y785243D01*
X723643Y785300D01*
Y785022D01*
X724470Y785000D01*
Y780000D01*
X723643Y779978D01*
Y779700D01*
X723564Y779757D01*
X723443Y779808D01*
X723280Y779853D01*
X723076Y779892D01*
X722879Y779919D01*
X722670Y779900D01*
X721919Y779775D01*
X721270Y779600D01*
X720720Y779375D01*
X720269Y779100D01*
X719920Y778775D01*
X719669Y778400D01*
X719520Y777975D01*
X719470Y777500D01*
Y787500D01*
X719520Y787025D01*
D02*
G37*
G36*
X819390Y926000D02*
X819278Y926380D01*
X819100Y926720D01*
X818858Y927020D01*
X818551Y927280D01*
X818178Y927500D01*
X817741Y927680D01*
X817238Y927820D01*
X816671Y927920D01*
X816071Y927977D01*
X814970Y927915D01*
X814893Y927892D01*
X814850Y927866D01*
Y932134D01*
X814893Y932108D01*
X814970Y932085D01*
X815081Y932066D01*
X815225Y932048D01*
X815827Y932014D01*
X816038Y932020D01*
X816671Y932080D01*
X817238Y932180D01*
X817741Y932320D01*
X818178Y932500D01*
X818551Y932720D01*
X818858Y932980D01*
X819100Y933280D01*
X819278Y933620D01*
X819390Y934000D01*
Y926000D01*
D02*
G37*
G36*
X1003270Y917316D02*
X1003220Y917791D01*
X1003070Y918216D01*
X1002820Y918591D01*
X1002470Y918916D01*
X1002020Y919191D01*
X1001470Y919416D01*
X1000820Y919591D01*
X1000070Y919716D01*
X999220Y919791D01*
X998270Y919816D01*
Y924816D01*
X999220Y924840D01*
X1000070Y924915D01*
X1000820Y925041D01*
X1001470Y925216D01*
X1002020Y925441D01*
X1002470Y925715D01*
X1002820Y926040D01*
X1003070Y926415D01*
X1003220Y926841D01*
X1003270Y927316D01*
Y917316D01*
D02*
G37*
G36*
X934019Y926841D02*
X934169Y926415D01*
X934419Y926040D01*
X934770Y925715D01*
X935219Y925441D01*
X935770Y925216D01*
X936420Y925041D01*
X937169Y924915D01*
X938019Y924840D01*
X938969Y924816D01*
Y919816D01*
X938019Y919791D01*
X937169Y919716D01*
X936420Y919591D01*
X935770Y919416D01*
X935219Y919191D01*
X934770Y918916D01*
X934419Y918591D01*
X934169Y918216D01*
X934019Y917791D01*
X933969Y917316D01*
Y927316D01*
X934019Y926841D01*
D02*
G37*
G36*
X718531Y926000D02*
X718491Y926380D01*
X718371Y926720D01*
X718170Y927020D01*
X717890Y927280D01*
X717531Y927500D01*
X717091Y927680D01*
X716571Y927820D01*
X715971Y927920D01*
X715500Y927962D01*
X715030Y927920D01*
X714429Y927820D01*
X713910Y927680D01*
X713469Y927500D01*
X713110Y927280D01*
X712830Y927020D01*
X712629Y926720D01*
X712510Y926380D01*
X712469Y926000D01*
Y934000D01*
X712510Y933620D01*
X712629Y933280D01*
X712830Y932980D01*
X713110Y932720D01*
X713469Y932500D01*
X713910Y932320D01*
X714429Y932180D01*
X715030Y932080D01*
X715500Y932038D01*
X715971Y932080D01*
X716571Y932180D01*
X717091Y932320D01*
X717531Y932500D01*
X717890Y932720D01*
X718170Y932980D01*
X718371Y933280D01*
X718491Y933620D01*
X718531Y934000D01*
Y926000D01*
D02*
G37*
G36*
X895231Y925937D02*
X895124Y925780D01*
X895029Y925603D01*
X894946Y925405D01*
X894877Y925185D01*
X894820Y924943D01*
X894775Y924681D01*
X894744Y924397D01*
X894729Y924045D01*
X894733Y923900D01*
X894778Y923390D01*
X894853Y922940D01*
X894958Y922550D01*
X895093Y922219D01*
X895258Y921949D01*
X895453Y921740D01*
X895678Y921590D01*
X895933Y921499D01*
X896218Y921469D01*
X890218D01*
X890503Y921499D01*
X890758Y921590D01*
X890983Y921740D01*
X891178Y921949D01*
X891343Y922219D01*
X891478Y922550D01*
X891583Y922940D01*
X891658Y923390D01*
X891703Y923900D01*
X891709Y924124D01*
X891661Y924681D01*
X891617Y924943D01*
X891560Y925185D01*
X891490Y925405D01*
X891408Y925603D01*
X891313Y925780D01*
X891205Y925937D01*
X891085Y926071D01*
X895352D01*
X895231Y925937D01*
D02*
G37*
G36*
X873158Y923714D02*
X873089Y923558D01*
X873027Y923381D01*
X872974Y923182D01*
X872929Y922961D01*
X872864Y922452D01*
X872843Y922166D01*
X872833Y921751D01*
X872842Y921400D01*
X872887Y920890D01*
X872962Y920440D01*
X873067Y920050D01*
X873202Y919719D01*
X873367Y919449D01*
X873562Y919240D01*
X873787Y919090D01*
X874042Y918999D01*
X874327Y918969D01*
X868327D01*
X868612Y918999D01*
X868867Y919090D01*
X869092Y919240D01*
X869287Y919449D01*
X869452Y919719D01*
X869587Y920050D01*
X869692Y920440D01*
X869767Y920890D01*
X869804Y921312D01*
X869797Y921417D01*
X869758Y921695D01*
X869704Y921949D01*
X869635Y922179D01*
X869551Y922385D01*
X869451Y922567D01*
X869336Y922725D01*
X869206Y922859D01*
X869060Y922969D01*
X873236Y923847D01*
X873158Y923714D01*
D02*
G37*
G36*
X1035525Y889019D02*
X1035600Y888169D01*
X1035725Y887420D01*
X1035900Y886769D01*
X1036125Y886219D01*
X1036400Y885770D01*
X1036725Y885419D01*
X1037100Y885170D01*
X1037525Y885020D01*
X1038000Y884969D01*
X1028000D01*
X1028475Y885020D01*
X1028900Y885170D01*
X1029275Y885419D01*
X1029600Y885770D01*
X1029875Y886219D01*
X1030100Y886769D01*
X1030275Y887420D01*
X1030400Y888169D01*
X1030475Y889019D01*
X1030500Y889969D01*
X1035500D01*
X1035525Y889019D01*
D02*
G37*
G36*
X1007341Y895352D02*
X1007491Y894927D01*
X1007741Y894552D01*
X1008091Y894227D01*
X1008541Y893952D01*
X1009091Y893727D01*
X1009741Y893552D01*
X1010491Y893427D01*
X1011341Y893352D01*
X1012291Y893327D01*
Y888327D01*
X1011341Y888302D01*
X1010491Y888227D01*
X1009741Y888102D01*
X1009091Y887927D01*
X1008541Y887702D01*
X1008091Y887427D01*
X1007741Y887102D01*
X1007491Y886727D01*
X1007341Y886302D01*
X1007291Y885827D01*
Y895827D01*
X1007341Y895352D01*
D02*
G37*
G36*
X802120Y924990D02*
X801780Y924871D01*
X801480Y924670D01*
X801220Y924390D01*
X801000Y924031D01*
X800820Y923590D01*
X800680Y923071D01*
X800580Y922470D01*
X800520Y921790D01*
X800500Y921031D01*
X796500D01*
X796480Y921790D01*
X796420Y922470D01*
X796320Y923071D01*
X796180Y923590D01*
X796000Y924031D01*
X795780Y924390D01*
X795520Y924670D01*
X795220Y924871D01*
X794880Y924990D01*
X794500Y925031D01*
X802500D01*
X802120Y924990D01*
D02*
G37*
G36*
X915069Y915306D02*
X914729Y915186D01*
X914429Y914986D01*
X914169Y914706D01*
X913949Y914346D01*
X913769Y913906D01*
X913629Y913386D01*
X913529Y912786D01*
X913469Y912106D01*
X913449Y911346D01*
X909449D01*
X909429Y912106D01*
X909369Y912786D01*
X909269Y913386D01*
X909129Y913906D01*
X908949Y914346D01*
X908729Y914706D01*
X908469Y914986D01*
X908169Y915186D01*
X907829Y915306D01*
X907449Y915346D01*
X915449D01*
X915069Y915306D01*
D02*
G37*
G36*
X878679Y901595D02*
X878799Y901261D01*
X878999Y900965D01*
X879279Y900709D01*
X879639Y900492D01*
X880079Y900315D01*
X880599Y900177D01*
X881199Y900079D01*
X881879Y900020D01*
X882639Y900000D01*
Y896000D01*
X881879Y895980D01*
X881199Y895921D01*
X880599Y895823D01*
X880079Y895685D01*
X879639Y895508D01*
X879279Y895291D01*
X878999Y895035D01*
X878799Y894740D01*
X878679Y894405D01*
X878639Y894031D01*
Y901970D01*
X878679Y901595D01*
D02*
G37*
G36*
X865200Y894031D02*
X865160Y894405D01*
X865040Y894740D01*
X864840Y895035D01*
X864560Y895291D01*
X864200Y895508D01*
X863760Y895685D01*
X863240Y895823D01*
X862640Y895921D01*
X861960Y895980D01*
X861200Y896000D01*
Y900000D01*
X861960Y900020D01*
X862640Y900079D01*
X863240Y900177D01*
X863760Y900315D01*
X864200Y900492D01*
X864560Y900709D01*
X864840Y900965D01*
X865040Y901261D01*
X865160Y901595D01*
X865200Y901970D01*
Y894031D01*
D02*
G37*
G36*
X886959Y894000D02*
X886919Y894380D01*
X886799Y894720D01*
X886599Y895020D01*
X886319Y895280D01*
X885959Y895500D01*
X885519Y895680D01*
X884999Y895820D01*
X884399Y895920D01*
X883719Y895980D01*
X882959Y896000D01*
Y900000D01*
X883719Y900015D01*
X884999Y900132D01*
X885519Y900235D01*
X885959Y900367D01*
X886319Y900529D01*
X886599Y900720D01*
X886799Y900940D01*
X886919Y901190D01*
X886959Y901469D01*
Y894000D01*
D02*
G37*
G36*
X913469Y895011D02*
X913529Y894331D01*
X913629Y893731D01*
X913769Y893211D01*
X913949Y892771D01*
X914169Y892411D01*
X914429Y892131D01*
X914729Y891931D01*
X915069Y891811D01*
X915449Y891771D01*
X907531D01*
X907895Y891811D01*
X908221Y891931D01*
X908509Y892131D01*
X908758Y892411D01*
X908969Y892771D01*
X909142Y893211D01*
X909276Y893731D01*
X909372Y894331D01*
X909430Y895011D01*
X909449Y895771D01*
X913449D01*
X913469Y895011D01*
D02*
G37*
G36*
X875539Y893990D02*
X875200Y893870D01*
X874900Y893671D01*
X874640Y893391D01*
X874419Y893030D01*
X874240Y892590D01*
X874100Y892070D01*
X873999Y891470D01*
X873940Y890790D01*
X873920Y890031D01*
X869920D01*
X869900Y890790D01*
X869839Y891470D01*
X869740Y892070D01*
X869600Y892590D01*
X869419Y893030D01*
X869200Y893391D01*
X868940Y893671D01*
X868640Y893870D01*
X868299Y893990D01*
X867919Y894031D01*
X875919D01*
X875539Y893990D01*
D02*
G37*
G36*
X977352Y886827D02*
X977312Y887207D01*
X977192Y887547D01*
X976992Y887847D01*
X976712Y888107D01*
X976352Y888327D01*
X975912Y888507D01*
X975392Y888647D01*
X974792Y888747D01*
X974112Y888807D01*
X973352Y888827D01*
Y892827D01*
X974112Y892847D01*
X974792Y892907D01*
X975392Y893007D01*
X975912Y893147D01*
X976352Y893327D01*
X976712Y893547D01*
X976992Y893807D01*
X977192Y894107D01*
X977312Y894447D01*
X977352Y894827D01*
Y886827D01*
D02*
G37*
G36*
X915018Y878292D02*
X914678Y878172D01*
X914378Y877972D01*
X914118Y877692D01*
X913898Y877332D01*
X913718Y876892D01*
X913578Y876372D01*
X913478Y875772D01*
X913418Y875092D01*
X913398Y874332D01*
X909398D01*
X909379Y875092D01*
X909323Y875772D01*
X909230Y876372D01*
X909099Y876892D01*
X908931Y877332D01*
X908726Y877692D01*
X908483Y877972D01*
X908203Y878172D01*
X907885Y878292D01*
X907531Y878332D01*
X915398D01*
X915018Y878292D01*
D02*
G37*
G36*
X878830Y874640D02*
X878890Y873960D01*
X878990Y873360D01*
X879130Y872840D01*
X879310Y872400D01*
X879530Y872039D01*
X879790Y871759D01*
X880090Y871560D01*
X880430Y871440D01*
X880810Y871400D01*
X872810D01*
X873190Y871440D01*
X873530Y871560D01*
X873830Y871759D01*
X874090Y872039D01*
X874310Y872400D01*
X874490Y872840D01*
X874630Y873360D01*
X874730Y873960D01*
X874790Y874640D01*
X874810Y875399D01*
X878810D01*
X878830Y874640D01*
D02*
G37*
G36*
X768995Y872694D02*
X768655Y872517D01*
X768355Y872275D01*
X768095Y871967D01*
X767875Y871595D01*
X767695Y871158D01*
X767555Y870655D01*
X767455Y870087D01*
X767395Y869454D01*
X767375Y868757D01*
X763375D01*
X763355Y869454D01*
X763295Y870087D01*
X763195Y870655D01*
X763055Y871158D01*
X762875Y871595D01*
X762655Y871967D01*
X762395Y872275D01*
X762095Y872517D01*
X761755Y872694D01*
X761375Y872806D01*
X769375D01*
X768995Y872694D01*
D02*
G37*
G36*
X844239Y864180D02*
X844209Y864465D01*
X844119Y864720D01*
X843969Y864945D01*
X843759Y865140D01*
X843489Y865305D01*
X843159Y865440D01*
X842769Y865545D01*
X842319Y865620D01*
X841809Y865665D01*
X841306Y865678D01*
X840803Y865665D01*
X840293Y865620D01*
X839843Y865545D01*
X839453Y865440D01*
X839123Y865305D01*
X838853Y865140D01*
X838643Y864945D01*
X838493Y864720D01*
X838403Y864465D01*
X838373Y864180D01*
Y870180D01*
X838403Y869895D01*
X838493Y869640D01*
X838643Y869415D01*
X838853Y869220D01*
X839123Y869055D01*
X839453Y868920D01*
X839843Y868815D01*
X840293Y868740D01*
X840803Y868695D01*
X841306Y868682D01*
X841809Y868695D01*
X842319Y868740D01*
X842769Y868815D01*
X843159Y868920D01*
X843489Y869055D01*
X843759Y869220D01*
X843969Y869415D01*
X844119Y869640D01*
X844209Y869895D01*
X844239Y870180D01*
Y864180D01*
D02*
G37*
G36*
X942952Y871358D02*
X943065Y871320D01*
X943253Y871288D01*
X943517Y871259D01*
X944760Y871200D01*
X946680Y871180D01*
Y867180D01*
X945965Y867178D01*
X942952Y867002D01*
X942915Y866961D01*
Y871400D01*
X942952Y871358D01*
D02*
G37*
G36*
X793496Y869261D02*
X793566Y869244D01*
X793671Y869229D01*
X793982Y869205D01*
X795011Y869181D01*
X795353Y869180D01*
Y865180D01*
X793459Y865080D01*
Y869280D01*
X793496Y869261D01*
D02*
G37*
G36*
X977171Y865000D02*
X977131Y865380D01*
X977011Y865720D01*
X976811Y866020D01*
X976531Y866280D01*
X976171Y866500D01*
X975731Y866680D01*
X975211Y866820D01*
X974611Y866920D01*
X973931Y866980D01*
X973171Y867000D01*
Y871000D01*
X973931Y871020D01*
X974611Y871080D01*
X975211Y871180D01*
X975731Y871320D01*
X976171Y871500D01*
X976531Y871720D01*
X976811Y871980D01*
X977011Y872280D01*
X977131Y872620D01*
X977171Y873000D01*
Y865000D01*
D02*
G37*
G36*
X802419Y863180D02*
X802379Y863560D01*
X802259Y863900D01*
X802059Y864200D01*
X801779Y864460D01*
X801419Y864680D01*
X800979Y864860D01*
X800459Y865000D01*
X799859Y865100D01*
X799179Y865160D01*
X798419Y865180D01*
Y869180D01*
X799179Y869200D01*
X799859Y869260D01*
X800459Y869360D01*
X800979Y869500D01*
X801419Y869680D01*
X801779Y869900D01*
X802059Y870160D01*
X802259Y870460D01*
X802379Y870800D01*
X802419Y871180D01*
Y863180D01*
D02*
G37*
G36*
X942954Y864858D02*
X943074Y864820D01*
X943275Y864788D01*
X943555Y864759D01*
X944874Y864700D01*
X946915Y864680D01*
Y860680D01*
X942915Y860461D01*
Y864900D01*
X942954Y864858D01*
D02*
G37*
G36*
X869465Y860461D02*
X869436Y860597D01*
X869345Y860720D01*
X869195Y860827D01*
X868986Y860921D01*
X868716Y861000D01*
X868385Y861065D01*
X867996Y861115D01*
X867036Y861173D01*
X866466Y861180D01*
Y864180D01*
X867036Y864187D01*
X868385Y864295D01*
X868716Y864360D01*
X868986Y864439D01*
X869195Y864533D01*
X869345Y864641D01*
X869436Y864763D01*
X869465Y864900D01*
Y860461D01*
D02*
G37*
G36*
X928225Y853960D02*
X928186Y853998D01*
X928065Y854032D01*
X927866Y854061D01*
X927586Y854087D01*
X925666Y854150D01*
X924932Y854154D01*
X923464Y854072D01*
X923427Y854052D01*
X923396Y858251D01*
X923431Y858234D01*
X923501Y858218D01*
X923605Y858204D01*
X923914Y858181D01*
X925020Y858162D01*
X928186Y858354D01*
X928225Y858400D01*
Y853960D01*
D02*
G37*
G36*
X848733Y856580D02*
X848604Y856694D01*
X848454Y856796D01*
X848283Y856886D01*
X848089Y856964D01*
X847875Y857030D01*
X847638Y857084D01*
X847380Y857126D01*
X847101Y857156D01*
X846477Y857180D01*
Y860180D01*
X846800Y860186D01*
X847380Y860234D01*
X847638Y860276D01*
X847875Y860330D01*
X848089Y860396D01*
X848283Y860474D01*
X848454Y860564D01*
X848604Y860666D01*
X848733Y860780D01*
Y856580D01*
D02*
G37*
G36*
X869465Y853960D02*
X869436Y854097D01*
X869345Y854220D01*
X869195Y854327D01*
X868986Y854421D01*
X868716Y854500D01*
X868385Y854565D01*
X867996Y854615D01*
X867036Y854673D01*
X866466Y854680D01*
Y857680D01*
X867036Y857687D01*
X868385Y857795D01*
X868716Y857860D01*
X868986Y857939D01*
X869195Y858033D01*
X869345Y858140D01*
X869436Y858263D01*
X869465Y858400D01*
Y853960D01*
D02*
G37*
G36*
X962495Y856519D02*
X962570Y855669D01*
X962695Y854920D01*
X962870Y854269D01*
X963095Y853719D01*
X963370Y853270D01*
X963695Y852919D01*
X964070Y852670D01*
X964495Y852520D01*
X964970Y852469D01*
X954970D01*
X955445Y852520D01*
X955870Y852670D01*
X956245Y852919D01*
X956570Y853270D01*
X956845Y853719D01*
X957070Y854269D01*
X957245Y854920D01*
X957370Y855669D01*
X957445Y856519D01*
X957470Y857469D01*
X962470D01*
X962495Y856519D01*
D02*
G37*
G36*
X840479Y856150D02*
X840076Y855725D01*
X839716Y855301D01*
X839397Y854877D01*
X839122Y854453D01*
X838888Y854028D01*
X838697Y853604D01*
X838549Y853180D01*
X838443Y852755D01*
X838379Y852331D01*
X838358Y851907D01*
X834115Y856150D01*
X834540Y856171D01*
X834964Y856234D01*
X835388Y856340D01*
X835812Y856489D01*
X836237Y856680D01*
X836661Y856913D01*
X837085Y857189D01*
X837509Y857507D01*
X837934Y857868D01*
X838358Y858271D01*
X840479Y856150D01*
D02*
G37*
G36*
X859799Y854149D02*
X859396Y853727D01*
X858717Y852893D01*
X858442Y852482D01*
X858208Y852074D01*
X858017Y851669D01*
X857869Y851269D01*
X857763Y850872D01*
X857699Y850478D01*
X857678Y850089D01*
X853617Y854149D01*
X854007Y854171D01*
X854400Y854234D01*
X854797Y854340D01*
X855198Y854489D01*
X855602Y854680D01*
X856010Y854913D01*
X856422Y855189D01*
X856837Y855507D01*
X857255Y855868D01*
X857678Y856271D01*
X859799Y854149D01*
D02*
G37*
G36*
X781031Y842754D02*
X780991Y843043D01*
X780871Y843302D01*
X780670Y843531D01*
X780390Y843729D01*
X780031Y843897D01*
X779591Y844034D01*
X779071Y844141D01*
X778471Y844217D01*
X777791Y844263D01*
X777322Y844272D01*
X775570Y844194D01*
X775647Y848393D01*
X775685Y848371D01*
X775758Y848352D01*
X775864Y848334D01*
X776003Y848319D01*
X776625Y848288D01*
X777226Y848281D01*
X777791Y848292D01*
X779071Y848405D01*
X779591Y848504D01*
X780031Y848632D01*
X780390Y848787D01*
X780670Y848971D01*
X780871Y849183D01*
X780991Y849424D01*
X781031Y849693D01*
Y842754D01*
D02*
G37*
G36*
X915130Y851851D02*
X915203Y851831D01*
X915310Y851813D01*
X915450Y851797D01*
X916072Y851765D01*
X916998Y851754D01*
X916865Y847754D01*
X914988Y847676D01*
X915091Y851874D01*
X915130Y851851D01*
D02*
G37*
G36*
X890698Y847669D02*
X890677Y847671D01*
X890620Y847673D01*
X888856Y847680D01*
X888191Y851680D01*
X888537Y851682D01*
X889776Y851761D01*
X889925Y851790D01*
X890041Y851824D01*
X890125Y851862D01*
X890176Y851904D01*
X890698Y847669D01*
D02*
G37*
G36*
X928225Y847460D02*
X928186Y847516D01*
X928065Y847566D01*
X927866Y847610D01*
X927586Y847648D01*
X926786Y847707D01*
X924225Y847754D01*
Y851754D01*
X928225Y851899D01*
Y847460D01*
D02*
G37*
G36*
X884194Y851858D02*
X884314Y851821D01*
X884514Y851788D01*
X884794Y851759D01*
X886115Y851700D01*
X888155Y851680D01*
Y847680D01*
X884155Y847460D01*
Y851899D01*
X884194Y851858D01*
D02*
G37*
G36*
X848482Y846210D02*
X848057Y846189D01*
X847633Y846126D01*
X847209Y846020D01*
X846785Y845871D01*
X846360Y845680D01*
X845936Y845447D01*
X845512Y845171D01*
X845088Y844853D01*
X844663Y844492D01*
X844239Y844089D01*
X842118Y846210D01*
X842521Y846635D01*
X842881Y847059D01*
X843199Y847483D01*
X843475Y847907D01*
X843709Y848332D01*
X843900Y848756D01*
X844048Y849180D01*
X844154Y849605D01*
X844218Y850029D01*
X844239Y850453D01*
X848482Y846210D01*
D02*
G37*
G36*
X816379Y848029D02*
X816443Y847605D01*
X816549Y847180D01*
X816697Y846756D01*
X816888Y846332D01*
X817122Y845908D01*
X817397Y845483D01*
X817716Y845059D01*
X818076Y844635D01*
X818479Y844211D01*
X816358Y842089D01*
X815934Y842492D01*
X815509Y842853D01*
X815085Y843171D01*
X814661Y843447D01*
X814237Y843680D01*
X813812Y843871D01*
X813388Y844020D01*
X812964Y844126D01*
X812540Y844189D01*
X812115Y844211D01*
X816358Y848453D01*
X816379Y848029D01*
D02*
G37*
G36*
X942954Y845358D02*
X943074Y845321D01*
X943275Y845288D01*
X943555Y845259D01*
X944874Y845200D01*
X946915Y845180D01*
Y841180D01*
X942915Y840960D01*
Y845399D01*
X942954Y845358D01*
D02*
G37*
G36*
X884194D02*
X884314Y845321D01*
X884514Y845288D01*
X884794Y845259D01*
X886115Y845200D01*
X888155Y845180D01*
Y841180D01*
X884155Y840960D01*
Y845399D01*
X884194Y845358D01*
D02*
G37*
G36*
X970514Y834537D02*
X970472Y834564D01*
X970397Y834588D01*
X970288Y834610D01*
X970147Y834628D01*
X969763Y834657D01*
X968596Y834680D01*
X968889Y838680D01*
X970743Y838730D01*
X970514Y834537D01*
D02*
G37*
G36*
X942954Y838858D02*
X943074Y838820D01*
X943275Y838788D01*
X943555Y838759D01*
X944874Y838700D01*
X946915Y838680D01*
Y834680D01*
X942915Y834461D01*
Y838900D01*
X942954Y838858D01*
D02*
G37*
G36*
X884184Y838763D02*
X884275Y838641D01*
X884425Y838533D01*
X884634Y838439D01*
X884904Y838360D01*
X885235Y838295D01*
X885624Y838245D01*
X886584Y838187D01*
X887154Y838180D01*
Y835180D01*
X886584Y835173D01*
X885235Y835065D01*
X884904Y835000D01*
X884634Y834921D01*
X884425Y834827D01*
X884275Y834719D01*
X884184Y834597D01*
X884155Y834461D01*
Y838900D01*
X884184Y838763D01*
D02*
G37*
G36*
X1004381Y833650D02*
X1004426Y833139D01*
X1004501Y832690D01*
X1004606Y832299D01*
X1004741Y831970D01*
X1004906Y831700D01*
X1005101Y831489D01*
X1005326Y831339D01*
X1005581Y831249D01*
X1005866Y831219D01*
X999866D01*
X1000151Y831249D01*
X1000406Y831339D01*
X1000631Y831489D01*
X1000826Y831700D01*
X1000991Y831970D01*
X1001126Y832299D01*
X1001231Y832690D01*
X1001306Y833139D01*
X1001351Y833650D01*
X1001366Y834220D01*
X1004366D01*
X1004381Y833650D01*
D02*
G37*
G36*
X844239Y830180D02*
X844209Y830465D01*
X844119Y830720D01*
X843969Y830945D01*
X843759Y831140D01*
X843489Y831305D01*
X843159Y831440D01*
X842769Y831545D01*
X842319Y831620D01*
X841809Y831665D01*
X841239Y831680D01*
Y834680D01*
X841809Y834695D01*
X842319Y834740D01*
X842769Y834815D01*
X843159Y834920D01*
X843489Y835055D01*
X843759Y835220D01*
X843969Y835415D01*
X844119Y835640D01*
X844209Y835895D01*
X844239Y836180D01*
Y830180D01*
D02*
G37*
G36*
X794009Y836714D02*
X794129Y836464D01*
X794330Y836243D01*
X794610Y836052D01*
X794969Y835891D01*
X795409Y835758D01*
X795929Y835656D01*
X796529Y835582D01*
X797209Y835538D01*
X797970Y835523D01*
Y831523D01*
X797209Y831508D01*
X795929Y831391D01*
X795409Y831288D01*
X794969Y831156D01*
X794610Y830994D01*
X794330Y830803D01*
X794129Y830583D01*
X794009Y830333D01*
X793969Y830054D01*
Y836993D01*
X794009Y836714D01*
D02*
G37*
G36*
X781031Y830054D02*
X780994Y830345D01*
X780883Y830606D01*
X780699Y830836D01*
X780441Y831036D01*
X780109Y831205D01*
X779703Y831343D01*
X779224Y831450D01*
X778671Y831527D01*
X778044Y831573D01*
X777343Y831589D01*
Y835589D01*
X778044Y835603D01*
X779224Y835715D01*
X779703Y835813D01*
X780109Y835940D01*
X780441Y836094D01*
X780699Y836277D01*
X780883Y836487D01*
X780994Y836726D01*
X781031Y836993D01*
Y830054D01*
D02*
G37*
G36*
X1052924Y836894D02*
X1053382Y836574D01*
X1053936Y836252D01*
X1054585Y835927D01*
X1056169Y835270D01*
X1058134Y834603D01*
X1060480Y833925D01*
X1050718Y828434D01*
X1050968Y829396D01*
X1051142Y830305D01*
X1051242Y831162D01*
X1051266Y831967D01*
X1051215Y832719D01*
X1051089Y833419D01*
X1050888Y834067D01*
X1050611Y834663D01*
X1050259Y835206D01*
X1049832Y835696D01*
X1052560Y837211D01*
X1052924Y836894D01*
D02*
G37*
G36*
X839451Y830274D02*
X839457Y829951D01*
X839503Y829369D01*
X839543Y829111D01*
X839594Y828873D01*
X839658Y828658D01*
X839732Y828463D01*
X839818Y828290D01*
X839915Y828139D01*
X840024Y828009D01*
X835826Y828134D01*
X835945Y828261D01*
X836051Y828409D01*
X836145Y828578D01*
X836226Y828770D01*
X836295Y828984D01*
X836351Y829219D01*
X836395Y829476D01*
X836426Y829755D01*
X836451Y830378D01*
X839451Y830274D01*
D02*
G37*
G36*
X914906Y828529D02*
X915351Y828153D01*
X915563Y828000D01*
X915769Y827871D01*
X915967Y827766D01*
X916159Y827684D01*
X916344Y827627D01*
X916522Y827593D01*
X916693Y827582D01*
X913724Y824613D01*
X913713Y824784D01*
X913679Y824962D01*
X913622Y825147D01*
X913540Y825339D01*
X913435Y825538D01*
X913306Y825743D01*
X913153Y825955D01*
X912977Y826174D01*
X912553Y826632D01*
X914674Y828753D01*
X914906Y828529D01*
D02*
G37*
G36*
X942954Y825858D02*
X943074Y825820D01*
X943275Y825788D01*
X943555Y825759D01*
X944874Y825700D01*
X946915Y825680D01*
Y821680D01*
X942915Y821460D01*
Y825900D01*
X942954Y825858D01*
D02*
G37*
G36*
X884184Y825763D02*
X884275Y825640D01*
X884425Y825533D01*
X884634Y825439D01*
X884904Y825360D01*
X885235Y825295D01*
X885624Y825245D01*
X886584Y825187D01*
X887154Y825180D01*
Y822180D01*
X886584Y822173D01*
X885235Y822065D01*
X884904Y822000D01*
X884634Y821921D01*
X884425Y821827D01*
X884275Y821720D01*
X884184Y821597D01*
X884155Y821460D01*
Y825900D01*
X884184Y825763D01*
D02*
G37*
G36*
X977190Y819680D02*
X977150Y820060D01*
X977030Y820400D01*
X976830Y820700D01*
X976550Y820960D01*
X976190Y821180D01*
X975750Y821360D01*
X975230Y821500D01*
X974630Y821600D01*
X973950Y821660D01*
X973190Y821680D01*
Y825680D01*
X973950Y825700D01*
X974630Y825760D01*
X975230Y825860D01*
X975750Y826000D01*
X976190Y826180D01*
X976550Y826400D01*
X976830Y826660D01*
X977030Y826960D01*
X977150Y827300D01*
X977190Y827680D01*
Y819680D01*
D02*
G37*
G36*
X1040855Y828171D02*
X1042668Y824511D01*
X1043110Y823772D01*
X1043979Y822506D01*
X1044407Y821980D01*
X1044831Y821523D01*
X1042709Y819402D01*
X1042288Y819765D01*
X1041835Y820045D01*
X1041349Y820242D01*
X1040830Y820356D01*
X1040279Y820387D01*
X1039696Y820335D01*
X1039080Y820199D01*
X1038432Y819980D01*
X1037751Y819679D01*
X1037038Y819294D01*
X1040390Y829263D01*
X1040855Y828171D01*
D02*
G37*
G36*
X942954Y819358D02*
X943074Y819321D01*
X943275Y819288D01*
X943555Y819259D01*
X944874Y819200D01*
X946915Y819180D01*
Y815180D01*
X942915Y814960D01*
Y819399D01*
X942954Y819358D01*
D02*
G37*
G36*
X884184Y819263D02*
X884275Y819140D01*
X884425Y819033D01*
X884634Y818939D01*
X884904Y818860D01*
X885235Y818795D01*
X885624Y818745D01*
X886584Y818687D01*
X887154Y818680D01*
Y815680D01*
X886584Y815673D01*
X885235Y815565D01*
X884904Y815500D01*
X884634Y815421D01*
X884425Y815328D01*
X884275Y815220D01*
X884184Y815097D01*
X884155Y814960D01*
Y819399D01*
X884184Y819263D01*
D02*
G37*
G36*
X825914Y810343D02*
X825893Y810373D01*
X825828Y810400D01*
X825720Y810423D01*
X825569Y810444D01*
X825138Y810475D01*
X823758Y810500D01*
Y814500D01*
X824167Y814502D01*
X825828Y814600D01*
X825893Y814627D01*
X825914Y814657D01*
Y810343D01*
D02*
G37*
G36*
X942943Y812858D02*
X943029Y812821D01*
X943172Y812788D01*
X943372Y812759D01*
X943945Y812715D01*
X945777Y812680D01*
Y808680D01*
X945233Y808678D01*
X943029Y808540D01*
X942943Y808502D01*
X942915Y808460D01*
Y812899D01*
X942943Y812858D01*
D02*
G37*
G36*
X884189D02*
X884291Y812821D01*
X884461Y812788D01*
X884699Y812759D01*
X885379Y812715D01*
X887556Y812680D01*
Y808680D01*
X886910Y808678D01*
X884189Y808502D01*
X884155Y808460D01*
Y812899D01*
X884189Y812858D01*
D02*
G37*
G36*
X1007159Y811145D02*
X1007249Y810890D01*
X1007399Y810665D01*
X1007609Y810470D01*
X1007879Y810305D01*
X1008209Y810170D01*
X1008599Y810065D01*
X1009049Y809990D01*
X1009559Y809945D01*
X1010129Y809930D01*
Y806930D01*
X1009559Y806915D01*
X1009049Y806870D01*
X1008599Y806795D01*
X1008209Y806690D01*
X1007879Y806555D01*
X1007609Y806390D01*
X1007399Y806195D01*
X1007249Y805970D01*
X1007159Y805715D01*
X1007129Y805430D01*
Y811430D01*
X1007159Y811145D01*
D02*
G37*
G36*
X977190Y802457D02*
X977150Y802837D01*
X977030Y803177D01*
X976830Y803477D01*
X976550Y803737D01*
X976190Y803957D01*
X975750Y804137D01*
X975230Y804277D01*
X974630Y804377D01*
X973950Y804437D01*
X973190Y804457D01*
Y808457D01*
X973950Y808477D01*
X974630Y808537D01*
X975230Y808637D01*
X975750Y808777D01*
X976190Y808957D01*
X976550Y809177D01*
X976830Y809437D01*
X977030Y809737D01*
X977150Y810077D01*
X977190Y810457D01*
Y802457D01*
D02*
G37*
G36*
X918709Y801039D02*
X918607Y800889D01*
X918517Y800718D01*
X918439Y800525D01*
X918373Y800310D01*
X918319Y800073D01*
X918277Y799816D01*
X918247Y799536D01*
X918223Y798912D01*
X915223D01*
X915217Y799235D01*
X915169Y799816D01*
X915127Y800073D01*
X915073Y800310D01*
X915007Y800525D01*
X914929Y800718D01*
X914839Y800889D01*
X914737Y801039D01*
X914623Y801168D01*
X918823D01*
X918709Y801039D01*
D02*
G37*
G36*
X1023789Y808679D02*
X1024332Y808328D01*
X1024925Y808056D01*
X1025566Y807864D01*
X1026256Y807751D01*
X1026994Y807717D01*
X1027782Y807763D01*
X1028618Y807889D01*
X1029503Y808094D01*
X1030437Y808378D01*
X1025372Y798389D01*
X1024971Y799626D01*
X1023139Y804317D01*
X1022808Y804957D01*
X1022488Y805497D01*
X1022179Y805938D01*
X1021882Y806279D01*
X1023294Y809109D01*
X1023789Y808679D01*
D02*
G37*
G36*
X907408Y800134D02*
X907453Y799624D01*
X907528Y799174D01*
X907633Y798784D01*
X907768Y798454D01*
X907933Y798184D01*
X908128Y797974D01*
X908353Y797824D01*
X908608Y797734D01*
X908893Y797704D01*
X902893D01*
X903178Y797734D01*
X903433Y797824D01*
X903658Y797974D01*
X903853Y798184D01*
X904018Y798454D01*
X904153Y798784D01*
X904258Y799174D01*
X904333Y799624D01*
X904378Y800134D01*
X904393Y800704D01*
X907393D01*
X907408Y800134D01*
D02*
G37*
G36*
X1058320Y792800D02*
X1057208Y792791D01*
X1055206Y792644D01*
X1054315Y792506D01*
X1053497Y792326D01*
X1052753Y792104D01*
X1052082Y791839D01*
X1051485Y791531D01*
X1050961Y791181D01*
X1050510Y790789D01*
X1048389Y792910D01*
X1048781Y793361D01*
X1049131Y793885D01*
X1049439Y794482D01*
X1049704Y795153D01*
X1049926Y795897D01*
X1050106Y796715D01*
X1050244Y797606D01*
X1050338Y798570D01*
X1050400Y800720D01*
X1058320Y792800D01*
D02*
G37*
G36*
X920227Y790754D02*
X920209Y790801D01*
X920157Y790843D01*
X920070Y790879D01*
X919948Y790911D01*
X919790Y790938D01*
X919598Y790961D01*
X919109Y790990D01*
X918481Y791000D01*
Y794000D01*
X918812Y794003D01*
X919790Y794062D01*
X919948Y794089D01*
X920070Y794121D01*
X920157Y794158D01*
X920209Y794200D01*
X920227Y794246D01*
Y790754D01*
D02*
G37*
G36*
X891334Y793210D02*
X891394Y792530D01*
X891494Y791929D01*
X891634Y791410D01*
X891814Y790969D01*
X892034Y790610D01*
X892294Y790330D01*
X892594Y790129D01*
X892934Y790010D01*
X893314Y789969D01*
X885314D01*
X885694Y790010D01*
X886034Y790129D01*
X886334Y790330D01*
X886594Y790610D01*
X886814Y790969D01*
X886994Y791410D01*
X887134Y791929D01*
X887234Y792530D01*
X887294Y793210D01*
X887314Y793969D01*
X891314D01*
X891334Y793210D01*
D02*
G37*
G36*
X977190Y787287D02*
X977150Y787667D01*
X977030Y788007D01*
X976830Y788307D01*
X976550Y788567D01*
X976190Y788787D01*
X975750Y788967D01*
X975230Y789107D01*
X974630Y789207D01*
X973950Y789267D01*
X973190Y789287D01*
Y793287D01*
X973950Y793307D01*
X974630Y793367D01*
X975230Y793467D01*
X975750Y793607D01*
X976190Y793787D01*
X976550Y794007D01*
X976830Y794267D01*
X977030Y794567D01*
X977150Y794907D01*
X977190Y795287D01*
Y787287D01*
D02*
G37*
G36*
X1007159Y792745D02*
X1007249Y792490D01*
X1007399Y792265D01*
X1007609Y792070D01*
X1007879Y791905D01*
X1008209Y791770D01*
X1008599Y791665D01*
X1009049Y791590D01*
X1009559Y791545D01*
X1010129Y791530D01*
Y788530D01*
X1009559Y788515D01*
X1009049Y788470D01*
X1008599Y788395D01*
X1008209Y788290D01*
X1007879Y788155D01*
X1007609Y787990D01*
X1007399Y787795D01*
X1007249Y787570D01*
X1007159Y787315D01*
X1007129Y787030D01*
Y793030D01*
X1007159Y792745D01*
D02*
G37*
G36*
X936162Y781680D02*
X936034Y781794D01*
X935884Y781896D01*
X935712Y781985D01*
X935519Y782064D01*
X935304Y782130D01*
X935068Y782184D01*
X934810Y782225D01*
X934530Y782255D01*
X933906Y782280D01*
Y785279D01*
X934229Y785285D01*
X934810Y785333D01*
X935068Y785376D01*
X935304Y785430D01*
X935519Y785496D01*
X935712Y785574D01*
X935884Y785664D01*
X936034Y785766D01*
X936162Y785880D01*
Y781680D01*
D02*
G37*
G36*
X907408Y780134D02*
X907453Y779624D01*
X907528Y779174D01*
X907633Y778784D01*
X907768Y778454D01*
X907933Y778184D01*
X908128Y777974D01*
X908353Y777824D01*
X908608Y777734D01*
X908893Y777704D01*
X902893D01*
X903178Y777734D01*
X903433Y777824D01*
X903658Y777974D01*
X903853Y778184D01*
X904018Y778454D01*
X904153Y778784D01*
X904258Y779174D01*
X904333Y779624D01*
X904378Y780134D01*
X904393Y780704D01*
X907393D01*
X907408Y780134D01*
D02*
G37*
G36*
X1007159Y777035D02*
X1007249Y776780D01*
X1007399Y776555D01*
X1007609Y776360D01*
X1007879Y776195D01*
X1008209Y776060D01*
X1008599Y775955D01*
X1009049Y775880D01*
X1009559Y775835D01*
X1010129Y775820D01*
Y772820D01*
X1009559Y772805D01*
X1009049Y772760D01*
X1008599Y772685D01*
X1008209Y772580D01*
X1007879Y772445D01*
X1007609Y772280D01*
X1007399Y772085D01*
X1007249Y771860D01*
X1007159Y771605D01*
X1007129Y771320D01*
Y777320D01*
X1007159Y777035D01*
D02*
G37*
G36*
X977190Y771320D02*
X977160Y771605D01*
X977070Y771860D01*
X976920Y772085D01*
X976710Y772280D01*
X976440Y772445D01*
X976110Y772580D01*
X975720Y772685D01*
X975270Y772760D01*
X974760Y772805D01*
X974190Y772820D01*
Y775820D01*
X974760Y775835D01*
X975270Y775880D01*
X975720Y775955D01*
X976110Y776060D01*
X976440Y776195D01*
X976710Y776360D01*
X976920Y776555D01*
X977070Y776780D01*
X977160Y777035D01*
X977190Y777320D01*
Y771320D01*
D02*
G37*
G36*
X930066Y767725D02*
X929726Y767605D01*
X929426Y767405D01*
X929166Y767125D01*
X928946Y766765D01*
X928766Y766325D01*
X928626Y765805D01*
X928526Y765205D01*
X928466Y764525D01*
X928446Y763765D01*
X924446D01*
X924426Y764525D01*
X924366Y765205D01*
X924266Y765805D01*
X924126Y766325D01*
X923946Y766765D01*
X923726Y767125D01*
X923466Y767405D01*
X923166Y767605D01*
X922826Y767725D01*
X922446Y767765D01*
X930446D01*
X930066Y767725D01*
D02*
G37*
G36*
X893749Y764215D02*
X893839Y763960D01*
X893989Y763735D01*
X894200Y763540D01*
X894470Y763375D01*
X894799Y763240D01*
X895190Y763135D01*
X895639Y763060D01*
X896150Y763015D01*
X896720Y763000D01*
Y760000D01*
X893719Y760031D01*
Y764500D01*
X893749Y764215D01*
D02*
G37*
G36*
X911811Y759400D02*
X911683Y759514D01*
X911533Y759616D01*
X911361Y759706D01*
X911168Y759784D01*
X910953Y759850D01*
X910717Y759904D01*
X910459Y759946D01*
X910179Y759976D01*
X909555Y760000D01*
Y763000D01*
X909878Y763006D01*
X910459Y763054D01*
X910717Y763096D01*
X910953Y763150D01*
X911168Y763216D01*
X911361Y763294D01*
X911533Y763384D01*
X911683Y763486D01*
X911811Y763600D01*
Y759400D01*
D02*
G37*
G36*
X837210Y744996D02*
X837131Y744893D01*
X837060Y744722D01*
X836999Y744482D01*
X836947Y744173D01*
X836905Y743795D01*
X836849Y742835D01*
X836830Y741600D01*
X832830D01*
X832825Y742252D01*
X832661Y744482D01*
X832600Y744722D01*
X832530Y744893D01*
X832450Y744996D01*
X832361Y745031D01*
X837299D01*
X837210Y744996D01*
D02*
G37*
G36*
X932499Y887766D02*
X932589Y887511D01*
X932739Y887286D01*
X932950Y887091D01*
X933220Y886926D01*
X933549Y886791D01*
X933940Y886686D01*
X934389Y886611D01*
X934900Y886566D01*
X935066Y886562D01*
X935590Y886605D01*
X935848Y886647D01*
X936084Y886701D01*
X936299Y886767D01*
X936492Y886845D01*
X936664Y886935D01*
X936814Y887037D01*
X936942Y887151D01*
Y882951D01*
X936814Y883065D01*
X936664Y883167D01*
X936492Y883257D01*
X936299Y883335D01*
X936084Y883401D01*
X935848Y883455D01*
X935590Y883497D01*
X935311Y883527D01*
X935005Y883539D01*
X934900Y883536D01*
X934389Y883491D01*
X933940Y883416D01*
X933549Y883311D01*
X933220Y883176D01*
X932950Y883011D01*
X932739Y882816D01*
X932589Y882591D01*
X932499Y882336D01*
X932469Y882051D01*
Y888051D01*
X932499Y887766D01*
D02*
G37*
G36*
X656317Y879104D02*
X656804Y878679D01*
X657331Y878304D01*
X657898Y877979D01*
X658505Y877704D01*
X659151Y877479D01*
X659838Y877304D01*
X660564Y877179D01*
X661331Y877104D01*
X662138Y877079D01*
X662119Y872079D01*
X661303Y872054D01*
X660528Y871979D01*
X659795Y871854D01*
X659102Y871679D01*
X658450Y871454D01*
X657839Y871179D01*
X657268Y870854D01*
X656739Y870479D01*
X656251Y870054D01*
X655803Y869579D01*
X655870Y879579D01*
X656317Y879104D01*
D02*
G37*
G36*
X1007140Y873393D02*
X1007230Y873138D01*
X1007380Y872913D01*
X1007590Y872718D01*
X1007860Y872553D01*
X1008190Y872418D01*
X1008580Y872313D01*
X1009030Y872238D01*
X1009540Y872193D01*
X1009725Y872188D01*
X1010256Y872232D01*
X1010514Y872274D01*
X1010750Y872328D01*
X1010965Y872394D01*
X1011158Y872472D01*
X1011330Y872562D01*
X1011480Y872664D01*
X1011608Y872778D01*
Y868578D01*
X1011480Y868692D01*
X1011330Y868794D01*
X1011158Y868884D01*
X1010965Y868962D01*
X1010750Y869028D01*
X1010514Y869082D01*
X1010256Y869124D01*
X1009976Y869154D01*
X1009660Y869166D01*
X1009540Y869163D01*
X1009030Y869118D01*
X1008580Y869043D01*
X1008190Y868938D01*
X1007860Y868803D01*
X1007590Y868638D01*
X1007380Y868443D01*
X1007230Y868218D01*
X1007140Y867963D01*
X1007110Y867678D01*
Y873678D01*
X1007140Y873393D01*
D02*
G37*
G36*
X855893Y815243D02*
X856013Y814903D01*
X856213Y814603D01*
X856493Y814343D01*
X856853Y814123D01*
X857293Y813943D01*
X857813Y813803D01*
X858413Y813703D01*
X858797Y813669D01*
X859816Y813723D01*
Y813624D01*
X859853Y813623D01*
Y809623D01*
X859816Y809622D01*
Y809523D01*
X859779Y809542D01*
X859709Y809559D01*
X859604Y809574D01*
X859294Y809598D01*
X859090Y809603D01*
X858413Y809543D01*
X857813Y809443D01*
X857293Y809303D01*
X856853Y809123D01*
X856493Y808903D01*
X856213Y808643D01*
X856013Y808343D01*
X855893Y808003D01*
X855853Y807623D01*
Y815623D01*
X855893Y815243D01*
D02*
G37*
G36*
X781031Y804654D02*
X780981Y804838D01*
X780831Y805003D01*
X780581Y805148D01*
X780230Y805274D01*
X779781Y805381D01*
X779230Y805468D01*
X778580Y805536D01*
X776981Y805614D01*
X776031Y805623D01*
Y810623D01*
X776981Y810633D01*
X779230Y810778D01*
X779781Y810866D01*
X780230Y810972D01*
X780581Y811098D01*
X780831Y811244D01*
X780981Y811409D01*
X781031Y811593D01*
Y804654D01*
D02*
G37*
G36*
X763515Y803270D02*
X763632Y801669D01*
X763735Y801020D01*
X763867Y800470D01*
X764029Y800020D01*
X764220Y799669D01*
X764441Y799419D01*
X764690Y799269D01*
X764969Y799220D01*
X757030D01*
X757310Y799269D01*
X757560Y799419D01*
X757780Y799669D01*
X757971Y800020D01*
X758133Y800470D01*
X758265Y801020D01*
X758368Y801669D01*
X758441Y802420D01*
X758500Y804220D01*
X763500D01*
X763515Y803270D01*
D02*
G37*
G36*
X765020Y797025D02*
X765170Y796600D01*
X765419Y796225D01*
X765770Y795900D01*
X766219Y795625D01*
X766769Y795400D01*
X767420Y795225D01*
X768169Y795100D01*
X768497Y795071D01*
X769076Y795108D01*
X769280Y795147D01*
X769443Y795192D01*
X769564Y795243D01*
X769643Y795300D01*
Y795009D01*
X769969Y795000D01*
Y790000D01*
X769643Y789991D01*
Y789700D01*
X769564Y789757D01*
X769443Y789808D01*
X769280Y789853D01*
X769076Y789892D01*
X768830Y789925D01*
X768630Y789941D01*
X768169Y789900D01*
X767420Y789775D01*
X766769Y789600D01*
X766219Y789375D01*
X765770Y789100D01*
X765419Y788775D01*
X765170Y788400D01*
X765020Y787975D01*
X764969Y787500D01*
Y797500D01*
X765020Y797025D01*
D02*
G37*
G36*
X776516Y792363D02*
X776565Y792242D01*
X776649Y792095D01*
X776766Y791923D01*
X776916Y791726D01*
X777318Y791256D01*
X778173Y790363D01*
X774637Y786827D01*
X774314Y787146D01*
X773077Y788234D01*
X772905Y788351D01*
X772758Y788435D01*
X772637Y788484D01*
X772540Y788500D01*
X776500Y792460D01*
X776516Y792363D01*
D02*
G37*
G36*
X825914Y772500D02*
X825864Y772975D01*
X825714Y773400D01*
X825464Y773775D01*
X825114Y774100D01*
X824664Y774375D01*
X824114Y774600D01*
X823464Y774775D01*
X822714Y774900D01*
X821864Y774975D01*
X820914Y775000D01*
Y780000D01*
X821864Y780025D01*
X822714Y780100D01*
X823464Y780225D01*
X824114Y780400D01*
X824664Y780625D01*
X825114Y780900D01*
X825464Y781225D01*
X825714Y781600D01*
X825864Y782025D01*
X825914Y782500D01*
Y772500D01*
D02*
G37*
G36*
X855893Y798620D02*
X856013Y798280D01*
X856213Y797980D01*
X856493Y797720D01*
X856853Y797500D01*
X857293Y797320D01*
X857813Y797180D01*
X858413Y797080D01*
X859093Y797020D01*
X859614Y797006D01*
X861388Y797100D01*
Y792900D01*
X861352Y792919D01*
X861281Y792936D01*
X861177Y792951D01*
X860866Y792975D01*
X859837Y792999D01*
X859818Y792999D01*
X859093Y792980D01*
X858413Y792920D01*
X857813Y792820D01*
X857293Y792680D01*
X856853Y792500D01*
X856493Y792280D01*
X856213Y792020D01*
X856013Y791720D01*
X855893Y791380D01*
X855853Y791000D01*
Y799000D01*
X855893Y798620D01*
D02*
G37*
G36*
X854504Y771418D02*
X854164Y771298D01*
X853864Y771098D01*
X853604Y770818D01*
X853384Y770458D01*
X853204Y770018D01*
X853064Y769498D01*
X852964Y768898D01*
X852904Y768218D01*
X852884Y767458D01*
X848884D01*
X848864Y768218D01*
X848804Y768898D01*
X848704Y769498D01*
X848564Y770018D01*
X848384Y770458D01*
X848164Y770818D01*
X847904Y771098D01*
X847604Y771298D01*
X847264Y771418D01*
X846884Y771458D01*
X854884D01*
X854504Y771418D01*
D02*
G37*
G36*
X843322Y766885D02*
X843400Y766852D01*
X843512Y766823D01*
X843656Y766798D01*
X843833Y766777D01*
X844561Y766737D01*
X845210Y766729D01*
X844507Y762729D01*
X842741Y762756D01*
X843277Y766921D01*
X843322Y766885D01*
D02*
G37*
G36*
X852887Y762332D02*
X852991Y760837D01*
X853030Y760676D01*
X853075Y760562D01*
X853126Y760492D01*
X853183Y760470D01*
X848585D01*
X848641Y760492D01*
X848692Y760562D01*
X848737Y760676D01*
X848776Y760837D01*
X848809Y761044D01*
X848857Y761596D01*
X848881Y762332D01*
X848884Y762769D01*
X852884D01*
X852887Y762332D01*
D02*
G37*
G36*
X869965Y764505D02*
X869948Y764435D01*
X869933Y764330D01*
X869909Y764019D01*
X869902Y763748D01*
X869903Y763709D01*
X869962Y763029D01*
X870061Y762430D01*
X870199Y761909D01*
X870376Y761469D01*
X870593Y761109D01*
X870849Y760829D01*
X871144Y760630D01*
X871479Y760509D01*
X871853Y760470D01*
X863914D01*
X864288Y760509D01*
X864623Y760630D01*
X864919Y760829D01*
X865175Y761109D01*
X865391Y761469D01*
X865569Y761909D01*
X865706Y762430D01*
X865805Y763029D01*
X865841Y763449D01*
X865784Y764542D01*
X869984D01*
X869965Y764505D01*
D02*
G37*
G36*
X718531Y746000D02*
X718491Y746380D01*
X718371Y746720D01*
X718170Y747020D01*
X717890Y747280D01*
X717531Y747500D01*
X717091Y747680D01*
X716571Y747820D01*
X715971Y747920D01*
X715291Y747980D01*
X714750Y747994D01*
X714210Y747980D01*
X713530Y747920D01*
X712930Y747820D01*
X712410Y747680D01*
X711970Y747500D01*
X711609Y747280D01*
X711329Y747020D01*
X711130Y746720D01*
X711010Y746380D01*
X710969Y746000D01*
Y754000D01*
X711010Y753620D01*
X711130Y753280D01*
X711329Y752980D01*
X711609Y752720D01*
X711970Y752500D01*
X712410Y752320D01*
X712930Y752180D01*
X713530Y752080D01*
X714210Y752020D01*
X714750Y752006D01*
X715291Y752020D01*
X715971Y752080D01*
X716571Y752180D01*
X717091Y752320D01*
X717531Y752500D01*
X717890Y752720D01*
X718170Y752980D01*
X718371Y753280D01*
X718491Y753620D01*
X718531Y754000D01*
Y746000D01*
D02*
G37*
G36*
X690519Y743730D02*
X690117Y743580D01*
X689761Y743331D01*
X689453Y742980D01*
X689192Y742531D01*
X688979Y741981D01*
X688813Y741330D01*
X688695Y740581D01*
X688669Y740267D01*
X688708Y739650D01*
X688747Y739446D01*
X688792Y739283D01*
X688843Y739162D01*
X688900Y739082D01*
X688607D01*
X688600Y738781D01*
X683600D01*
X683592Y739082D01*
X683300D01*
X683357Y739162D01*
X683408Y739283D01*
X683453Y739446D01*
X683492Y739650D01*
X683525Y739896D01*
X683542Y740109D01*
X683500Y740581D01*
X683375Y741330D01*
X683200Y741981D01*
X682975Y742531D01*
X682700Y742980D01*
X682375Y743331D01*
X682000Y743580D01*
X681575Y743730D01*
X681100Y743781D01*
X690969D01*
X690519Y743730D01*
D02*
G37*
D11*
X905893Y792734D02*
Y809220D01*
X897933Y817180D02*
X905893Y809220D01*
X837861Y825930D02*
X837951Y826020D01*
Y831423D01*
X839708Y833180D01*
X850958D01*
X928500Y885051D02*
X939085D01*
X893218Y916540D02*
Y928248D01*
X893178Y916500D02*
X893218Y916540D01*
X870700Y924700D02*
Y925538D01*
Y924700D02*
X871327Y924072D01*
Y915592D02*
Y924072D01*
Y915592D02*
X871919Y915000D01*
X908844Y783780D02*
X938305D01*
X905893Y780829D02*
X908844Y783780D01*
X1029482Y800800D02*
X1033000D01*
X1021852Y808430D02*
X1029482Y800800D01*
X1002159Y808430D02*
X1021852D01*
X904626Y836680D02*
X916723Y824583D01*
X876810Y836680D02*
X904626D01*
X699939Y836483D02*
X701124Y837668D01*
X707000D01*
X708950Y839618D01*
X699925Y836483D02*
X699939D01*
X708950Y839618D02*
X710450D01*
X928133Y803554D02*
X938212D01*
X908007Y823680D02*
X928133Y803554D01*
X876810Y823680D02*
X908007D01*
X819659Y840910D02*
X838939D01*
X839438Y841410D01*
X841159Y843033D02*
Y843130D01*
X839536Y841410D02*
X841159Y843033D01*
X839438Y841410D02*
X839536D01*
X841159Y843130D02*
X848208Y850180D01*
X859708Y856180D02*
X876810D01*
X853708Y850180D02*
X859708Y856180D01*
X848208Y850180D02*
X853708D01*
X809388D02*
X810388D01*
X819659Y840910D01*
X938212Y803554D02*
X967446Y774320D01*
X982159D01*
X840889Y858680D02*
X850875D01*
X831388Y850180D02*
X832389D01*
X840889Y858680D01*
X686000Y750000D02*
X686100Y749900D01*
X916723Y794257D02*
Y803310D01*
X926212Y792500D02*
X926446Y792734D01*
X916723Y794257D02*
X918481Y792500D01*
X926212D01*
X876810Y817180D02*
X897933D01*
X858208Y862680D02*
X876810D01*
X853708Y867180D02*
X858208Y862680D01*
X850958Y867180D02*
X853708D01*
X831388D02*
X850958D01*
X891000Y761500D02*
X913953D01*
X887500Y765000D02*
X891000Y761500D01*
X905893Y772734D02*
Y780829D01*
X1002159Y791287D02*
X1003416Y790030D01*
X1037461D01*
X1043770Y796339D01*
X834834Y935000D02*
X837333Y937500D01*
X850000D01*
X1002159Y774320D02*
X1031920D01*
X1058400Y800800D01*
X1033000Y826200D02*
X1035487Y823713D01*
X1040520D01*
X1043770Y796339D02*
Y820463D01*
X1040520Y823713D02*
X1043770Y820463D01*
X1002182Y870678D02*
X1013751D01*
X1002141Y870636D02*
X1002182Y870678D01*
X1005429Y837470D02*
X1050180D01*
X1002866Y834907D02*
X1005429Y837470D01*
X1002159Y825000D02*
X1002866Y825707D01*
Y834907D01*
X1050180Y837470D02*
X1058400Y829250D01*
Y826200D02*
Y829250D01*
D16*
X830884Y811623D02*
D03*
X850884D02*
D03*
X830884Y777678D02*
D03*
X850884D02*
D03*
X1002159Y808430D02*
D03*
X982159D02*
D03*
X830884Y795000D02*
D03*
X850884D02*
D03*
X982159Y825000D02*
D03*
Y791287D02*
D03*
X982159Y774320D02*
D03*
X686000Y750000D02*
D03*
X982141Y870636D02*
D03*
X982321Y890827D02*
D03*
X704925Y895525D02*
D03*
X687500Y930000D02*
D03*
X704925Y877000D02*
D03*
X1002159Y774320D02*
D03*
X1002159Y825000D02*
D03*
X1002141Y870636D02*
D03*
X1002159Y791287D02*
D03*
X1048400Y922316D02*
D03*
X707500Y930000D02*
D03*
X724925Y877000D02*
D03*
X1068400Y922316D02*
D03*
X1002321Y890827D02*
D03*
X724925Y895525D02*
D03*
X706000Y750000D02*
D03*
D17*
X834834Y930000D02*
D03*
X834830Y750000D02*
D03*
D18*
X821833Y930000D02*
D03*
X821830Y750000D02*
D03*
D19*
X850958Y833180D02*
D03*
Y850180D02*
D03*
X871919Y915000D02*
D03*
X850958Y884180D02*
D03*
X960000Y831500D02*
D03*
X871919Y898000D02*
D03*
X850958Y867180D02*
D03*
X960000Y848500D02*
D03*
D20*
X745925Y888500D02*
D03*
D21*
Y873500D02*
D03*
D22*
X732500Y808123D02*
D03*
Y846223D02*
D03*
Y833777D02*
D03*
X787500Y833523D02*
D03*
Y820823D02*
D03*
Y808123D02*
D03*
Y846223D02*
D03*
X732500Y820823D02*
D03*
D23*
X935570Y817180D02*
D03*
X876810Y856180D02*
D03*
Y862680D02*
D03*
X935570Y856180D02*
D03*
Y849680D02*
D03*
Y830180D02*
D03*
Y810680D02*
D03*
X876810D02*
D03*
Y817180D02*
D03*
Y823680D02*
D03*
Y830180D02*
D03*
Y836680D02*
D03*
X935570Y862680D02*
D03*
Y869180D02*
D03*
X876810Y849680D02*
D03*
Y869180D02*
D03*
Y843180D02*
D03*
X935570Y823680D02*
D03*
Y843180D02*
D03*
Y836680D02*
D03*
D24*
X850884Y753750D02*
D03*
X867884D02*
D03*
X1041900Y903250D02*
D03*
X928500Y885051D02*
D03*
X744000Y792500D02*
D03*
X911500Y885051D02*
D03*
X761000Y792500D02*
D03*
X1058900Y903250D02*
D03*
D25*
X809388Y850180D02*
D03*
X831388D02*
D03*
X809388Y867180D02*
D03*
D26*
X893178Y916500D02*
D03*
X926446Y792734D02*
D03*
X905893Y792734D02*
D03*
X887500Y785000D02*
D03*
X893178Y896500D02*
D03*
X887500Y765000D02*
D03*
X905893Y772734D02*
D03*
X926446Y772734D02*
D03*
D27*
X710450Y839618D02*
D03*
X684550D02*
D03*
Y830118D02*
D03*
Y849118D02*
D03*
X710450D02*
D03*
D28*
X708500Y802500D02*
D03*
X681500D02*
D03*
D29*
X713500Y782500D02*
D03*
X681500D02*
D03*
D30*
X911500Y922316D02*
D03*
X1008740D02*
D03*
X928500D02*
D03*
X1025740D02*
D03*
D31*
X831388Y867180D02*
D03*
D32*
X765375Y875250D02*
D03*
D33*
X726500Y930000D02*
D03*
X798500D02*
D03*
X798500Y750000D02*
D03*
X726500D02*
D03*
D34*
X710450Y830118D02*
D03*
D35*
X765375Y888250D02*
D03*
D58*
X650412Y804618D02*
D03*
Y849618D02*
D03*
Y829618D02*
D03*
D65*
X629412Y862118D02*
D03*
Y817118D02*
D03*
D69*
X798500Y750000D02*
X812816D01*
X837173Y739257D02*
X924103D01*
X706000Y750000D02*
X726500D01*
X798500Y917185D02*
Y930000D01*
Y917185D02*
X817685Y898000D01*
X871919D01*
X954566Y817180D02*
X965289Y806457D01*
X935570Y817180D02*
X954566D01*
X965289Y806457D02*
X982159D01*
X867884Y757032D02*
Y766684D01*
X867801Y756949D02*
X867884Y757032D01*
X867801Y756949D02*
X870250Y754500D01*
X876810Y849680D02*
X892224D01*
X892597Y850053D01*
X853377Y811623D02*
X861958D01*
X852500Y812500D02*
X853377Y811623D01*
X848923Y764729D02*
X850884Y766690D01*
Y777678D01*
X840884Y765112D02*
X841266Y764729D01*
X848923D01*
X850884Y762769D01*
Y753750D02*
Y762769D01*
X926446Y741600D02*
Y772734D01*
X834830Y741600D02*
X837173Y739257D01*
X924103D02*
X926446Y741600D01*
X834830D02*
Y750000D01*
X812673Y930000D02*
X821833D01*
X770295Y820823D02*
X799208D01*
X1069670Y862870D02*
Y891456D01*
X1068400Y892726D02*
X1069670Y891456D01*
X1058400Y851600D02*
X1069670Y862870D01*
X1068400Y892726D02*
Y922316D01*
X703832Y896618D02*
X704925Y895525D01*
X689843Y896618D02*
X703832D01*
X687500Y898961D02*
X689843Y896618D01*
X687500Y898961D02*
Y930000D01*
X852830Y795000D02*
X863531D01*
X921291Y856158D02*
X935092D01*
X935320Y855930D01*
X921269Y856135D02*
X921291Y856158D01*
X876810Y843180D02*
X896383D01*
X911398Y858195D01*
Y885000D01*
X976037Y748680D02*
X979284D01*
X791317Y867180D02*
X809388D01*
X935570Y823680D02*
X980839D01*
X982159Y825000D01*
X965170Y791287D02*
X982159D01*
X945777Y810680D02*
X965170Y791287D01*
X935570Y810680D02*
X945777D01*
X912897Y849828D02*
X912971Y849754D01*
X935496D02*
X935570Y849680D01*
X912971Y849754D02*
X935496D01*
X972604Y836680D02*
X972768Y836517D01*
X972226D02*
X972768D01*
X935570Y836680D02*
X972604D01*
X960000Y831500D02*
X961913Y833413D01*
X960000Y831500D02*
X961137D01*
X963137Y833500D01*
X911398Y885000D02*
X911449Y885051D01*
Y922264D01*
X911500Y922316D01*
X949000Y862680D02*
X955320Y869000D01*
X982159D01*
X935570Y862680D02*
X949000D01*
X876810Y810680D02*
X887556D01*
X889314Y808923D01*
Y786814D02*
Y808923D01*
X887500Y785000D02*
X889314Y786814D01*
X871919Y885581D02*
Y898000D01*
Y885581D02*
X876810Y880690D01*
Y869180D02*
Y880690D01*
X891678Y898000D02*
X893178Y896500D01*
X873677Y898000D02*
X891678D01*
X960776Y890827D02*
X982321D01*
X953250Y883301D02*
X960776Y890827D01*
X953250Y875750D02*
Y883301D01*
X946680Y869180D02*
X953250Y875750D01*
X935570Y869180D02*
X946680D01*
X935570Y843180D02*
X962753D01*
X773466Y846332D02*
X773521Y846278D01*
X704925Y877000D02*
Y895525D01*
Y865525D02*
X708630Y861821D01*
X714895D01*
X704925Y865525D02*
Y877000D01*
X787445Y846278D02*
X787500Y846223D01*
X773521Y846278D02*
X787445D01*
X745925Y845193D02*
X770295Y820823D01*
X745925Y845193D02*
Y873500D01*
X765375Y845557D02*
X777343Y833589D01*
X787435D01*
X787500Y833523D01*
X765375Y845557D02*
Y875250D01*
X787500Y833523D02*
X802734D01*
X823758Y812500D01*
X832500D01*
X831971Y795859D02*
X832830Y795000D01*
X824173Y795859D02*
X831971D01*
X799208Y820823D02*
X824173Y795859D01*
X765375Y888250D02*
Y893768D01*
X763618Y895525D02*
X765375Y893768D01*
X724925Y895525D02*
X763618D01*
X743000Y885000D02*
X748137D01*
X735000Y877000D02*
X743000Y885000D01*
X724925Y877000D02*
X735000D01*
X707500Y930000D02*
X726500D01*
D70*
X787500Y777500D02*
X832830D01*
X772500Y792500D02*
X787500Y777500D01*
X959940Y858998D02*
X959970Y858969D01*
Y848530D02*
Y858969D01*
Y848530D02*
X964000Y844500D01*
X710750Y799570D02*
X720298D01*
X708500Y801820D02*
Y802500D01*
Y801820D02*
X710750Y799570D01*
X821830Y750000D02*
Y761020D01*
X821972Y761162D01*
X1033000Y901493D02*
X1034757Y903250D01*
X1033000Y877000D02*
Y901493D01*
X1027343Y903250D02*
X1034757D01*
X1058400Y877000D02*
X1058650Y877250D01*
Y903000D01*
X1058900Y903250D01*
X1048400Y922316D02*
X1054900D01*
X1058900Y903250D02*
Y918316D01*
X1054900Y922316D02*
X1058900Y918316D01*
X1025740Y922316D02*
X1048400D01*
X698500Y842547D02*
Y843000D01*
X684550Y839618D02*
X695571D01*
X698500Y842547D01*
X1034757Y903250D02*
X1041900D01*
X668356Y874579D02*
X668395Y874540D01*
X650451Y874579D02*
X668356D01*
X650412Y874618D02*
X650451Y874579D01*
X741071Y819823D02*
X744000Y816894D01*
Y794000D02*
Y816894D01*
X733500Y819823D02*
X741071D01*
X742500Y792500D02*
X744000Y794000D01*
X732500Y820823D02*
X733500Y819823D01*
X735000Y792500D02*
X742500D01*
X713500Y782500D02*
X726500D01*
X686100Y736226D02*
Y749900D01*
X963783Y844270D02*
X979471D01*
X992159Y831582D01*
X947716Y922316D02*
X947794Y922237D01*
X928500Y922316D02*
X947716D01*
X947794D02*
X1008740D01*
X992159Y767540D02*
X998749Y760950D01*
X1052555D01*
X992159Y767540D02*
Y831582D01*
X1052555Y760950D02*
X1055484Y758021D01*
Y748680D02*
Y758021D01*
X763929Y808123D02*
X787500D01*
X761000Y792500D02*
Y805194D01*
Y792500D02*
X772500D01*
X761000Y805194D02*
X763929Y808123D01*
X1002321Y890827D02*
X1014402D01*
X650412Y829618D02*
X651596D01*
X658461Y836483D01*
X673953D02*
X679368Y831068D01*
X658461Y836483D02*
X673953D01*
X679368Y831068D02*
X683600D01*
X684550Y830118D01*
X651596Y849618D02*
X658461Y842753D01*
X673953D01*
X679368Y848168D01*
X683600D01*
X650412Y849618D02*
X651596D01*
X683600Y848168D02*
X684550Y849118D01*
X608293Y881993D02*
X622918Y896618D01*
X608293Y800837D02*
X626512Y782618D01*
X608293Y800837D02*
Y881993D01*
X626512Y782618D02*
X629412D01*
X622918Y896618D02*
X629412D01*
Y782618D02*
X681382D01*
X681500Y782500D01*
Y802500D01*
D71*
X710450Y830118D02*
X711995Y831663D01*
X715385D02*
X720800Y837078D01*
X711995Y831663D02*
X715385D01*
X720800Y837078D02*
X726199D01*
X729500Y833777D01*
X732500D01*
X720800Y842158D02*
X725435D01*
X715385Y847573D02*
X720800Y842158D01*
X725435D02*
X729500Y846223D01*
X710450Y849118D02*
X711995Y847573D01*
X729500Y846223D02*
X732500D01*
X711995Y847573D02*
X715385D01*
D72*
X629412Y896618D02*
D03*
Y782618D02*
D03*
D73*
X650412Y874618D02*
D03*
D74*
X953884Y749442D02*
D03*
X979284Y748680D02*
D03*
X1004684D02*
D03*
X1030084D02*
D03*
X1033000Y826200D02*
D03*
Y851600D02*
D03*
X1058400Y800800D02*
D03*
Y851600D02*
D03*
Y877000D02*
D03*
Y826200D02*
D03*
X1033000Y800800D02*
D03*
D75*
X1055484Y748680D02*
D03*
X1033000Y877000D02*
D03*
D76*
X1085878Y903250D02*
D03*
X1085955Y773450D02*
D03*
X629412Y925869D02*
D03*
Y753453D02*
D03*
D77*
X812816Y750000D02*
D03*
X867884Y766684D02*
D03*
X837861Y825930D02*
D03*
X939085Y885051D02*
D03*
X861958Y811623D02*
D03*
X840884Y765112D02*
D03*
X959940Y858998D02*
D03*
X938305Y783780D02*
D03*
X863531Y795000D02*
D03*
X921269Y856135D02*
D03*
X791317Y867180D02*
D03*
X916723Y824583D02*
D03*
X912897Y849828D02*
D03*
X972768Y836517D02*
D03*
X850875Y858680D02*
D03*
X916723Y803310D02*
D03*
X947794Y922237D02*
D03*
X714895Y861821D02*
D03*
X773466Y846332D02*
D03*
X913953Y761500D02*
D03*
X850000Y937500D02*
D03*
X1013751Y870678D02*
D03*
X1014402Y890827D02*
D03*
D78*
X892597Y850053D02*
D03*
X822833Y907567D02*
D03*
X893218Y928248D02*
D03*
X821972Y761162D02*
D03*
X812673Y930000D02*
D03*
X870700Y925538D02*
D03*
X846270Y926270D02*
D03*
X1027343Y903250D02*
D03*
X776951Y916000D02*
D03*
X756500D02*
D03*
X734500D02*
D03*
X712500D02*
D03*
X668395Y874540D02*
D03*
X735000Y792500D02*
D03*
D79*
X720298Y799570D02*
D03*
X726500Y782500D02*
D03*
X686100Y736226D02*
D03*
X772500Y792500D02*
D03*
D80*
X1085878Y882692D02*
D03*
X992321Y914046D02*
D03*
X956900Y913856D02*
D03*
X992321Y939894D02*
D03*
X785846Y892500D02*
D03*
X1085955Y796136D02*
D03*
X612068Y765953D02*
D03*
X893178Y883047D02*
D03*
X779730Y762500D02*
D03*
X755730Y817323D02*
D03*
X662500Y766781D02*
D03*
X611912Y912467D02*
D03*
X982321Y930585D02*
D03*
X667500Y793598D02*
D03*
X646912Y738413D02*
D03*
X1066400Y771496D02*
D03*
X671072Y901775D02*
D03*
X1013552Y859600D02*
D03*
X1085878Y933145D02*
D03*
X965000Y930585D02*
D03*
X975871Y913856D02*
D03*
X1078502Y748152D02*
D03*
X829109Y941104D02*
D03*
X697500Y910478D02*
D03*
X870250Y783750D02*
D03*
X787500Y795485D02*
D03*
X718500Y765000D02*
D03*
X947716Y939894D02*
D03*
X1039775D02*
D03*
X697500Y942500D02*
D03*
X665000D02*
D03*
X899428Y862680D02*
D03*
X798500Y941770D02*
D03*
X938212Y772734D02*
D03*
X654551Y918745D02*
D03*
D81*
X699925Y836483D02*
D03*
D82*
X698500Y843000D02*
D03*
M02*
