G04*
G04 #@! TF.GenerationSoftware,Altium Limited,Altium Designer,26.5.0 (11)*
G04*
G04 Layer_Color=8388736*
G04 Board_Origin=0|0*
%FSLAX44Y44*%
%MOMM*%
G71*
G04*
G04 #@! TF.SameCoordinates,1F41E012-7D3C-4DE9-B48C-88F2C9379496*
G04*
G04*
G04 #@! TF.FilePolarity,Negative*
G04*
G01*
G75*
%ADD36R,1.2000X1.4500*%
%ADD37R,0.7000X1.2000*%
G04:AMPARAMS|DCode=38|XSize=0.7mm|YSize=1.2mm|CornerRadius=0.225mm|HoleSize=0mm|Usage=FLASHONLY|Rotation=180.000|XOffset=0mm|YOffset=0mm|HoleType=Round|Shape=RoundedRectangle|*
%AMROUNDEDRECTD38*
21,1,0.7000,0.7500,0,0,180.0*
21,1,0.2500,1.2000,0,0,180.0*
1,1,0.4500,-0.1250,0.3750*
1,1,0.4500,0.1250,0.3750*
1,1,0.4500,0.1250,-0.3750*
1,1,0.4500,-0.1250,-0.3750*
%
%ADD38ROUNDEDRECTD38*%
%ADD39R,1.5500X1.0000*%
%ADD40R,1.0500X0.9000*%
G04:AMPARAMS|DCode=41|XSize=0.9mm|YSize=1.05mm|CornerRadius=0.275mm|HoleSize=0mm|Usage=FLASHONLY|Rotation=270.000|XOffset=0mm|YOffset=0mm|HoleType=Round|Shape=RoundedRectangle|*
%AMROUNDEDRECTD41*
21,1,0.9000,0.5000,0,0,270.0*
21,1,0.3500,1.0500,0,0,270.0*
1,1,0.5500,-0.2500,-0.1750*
1,1,0.5500,-0.2500,0.1750*
1,1,0.5500,0.2500,0.1750*
1,1,0.5500,0.2500,-0.1750*
%
%ADD41ROUNDEDRECTD41*%
%ADD42R,1.5000X0.9000*%
%ADD43R,1.6750X0.6500*%
%ADD44R,1.0000X1.5500*%
%ADD45R,1.6000X1.4000*%
%ADD46R,1.4500X1.2000*%
%ADD47R,1.1300X0.8300*%
%ADD48R,1.1500X1.9000*%
%ADD49R,1.4000X1.9000*%
%ADD50R,1.3000X1.6000*%
G04:AMPARAMS|DCode=51|XSize=1.6mm|YSize=1.4mm|CornerRadius=0.28mm|HoleSize=0mm|Usage=FLASHONLY|Rotation=180.000|XOffset=0mm|YOffset=0mm|HoleType=Round|Shape=RoundedRectangle|*
%AMROUNDEDRECTD51*
21,1,1.6000,0.8400,0,0,180.0*
21,1,1.0400,1.4000,0,0,180.0*
1,1,0.5600,-0.5200,0.4200*
1,1,0.5600,0.5200,0.4200*
1,1,0.5600,0.5200,-0.4200*
1,1,0.5600,-0.5200,-0.4200*
%
%ADD51ROUNDEDRECTD51*%
G04:AMPARAMS|DCode=52|XSize=0.7mm|YSize=1.2mm|CornerRadius=0.225mm|HoleSize=0mm|Usage=FLASHONLY|Rotation=270.000|XOffset=0mm|YOffset=0mm|HoleType=Round|Shape=RoundedRectangle|*
%AMROUNDEDRECTD52*
21,1,0.7000,0.7500,0,0,270.0*
21,1,0.2500,1.2000,0,0,270.0*
1,1,0.4500,-0.3750,-0.1250*
1,1,0.4500,-0.3750,0.1250*
1,1,0.4500,0.3750,0.1250*
1,1,0.4500,0.3750,-0.1250*
%
%ADD52ROUNDEDRECTD52*%
%ADD53R,1.8000X1.2000*%
G04:AMPARAMS|DCode=54|XSize=1.13mm|YSize=0.83mm|CornerRadius=0.2425mm|HoleSize=0mm|Usage=FLASHONLY|Rotation=0.000|XOffset=0mm|YOffset=0mm|HoleType=Round|Shape=RoundedRectangle|*
%AMROUNDEDRECTD54*
21,1,1.1300,0.3450,0,0,0.0*
21,1,0.6450,0.8300,0,0,0.0*
1,1,0.4850,0.3225,-0.1725*
1,1,0.4850,-0.3225,-0.1725*
1,1,0.4850,-0.3225,0.1725*
1,1,0.4850,0.3225,0.1725*
%
%ADD54ROUNDEDRECTD54*%
%ADD55R,1.2000X0.7000*%
%ADD56O,3.7000X2.2000*%
%ADD57C,1.2000*%
%ADD58C,1.5240*%
%ADD59O,1.6000X1.7240*%
%ADD60C,1.8000*%
%ADD61R,1.8000X1.8000*%
%ADD62C,2.7000*%
%ADD63C,0.8000*%
%ADD64C,0.8096*%
%ADD65C,1.0000*%
%ADD66C,0.9112*%
%ADD67C,0.5050*%
%ADD68C,0.5048*%
D36*
X830884Y811623D02*
D03*
X850884D02*
D03*
X830884Y777678D02*
D03*
X850884D02*
D03*
X1002159Y808430D02*
D03*
X982159D02*
D03*
X830884Y795000D02*
D03*
X850884D02*
D03*
X982159Y825000D02*
D03*
Y791287D02*
D03*
X982159Y774320D02*
D03*
X686000Y750000D02*
D03*
X982141Y870636D02*
D03*
X982321Y890827D02*
D03*
X704925Y895525D02*
D03*
X687500Y930000D02*
D03*
X704925Y877000D02*
D03*
X1002159Y774320D02*
D03*
X1002159Y825000D02*
D03*
X1002141Y870636D02*
D03*
X1002159Y791287D02*
D03*
X1048400Y922316D02*
D03*
X707500Y930000D02*
D03*
X724925Y877000D02*
D03*
X1068400Y922316D02*
D03*
X1002321Y890827D02*
D03*
X724925Y895525D02*
D03*
X706000Y750000D02*
D03*
D37*
X834834Y930000D02*
D03*
X834830Y750000D02*
D03*
D38*
X821833Y930000D02*
D03*
X821830Y750000D02*
D03*
D39*
X850958Y833180D02*
D03*
Y850180D02*
D03*
X871919Y915000D02*
D03*
X850958Y884180D02*
D03*
X960000Y831500D02*
D03*
X871919Y898000D02*
D03*
X850958Y867180D02*
D03*
X960000Y848500D02*
D03*
D40*
X745925Y888500D02*
D03*
D41*
Y873500D02*
D03*
D42*
X732500Y808123D02*
D03*
Y846223D02*
D03*
Y833777D02*
D03*
X787500Y833523D02*
D03*
Y820823D02*
D03*
Y808123D02*
D03*
Y846223D02*
D03*
X732500Y820823D02*
D03*
D43*
X935570Y817180D02*
D03*
X876810Y856180D02*
D03*
Y862680D02*
D03*
X935570Y856180D02*
D03*
Y849680D02*
D03*
Y830180D02*
D03*
Y810680D02*
D03*
X876810D02*
D03*
Y817180D02*
D03*
Y823680D02*
D03*
Y830180D02*
D03*
Y836680D02*
D03*
X935570Y862680D02*
D03*
Y869180D02*
D03*
X876810Y849680D02*
D03*
Y869180D02*
D03*
Y843180D02*
D03*
X935570Y823680D02*
D03*
Y843180D02*
D03*
Y836680D02*
D03*
D44*
X850884Y753750D02*
D03*
X867884D02*
D03*
X1041900Y903250D02*
D03*
X928500Y885051D02*
D03*
X744000Y792500D02*
D03*
X911500Y885051D02*
D03*
X761000Y792500D02*
D03*
X1058900Y903250D02*
D03*
D45*
X809388Y850180D02*
D03*
X831388D02*
D03*
X809388Y867180D02*
D03*
D46*
X893178Y916500D02*
D03*
X926446Y792734D02*
D03*
X905893Y792734D02*
D03*
X887500Y785000D02*
D03*
X893178Y896500D02*
D03*
X887500Y765000D02*
D03*
X905893Y772734D02*
D03*
X926446Y772734D02*
D03*
D47*
X710450Y839618D02*
D03*
X684550D02*
D03*
Y830118D02*
D03*
Y849118D02*
D03*
X710450D02*
D03*
D48*
X708500Y802500D02*
D03*
X681500D02*
D03*
D49*
X713500Y782500D02*
D03*
X681500D02*
D03*
D50*
X911500Y922316D02*
D03*
X1008740D02*
D03*
X928500D02*
D03*
X1025740D02*
D03*
D51*
X831388Y867180D02*
D03*
D52*
X765375Y875250D02*
D03*
D53*
X726500Y930000D02*
D03*
X798500D02*
D03*
X798500Y750000D02*
D03*
X726500D02*
D03*
D54*
X710450Y830118D02*
D03*
D55*
X765375Y888250D02*
D03*
D56*
X629412Y896618D02*
D03*
Y782618D02*
D03*
D57*
Y862118D02*
D03*
Y817118D02*
D03*
D58*
X650412Y804618D02*
D03*
Y849618D02*
D03*
Y829618D02*
D03*
D59*
Y874618D02*
D03*
D60*
X953884Y749442D02*
D03*
X979284Y748680D02*
D03*
X1004684D02*
D03*
X1030084D02*
D03*
X1033000Y826200D02*
D03*
Y851600D02*
D03*
X1058400Y800800D02*
D03*
Y851600D02*
D03*
Y877000D02*
D03*
Y826200D02*
D03*
X1033000Y800800D02*
D03*
D61*
X1055484Y748680D02*
D03*
X1033000Y877000D02*
D03*
D62*
X1085878Y903250D02*
D03*
X1085955Y773450D02*
D03*
X629412Y925869D02*
D03*
Y753453D02*
D03*
D63*
X812816Y750000D02*
D03*
X867884Y766684D02*
D03*
X837861Y825930D02*
D03*
X939085Y885051D02*
D03*
X861958Y811623D02*
D03*
X840884Y765112D02*
D03*
X959940Y858998D02*
D03*
X938305Y783780D02*
D03*
X863531Y795000D02*
D03*
X921269Y856135D02*
D03*
X791317Y867180D02*
D03*
X916723Y824583D02*
D03*
X912897Y849828D02*
D03*
X972768Y836517D02*
D03*
X850875Y858680D02*
D03*
X916723Y803310D02*
D03*
X947794Y922237D02*
D03*
X714895Y861821D02*
D03*
X773466Y846332D02*
D03*
X913953Y761500D02*
D03*
X850000Y937500D02*
D03*
X1013751Y870678D02*
D03*
X1014402Y890827D02*
D03*
D64*
X892597Y850053D02*
D03*
X822833Y907567D02*
D03*
X893218Y928248D02*
D03*
X821972Y761162D02*
D03*
X812673Y930000D02*
D03*
X870700Y925538D02*
D03*
X846270Y926270D02*
D03*
X1027343Y903250D02*
D03*
X776951Y916000D02*
D03*
X756500D02*
D03*
X734500D02*
D03*
X712500D02*
D03*
X668395Y874540D02*
D03*
X735000Y792500D02*
D03*
D65*
X720298Y799570D02*
D03*
X726500Y782500D02*
D03*
X686100Y736226D02*
D03*
X772500Y792500D02*
D03*
D66*
X1085878Y882692D02*
D03*
X992321Y914046D02*
D03*
X956900Y913856D02*
D03*
X992321Y939894D02*
D03*
X785846Y892500D02*
D03*
X1085955Y796136D02*
D03*
X612068Y765953D02*
D03*
X893178Y883047D02*
D03*
X779730Y762500D02*
D03*
X755730Y817323D02*
D03*
X662500Y766781D02*
D03*
X611912Y912467D02*
D03*
X982321Y930585D02*
D03*
X667500Y793598D02*
D03*
X646912Y738413D02*
D03*
X1066400Y771496D02*
D03*
X671072Y901775D02*
D03*
X1013552Y859600D02*
D03*
X1085878Y933145D02*
D03*
X965000Y930585D02*
D03*
X975871Y913856D02*
D03*
X1078502Y748152D02*
D03*
X829109Y941104D02*
D03*
X697500Y910478D02*
D03*
X870250Y783750D02*
D03*
X787500Y795485D02*
D03*
X718500Y765000D02*
D03*
X947716Y939894D02*
D03*
X1039775D02*
D03*
X697500Y942500D02*
D03*
X665000D02*
D03*
X899428Y862680D02*
D03*
X798500Y941770D02*
D03*
X938212Y772734D02*
D03*
X654551Y918745D02*
D03*
D67*
X699925Y836483D02*
D03*
D68*
X698500Y843000D02*
D03*
M02*
